<?xml version="1.0" standalone="no"?>
<!DOCTYPE svg PUBLIC "-//W3C//DTD SVG 1.1//EN" "http://www.w3.org/Graphics/SVG/1.1/DTD/svg11.dtd" >
<svg xmlns="http://www.w3.org/2000/svg" xmlns:xlink="http://www.w3.org/1999/xlink" version="1.1">
<metadata>
Created by FontForge 20160405 at Mon Apr 17 08:39:08 2017
 By www-data
Copyright (c) Christian Schwartz, 2007. All rights reserved.
</metadata>
<defs>
<font id="." horiz-adv-x="1229" >
  <font-face 
    font-family="."
    font-weight="600"
    font-stretch="normal"
    units-per-em="2048"
    panose-1="2 11 7 3 4 0 0 2 0 4"
    ascent="1638"
    descent="-410"
    x-height="1079"
    cap-height="1434"
    bbox="-393 -467 2402 2214"
    underline-thickness="102"
    underline-position="-409"
    unicode-range="U+000D-FB02"
  />
<missing-glyph horiz-adv-x="791" 
 />
    <glyph glyph-name="f_f" unicode="ff" horiz-adv-x="1378" 
d="M25 1079h116v54q0 165 95.5 239t269.5 74q72 0 112.5 -8t75.5 -21v-207h-59q-62 0 -93.5 -17t-31.5 -71v-43h278v66q0 166 95.5 239.5t271.5 73.5q72 0 117 -9t80 -22v-204h-70q-63 0 -95 -17.5t-32 -75.5v-51h186v-237h-186v-842h-367v842h-278v-842h-369v842h-116v237z
" />
    <glyph glyph-name=".notdef" horiz-adv-x="791" 
 />
    <glyph glyph-name=".null" horiz-adv-x="0" 
 />
    <glyph glyph-name="nonmarkingreturn" unicode="&#xd;" horiz-adv-x="385" 
 />
    <glyph glyph-name="NULL" horiz-adv-x="0" 
 />
    <glyph glyph-name="NULL" horiz-adv-x="0" 
 />
    <glyph glyph-name="space" unicode=" " horiz-adv-x="385" 
 />
    <glyph glyph-name="exclam" unicode="!" horiz-adv-x="616" 
d="M113 1219v215h391v-215l-76 -773h-242zM307 -14q-40 0 -75 14.5t-61 39.5t-41 59t-15 73t15 73t41 59t61 39.5t75 14.5t75 -14.5t61.5 -39.5t41.5 -59t15 -73t-15 -73t-41.5 -59t-61.5 -39.5t-75 -14.5z" />
    <glyph glyph-name="quotedbl" unicode="&#x22;" horiz-adv-x="829" 
d="M49 1260v174h324v-174l-51 -322h-222zM457 1260v174h323v-174l-51 -322h-221z" />
    <glyph glyph-name="numbersign" unicode="#" 
d="M158 1092h182l51 342h240l-51 -342h172l51 342h239l-51 -342h148v-254h-185l-26 -193h145v-254h-182l-57 -391h-240l57 391h-172l-57 -391h-240l58 391h-148v254h184l27 193h-145v254zM516 645h172l27 193h-172z" />
    <glyph glyph-name="dollar" unicode="$" 
d="M698 1444q106 -8 190 -34t159 -67v-256h-146q-38 35 -89.5 62.5t-113.5 38.5v-316q118 -32 200 -68t133.5 -85.5t75 -118t23.5 -164.5q0 -94 -29 -170t-86 -132t-141 -91t-194 -47v-205h-186v199q-128 6 -224.5 34.5t-175.5 77.5v271h148q19 -21 44 -41.5t56.5 -38
t69 -30t82.5 -17.5v332q-96 28 -172.5 62.5t-130.5 84t-82.5 119.5t-28.5 170q0 96 31 170.5t87.5 127.5t136 85t177.5 43v131h186v-127zM786 391q0 56 -26.5 85.5t-79.5 47.5v-264q106 37 106 131zM401 1051q0 -47 27.5 -74.5t83.5 -48.5v250q-54 -16 -82.5 -48.5
t-28.5 -78.5z" />
    <glyph glyph-name="percent" unicode="%" horiz-adv-x="1638" 
d="M391 868q48 0 75.5 46t27.5 151q0 106 -27.5 151.5t-75.5 45.5q-49 0 -75.5 -45.5t-26.5 -151.5q0 -105 26.5 -151t75.5 -46zM391 682q-68 0 -131 23.5t-111.5 71.5t-78 121t-29.5 171t29.5 170t78 119.5t111.5 70.5t131 23q67 0 130.5 -23t112 -70.5t78 -119.5
t29.5 -170t-29.5 -171t-78 -121t-112 -71.5t-130.5 -23.5zM1202 1493h238l-1010 -1563h-237zM1247 170q49 0 76 46t27 151q0 106 -26.5 151t-76.5 45q-48 0 -75 -45t-27 -151q0 -105 27.5 -151t74.5 -46zM1247 -18q-68 0 -131 24t-111.5 72.5t-78 121.5t-29.5 171t29.5 170
t78 119.5t111.5 70.5t131 23q67 0 130.5 -23t113 -70.5t79 -119.5t29.5 -170t-29.5 -171t-79 -121.5t-113 -72.5t-130.5 -24z" />
    <glyph glyph-name="ampersand" unicode="&#x26;" horiz-adv-x="1458" 
d="M967 100q-81 -57 -177 -86.5t-215 -29.5q-133 0 -233 30.5t-167 86t-100.5 134t-33.5 175.5q0 74 24 136t64.5 112t94 88.5t112.5 66.5q-31 54 -48.5 113t-17.5 131q0 87 32 159.5t95 125t155.5 81.5t213.5 29q61 0 111.5 -6.5t92 -18.5t75 -28.5t61.5 -36.5v-248h-145
q-25 25 -66 45.5t-111 20.5q-63 0 -101 -33t-38 -92q0 -25 6 -46.5t19 -43.5t32.5 -45.5t45.5 -51.5l260 -295q27 67 49 142.5t28 150.5h291v-100q-25 -115 -69.5 -222t-100.5 -198l224 -254v-92h-371zM635 242q45 0 84.5 14t73.5 39l-306 340q-35 -32 -57 -76t-22 -106
q0 -45 14 -84t42 -67t70.5 -44t100.5 -16z" />
    <glyph glyph-name="quotesingle" unicode="'" horiz-adv-x="422" 
d="M49 1260v174h324v-174l-51 -322h-222z" />
    <glyph glyph-name="parenleft" unicode="(" horiz-adv-x="721" 
d="M680 1290q-51 -18 -101 -57t-89 -106.5t-63 -168t-24 -241.5q0 -150 24 -254.5t63 -173.5t89 -108t101 -58v-223h-105q-96 26 -189 83.5t-166 155t-118 240t-45 338.5q0 128 21 232.5t57.5 187.5t86.5 147t107.5 110t120 76.5t125.5 47.5h105v-228z" />
    <glyph glyph-name="parenright" unicode=")" horiz-adv-x="721" 
d="M39 1518h106q94 -26 186.5 -82t166.5 -152t120 -235.5t46 -331.5q0 -196 -45 -338.5t-118.5 -240t-166.5 -155t-189 -83.5h-106v223q51 19 100.5 58t88.5 108t63 173.5t24 254.5q0 141 -24 241.5t-63 168t-88.5 106.5t-100.5 57v228z" />
    <glyph glyph-name="asterisk" unicode="*" horiz-adv-x="823" 
d="M485 1176l129 98l97 31l80 -248l-95 -33l-153 6l133 -90l57 -80l-213 -151l-59 82l-49 159l-52 -159l-59 -82l-213 151l59 80l134 90l-154 -6l-96 33l82 248l96 -31l125 -98l-53 157v101h262v-101z" />
    <glyph glyph-name="plus" unicode="+" 
d="M770 565v-368h-305v368h-346v285h346v368h305v-368h344v-285h-344z" />
    <glyph glyph-name="comma" unicode="," horiz-adv-x="614" 
d="M115 -84q66 9 101.5 31t35.5 51q0 15 -6.5 23.5t-17 15t-23.5 13t-27 16.5q-28 20 -45.5 50.5t-17.5 80.5q0 35 14 64.5t39 51t59 33.5t74 12t77 -13t65 -41t44.5 -70.5t16.5 -100.5q0 -168 -95.5 -259t-293.5 -110v152z" />
    <glyph glyph-name="hyphen" unicode="-" horiz-adv-x="627" 
d="M61 739h504v-280h-504v280z" />
    <glyph glyph-name="period" unicode="." horiz-adv-x="614" 
d="M307 -14q-40 0 -75 14.5t-61 39.5t-41 59t-15 73t15 73t41 59t61 39.5t75 14.5t75 -14.5t61.5 -39.5t41.5 -59t15 -73t-15 -73t-41.5 -59t-61.5 -39.5t-75 -14.5z" />
    <glyph glyph-name="slash" unicode="/" horiz-adv-x="754" 
d="M743 1446l-473 -1546h-266v71l473 1547h266v-72z" />
    <glyph glyph-name="zero" unicode="0" 
d="M614 -20q-119 0 -222 43t-178.5 133.5t-119 229.5t-43.5 331t44 331t120.5 229.5t179 133.5t219.5 43t219.5 -43t179 -133.5t121 -229.5t44.5 -331t-43.5 -331t-119.5 -229.5t-179 -133.5t-222 -43zM614 244q44 0 76.5 24t53.5 78.5t31.5 143.5t10.5 219t-10.5 219
t-31.5 144t-53.5 79.5t-76.5 24.5t-76 -24.5t-53.5 -79.5t-32 -144t-10.5 -219t10.5 -219t32 -143.5t53.5 -78.5t76 -24z" />
    <glyph glyph-name="one" unicode="1" 
d="M508 0v1047l-248 -136h-82v273l445 250h278v-1434h-393z" />
    <glyph glyph-name="two" unicode="2" 
d="M1110 0h-1010v299l394 373q60 57 103 103.5t70.5 86.5t40.5 76.5t13 73.5q0 69 -44 108t-134 39q-43 0 -81 -8t-71 -21.5t-61 -31t-51 -35.5h-138v262q38 24 86 47t105 40.5t121.5 28.5t136.5 11q123 0 219.5 -24.5t163.5 -76t102 -131t35 -188.5q0 -76 -23 -142
t-66.5 -128.5t-106 -126t-142.5 -133.5l-233 -207h571v-295z" />
    <glyph glyph-name="three" unicode="3" 
d="M526 -18q-78 0 -140.5 7.5t-114 21t-94 32t-79.5 41.5v256h144q35 -34 98.5 -60t153.5 -26q49 0 91.5 11t73.5 33t48.5 55t17.5 77q0 87 -54 126.5t-169 39.5h-115v256h102q116 0 173 41.5t57 120.5q0 75 -45 115t-133 40q-42 0 -80.5 -7t-71 -18.5t-59.5 -25.5t-47 -28
h-136v243q82 51 191 85t250 34q112 0 204.5 -22.5t158.5 -69.5t102.5 -120t36.5 -173q0 -70 -19.5 -123t-54.5 -92.5t-84.5 -66.5t-110.5 -44v-8q143 -23 218 -102.5t75 -222.5q0 -103 -42.5 -182.5t-120 -133.5t-185.5 -82t-240 -28z" />
    <glyph glyph-name="four" unicode="4" 
d="M645 0v299h-569v293l590 842h366v-885h144v-250h-144v-299h-387zM330 549h323v465h-8l-315 -457v-8z" />
    <glyph glyph-name="five" unicode="5" 
d="M1124 469q0 -114 -43 -204.5t-122.5 -153.5t-192 -96t-250.5 -33q-73 0 -132 7t-109 19.5t-92 30.5t-81 41v264h142q37 -34 99 -61t153 -27q54 0 99 13.5t77 40t49.5 65.5t17.5 90t-13.5 88t-37.5 60.5t-57 34.5t-72 11t-69.5 -7.5t-54.5 -19.5t-42 -26.5t-31 -27.5h-219
v856h901v-295h-628v-293h6q37 29 100 51.5t160 22.5q94 0 174.5 -26.5t140 -82t93.5 -140.5t34 -202z" />
    <glyph glyph-name="six" unicode="6" 
d="M639 -18q-129 0 -236 42t-184 128t-119.5 218.5t-42.5 313.5q0 185 48.5 328.5t140 241t223 148t297.5 50.5q59 0 107 -5t88.5 -13.5t74 -20.5t64.5 -27v-270h-142q-26 22 -72 40t-114 18q-81 0 -138.5 -24t-96 -70t-61 -113t-32.5 -154q62 51 138.5 74.5t169.5 23.5
q97 0 176 -28t135.5 -83t87.5 -136.5t31 -188.5q0 -111 -38 -201.5t-108.5 -155.5t-171 -100.5t-225.5 -35.5zM633 668q-59 0 -109.5 -17.5t-87.5 -42.5q3 -104 16.5 -176.5t38 -118t60 -66t82.5 -20.5q51 0 85.5 16.5t55 47t29 73t8.5 95.5q0 103 -43.5 156t-134.5 53z" />
    <glyph glyph-name="seven" unicode="7" 
d="M260 123l541 999v8h-695v304h1004v-324l-461 -1110h-389v123z" />
    <glyph glyph-name="eight" unicode="8" 
d="M614 -18q-137 0 -240.5 29t-173 83.5t-104.5 133.5t-35 178q0 137 65.5 223.5t195.5 130.5v8q-106 37 -158.5 110t-52.5 189q0 90 36.5 161.5t103 121t159 76t204.5 26.5t205 -26.5t160 -76t104 -121t37 -161.5q0 -116 -53 -189t-160 -110v-8q131 -44 194.5 -130.5
t63.5 -223.5q0 -99 -35 -178t-104 -133.5t-172 -83.5t-240 -29zM614 227q52 0 88.5 16t59.5 43.5t34 65.5t11 82t-11 82t-34 66.5t-59.5 44.5t-88.5 16t-89 -16t-60 -44.5t-34 -66.5t-11 -82t11 -82t34 -65.5t60 -43.5t89 -16zM614 870q78 0 119 43t41 121q0 79 -41 123.5
t-119 44.5t-118.5 -44.5t-40.5 -123.5q0 -78 40.5 -121t118.5 -43z" />
    <glyph glyph-name="nine" unicode="9" 
d="M455 -18q-116 0 -197.5 16.5t-144.5 42.5v276h141q23 -20 72.5 -39.5t126.5 -19.5q86 0 145.5 22.5t97.5 66.5t58 109.5t28 151.5q-65 -46 -141.5 -67t-161.5 -21q-98 0 -178.5 27.5t-137.5 82t-88.5 135t-31.5 187.5q0 111 38.5 203t109.5 158t172.5 102.5t226.5 36.5
q129 0 236 -42t183.5 -128.5t119 -219t42.5 -314.5q0 -184 -45 -326.5t-135 -240t-224 -148.5t-312 -51zM594 764q59 0 109 17t88 40q-3 107 -17 180.5t-38 119t-59.5 65.5t-82.5 20q-51 0 -85.5 -17.5t-55.5 -49t-30 -75t-9 -95.5q0 -205 180 -205z" />
    <glyph glyph-name="colon" unicode=":" horiz-adv-x="614" 
d="M307 567q-41 0 -76 14.5t-60.5 39.5t-40.5 58.5t-15 72.5t15 73t40.5 59.5t60.5 40.5t76 15q40 0 75 -15t61.5 -40.5t41.5 -59.5t15 -73t-15 -72.5t-41.5 -58.5t-61.5 -39.5t-75 -14.5zM307 -14q-41 0 -76 14.5t-60.5 39.5t-40.5 59t-15 73t15 73t40.5 59t60.5 39.5
t76 14.5q40 0 75 -14.5t61.5 -39.5t41.5 -59t15 -73t-15 -73t-41.5 -59t-61.5 -39.5t-75 -14.5z" />
    <glyph glyph-name="semicolon" unicode=";" horiz-adv-x="614" 
d="M111 -84q68 9 102.5 31t34.5 51q0 15 -6.5 23.5t-17 15t-23.5 13t-27 16.5q-28 20 -45.5 50.5t-17.5 80.5q0 35 14 64.5t39 51t59 33.5t74 12q41 0 78 -13t64.5 -41t44 -70.5t16.5 -100.5q0 -168 -95 -259t-294 -110v152zM307 567q-41 0 -76 14.5t-60.5 39.5t-40.5 58.5
t-15 72.5t15 73t40.5 59.5t60.5 40.5t76 15q40 0 75 -15t61.5 -40.5t41.5 -59.5t15 -73t-15 -72.5t-41.5 -58.5t-61.5 -39.5t-75 -14.5z" />
    <glyph glyph-name="less" unicode="&#x3c;" 
d="M180 799l789 385h75v-277l-489 -227v-6l489 -230v-278h-75l-789 385v248z" />
    <glyph glyph-name="equal" unicode="=" 
d="M156 717v272h921v-272h-921zM156 287v272h921v-272h-921z" />
    <glyph glyph-name="greater" unicode="&#x3e;" 
d="M1051 551l-789 -385h-76v276l488 228v6l-488 227v281h76l789 -385v-248z" />
    <glyph glyph-name="question" unicode="?" horiz-adv-x="950" 
d="M236 446q-11 61 -10 109.5t15.5 91t43.5 83t75 85.5q32 30 61 58.5t51 58t35 60t13 65.5q0 57 -37.5 87t-99.5 30q-75 0 -125.5 -24t-85.5 -58h-139v251q36 23 77.5 43t90 34.5t105 23t122.5 8.5q232 0 352.5 -97.5t120.5 -283.5q0 -63 -16 -113.5t-45.5 -93.5t-71 -80.5
t-92.5 -74.5q-43 -33 -77 -61t-57 -57.5t-33.5 -64t-6.5 -80.5h-266zM377 -14q-40 0 -75 14.5t-61.5 39.5t-41.5 59t-15 73t15 73t41.5 59t61.5 39.5t75 14.5t75 -14.5t61 -39.5t41 -59t15 -73t-15 -73t-41 -59t-61 -39.5t-75 -14.5z" />
    <glyph glyph-name="at" unicode="@" horiz-adv-x="1806" 
d="M905 -274q-110 0 -216.5 19.5t-202.5 60t-177 102.5t-140 147t-92.5 194t-33.5 243q0 142 37.5 261.5t103 217t154 171.5t189 123.5t209 75t214.5 25.5q112 0 215.5 -20t194 -59.5t164.5 -97t127.5 -133t82.5 -168t29 -200.5q0 -144 -44 -248t-117.5 -172t-169.5 -100.5
t-199 -32.5q-61 0 -106.5 9t-78 26t-53.5 41t-32 53q-23 -24 -50 -47t-60 -41t-72.5 -28.5t-86.5 -10.5q-57 0 -103.5 19t-79.5 55.5t-51 91.5t-18 127q0 61 14 122.5t41 118t66 105t89 84t110.5 56t130.5 20.5q76 0 124 -24.5t83 -61.5q28 37 61 55.5t86 18.5h139
l-110 -488q-11 -47 -2 -78.5t53 -31.5t83.5 21t69.5 65.5t48 112.5t18 163q0 116 -41.5 207.5t-119 154.5t-187.5 96.5t-248 33.5q-85 0 -168.5 -18.5t-159 -56t-139.5 -94.5t-111 -133.5t-73.5 -173t-26.5 -212.5q0 -155 49 -264.5t134.5 -180t201 -103t248.5 -32.5
q155 0 284.5 34.5t231.5 100.5h74v-176q-48 -32 -112.5 -59t-141 -46t-162 -29.5t-174.5 -10.5zM827 346q32 0 65.5 15t59.5 42l72 310q-14 5 -30.5 8.5t-47.5 3.5q-45 0 -81 -23.5t-61.5 -62.5t-39.5 -89.5t-14 -105.5q0 -49 20 -73.5t57 -24.5z" />
    <glyph glyph-name="A" unicode="A" horiz-adv-x="1421" 
d="M39 92l457 1342h426l462 -1342v-92h-380l-101 324h-457l-96 -324h-311v92zM526 590h297l-147 483h-4z" />
    <glyph glyph-name="B" unicode="B" horiz-adv-x="1284" 
d="M115 1434h536q269 0 401 -91t132 -284q0 -66 -18 -116t-52 -86.5t-81.5 -60.5t-106.5 -38v-8q71 -13 128.5 -39t98 -66.5t62.5 -97t22 -131.5q0 -102 -38.5 -179.5t-112 -130t-180.5 -79.5t-244 -27h-547v1434zM645 254q100 0 148.5 48t48.5 136q0 90 -49 136.5
t-148 46.5h-145v-367h145zM633 860q91 0 133.5 39t42.5 121q0 78 -42 118t-132 40h-135v-318h133z" />
    <glyph glyph-name="C" unicode="C" horiz-adv-x="1300" 
d="M760 -18q-161 0 -291.5 48t-222.5 141t-141.5 228.5t-49.5 309.5q0 176 53 314t150 233.5t233 145.5t302 50q75 0 136.5 -7.5t113.5 -21t96 -32t84 -41.5v-273h-152q-40 37 -105.5 65.5t-162.5 28.5q-163 0 -254.5 -110.5t-91.5 -337.5q0 -123 21 -211.5t62 -145
t102 -83.5t142 -27q58 0 104 10t83.5 27t68 39.5t56.5 48.5h139v-260q-82 -60 -198.5 -99.5t-276.5 -39.5z" />
    <glyph glyph-name="D" unicode="D" horiz-adv-x="1436" 
d="M115 1434h508q371 0 565 -175t194 -534q0 -362 -195 -543.5t-577 -181.5h-495v1434zM604 264q96 0 167 24.5t117.5 78t69.5 139.5t23 209t-22.5 208t-68.5 138t-117.5 76.5t-168.5 23.5h-96v-897h96z" />
    <glyph glyph-name="E" unicode="E" horiz-adv-x="1190" 
d="M115 1434h987v-275h-596v-305h420v-258h-420v-330h616v-266h-1007v1434z" />
    <glyph glyph-name="F" unicode="F" horiz-adv-x="1169" 
d="M115 0v1434h993v-275h-600v-342h461v-262h-461v-555h-393z" />
    <glyph glyph-name="G" unicode="G" horiz-adv-x="1395" 
d="M760 -18q-175 0 -307.5 48t-221 141t-133.5 228.5t-45 309.5q0 179 51.5 317.5t148 233t236 143.5t316.5 49q70 0 128 -6t109 -17t98 -28t95 -39v-283h-145q-24 18 -51 34.5t-60.5 29t-75 19.5t-94.5 7q-84 0 -149.5 -24.5t-110 -78.5t-67.5 -140.5t-23 -210.5
q0 -125 18 -214.5t55 -146.5t93.5 -83.5t132.5 -26.5q57 0 95 5.5t69 14.5v262h-170v238h542v-674q-112 -56 -247 -82t-287 -26z" />
    <glyph glyph-name="H" unicode="H" horiz-adv-x="1456" 
d="M115 0v1434h393v-566h440v566h393v-1434h-393v592h-440v-592h-393z" />
    <glyph glyph-name="I" unicode="I" horiz-adv-x="637" 
d="M121 0v1434h395v-1434h-395z" />
    <glyph glyph-name="J" unicode="J" horiz-adv-x="1004" 
d="M383 -18q-119 0 -203.5 23.5t-146.5 62.5v264h135q14 -13 31 -25.5t39.5 -22t50.5 -15t63 -5.5q75 0 113.5 37.5t38.5 110.5v1022h393v-1022q0 -211 -126 -320.5t-388 -109.5z" />
    <glyph glyph-name="K" unicode="K" horiz-adv-x="1419" 
d="M115 1434h393v-584l485 584h338v-88l-416 -480l459 -778v-88h-383l-352 596l-131 -143v-453h-393v1434z" />
    <glyph glyph-name="L" unicode="L" horiz-adv-x="1130" 
d="M115 0v1434h393v-1164h563v-270h-956z" />
    <glyph glyph-name="M" unicode="M" horiz-adv-x="1804" 
d="M115 1434h514l272 -852h6l273 852h510v-1434h-385v989h-7l-321 -989h-225l-318 989h-6v-989h-313v1434z" />
    <glyph glyph-name="N" unicode="N" horiz-adv-x="1448" 
d="M115 1434h420l469 -830h6v830h323v-1434h-356l-535 940h-6v-940h-321v1434z" />
    <glyph glyph-name="O" unicode="O" horiz-adv-x="1520" 
d="M760 -18q-146 0 -274.5 48t-224.5 141t-152 230t-56 314q0 118 25.5 218.5t72 182.5t111.5 145t143.5 105.5t168.5 64t186 21.5q144 0 273 -48.5t225.5 -142.5t153 -231.5t56.5 -314.5t-56 -314t-152 -230t-225 -141t-275 -48zM760 250q67 0 123.5 26.5t97.5 83
t63.5 143.5t22.5 208t-22.5 209t-63.5 145t-97.5 84t-123.5 27q-68 0 -124 -27t-97 -84t-63.5 -145t-22.5 -209t22.5 -208t63.5 -143.5t97 -83t124 -26.5z" />
    <glyph glyph-name="P" unicode="P" horiz-adv-x="1268" 
d="M115 1434h526q292 0 439 -114t147 -353q0 -236 -153.5 -349.5t-446.5 -113.5h-119v-504h-393v1434zM506 750h119q60 0 100.5 14.5t65.5 42.5t36 68t11 90q0 51 -10 89t-34.5 63.5t-65.5 38.5t-103 13h-119v-419z" />
    <glyph glyph-name="Q" unicode="Q" horiz-adv-x="1520" 
d="M721 -63q-157 42 -281 105.5t-210 157t-131.5 222t-45.5 299.5q0 117 25.5 216.5t72 180.5t111.5 143.5t143.5 105t168.5 64t186 21.5q145 0 274 -48.5t225.5 -142.5t152.5 -230.5t56 -313.5q0 -115 -27 -210t-76.5 -169t-119 -128t-153.5 -87v-6l424 -64v-297h-127z
M760 244q67 0 123.5 26.5t97.5 83t63.5 145t22.5 212.5q0 121 -22.5 209t-63.5 145t-97.5 84t-123.5 27q-68 0 -124 -27t-97 -84t-63.5 -145t-22.5 -209q0 -124 22.5 -212.5t63.5 -145t97 -83t124 -26.5z" />
    <glyph glyph-name="R" unicode="R" horiz-adv-x="1348" 
d="M657 526h-149v-526h-393v1434h538q286 0 430 -112t144 -327q0 -136 -56.5 -231t-156.5 -152l284 -520v-92h-364zM504 782h125q109 0 159 48.5t50 144.5t-50 144t-159 48h-125v-385z" />
    <glyph glyph-name="S" unicode="S" horiz-adv-x="1135" 
d="M514 -18q-78 0 -145 8t-124 23t-106.5 36t-93.5 47v273h145q22 -23 52 -44t68.5 -37t86 -25t103.5 -9q111 0 167 36.5t56 104.5q0 46 -20.5 73.5t-57 45.5t-86.5 30.5t-110 28.5q-99 25 -174 59.5t-125.5 86t-76.5 123.5t-26 174q0 110 40 192t111 136t170 81t218 27
q136 0 242 -25.5t184 -70.5v-264h-142q-49 37 -116 62.5t-154 25.5q-105 0 -157 -32t-52 -101q0 -36 15 -60t44.5 -41t73.5 -30t103 -27q127 -29 214.5 -66t141.5 -90t78 -126t24 -173q0 -108 -36.5 -192t-108.5 -141.5t-178.5 -88t-247.5 -30.5z" />
    <glyph glyph-name="T" unicode="T" horiz-adv-x="1235" 
d="M421 0v1161h-370v273h1133v-273h-370v-1161h-393z" />
    <glyph glyph-name="U" unicode="U" horiz-adv-x="1419" 
d="M750 268q58 0 101.5 13.5t73 45.5t44 85.5t14.5 134.5v887h326v-889q0 -136 -34.5 -240.5t-106 -176t-181.5 -108t-262 -36.5q-305 0 -460.5 145t-155.5 416v889h393v-887q0 -81 16 -134.5t47.5 -85.5t77.5 -45.5t107 -13.5z" />
    <glyph glyph-name="V" unicode="V" horiz-adv-x="1403" 
d="M35 1341v93h383l305 -983h4l309 983h330v-93l-455 -1341h-422z" />
    <glyph glyph-name="W" unicode="W" horiz-adv-x="1933" 
d="M39 1341v93h381l192 -945h4l220 945h311l225 -945h4l187 945h331v-93l-321 -1341h-414l-194 842h-4l-195 -842h-408z" />
    <glyph glyph-name="X" unicode="X" horiz-adv-x="1395" 
d="M51 96l381 645l-371 596v97h390l280 -469l252 469h322v-97l-351 -600l389 -641v-96h-387l-303 514l-278 -514h-324v96z" />
    <glyph glyph-name="Y" unicode="Y" horiz-adv-x="1305" 
d="M467 0v532l-438 805v97h368l287 -560h4l277 560h311v-97l-416 -794v-543h-393z" />
    <glyph glyph-name="Z" unicode="Z" horiz-adv-x="1171" 
d="M53 285l637 868v8h-592v273h1014v-295l-637 -863v-8h637v-268h-1059v285z" />
    <glyph glyph-name="bracketleft" unicode="[" horiz-adv-x="702" 
d="M125 1518h524v-236h-190v-1147h190v-235h-524v1618z" />
    <glyph glyph-name="backslash" unicode="\" horiz-adv-x="754" 
d="M10 1518h264l476 -1547v-71h-267l-473 1546v72z" />
    <glyph glyph-name="bracketright" unicode="]" horiz-adv-x="702" 
d="M578 -100h-523v235h189v1147h-189v236h523v-1618z" />
    <glyph glyph-name="asciicircum" unicode="^" horiz-adv-x="905" 
d="M31 1001l286 433h269l288 -433v-77h-262l-157 225h-6l-156 -225h-262v77z" />
    <glyph glyph-name="underscore" unicode="_" horiz-adv-x="778" 
d="M-6 -332v226h790v-226h-790z" />
    <glyph glyph-name="grave" unicode="`" horiz-adv-x="815" 
d="M311 1149l-209 203v88h355l69 -223v-68h-215z" />
    <glyph glyph-name="a" unicode="a" horiz-adv-x="1133" 
d="M840 0q-65 0 -98.5 24t-49.5 78q-57 -63 -133 -89.5t-176 -26.5q-71 0 -133.5 20t-109 60.5t-73 100.5t-26.5 140q0 85 31 148.5t87 105t134 62t172 20.5q62 0 111 -5.5t96 -14.5v73q0 71 -41.5 104.5t-141.5 33.5q-80 0 -144.5 -20.5t-111.5 -51.5h-110v248
q37 16 83.5 31.5t101 27.5t118 19.5t135.5 7.5q121 0 211 -21t149.5 -66t89 -115.5t29.5 -170.5v-723h-200zM528 201q42 0 78.5 17t65.5 42v191q-28 5 -59 7.5t-62 2.5q-74 0 -117 -30.5t-43 -98.5q0 -69 38.5 -100t98.5 -31z" />
    <glyph glyph-name="b" unicode="b" horiz-adv-x="1243" 
d="M467 971q58 53 137.5 89t183.5 36q77 0 150.5 -26.5t130.5 -89t92 -165t35 -254.5q0 -154 -37 -263.5t-99.5 -179t-145.5 -102t-175 -32.5q-109 0 -187 32t-134 90q-26 -49 -59 -77.5t-70 -28.5h-191v1434h234q42 0 68.5 -7t41 -28t20 -59t5.5 -99v-270zM621 821
q-35 0 -76 -9.5t-78 -25.5v-516q31 -21 65.5 -33t83.5 -12q40 0 77.5 12t66 45t46 92t17.5 154q0 91 -16 148.5t-43 89.5t-64 43.5t-79 11.5z" />
    <glyph glyph-name="c" unicode="c" horiz-adv-x="1040" 
d="M616 -16q-135 0 -241.5 36t-181 106.5t-113.5 173.5t-39 237q0 131 44 235t123 176t189 110t242 38q119 0 203.5 -23.5t138.5 -52.5v-252h-133q-29 26 -78 47t-115 21q-53 0 -97 -18.5t-75.5 -56.5t-49 -95t-17.5 -134t16.5 -132.5t46.5 -91.5t72.5 -53t95.5 -17
q42 0 74.5 6t58 16.5t45.5 24t37 28.5h123v-231q-26 -17 -62 -34.5t-82 -31.5t-102.5 -23t-122.5 -9z" />
    <glyph glyph-name="d" unicode="d" horiz-adv-x="1243" 
d="M885 0q-18 0 -33.5 5t-27.5 17.5t-21 34.5t-15 56q-24 -27 -55 -51t-69.5 -41.5t-85 -28t-101.5 -10.5q-92 0 -170.5 32.5t-136 99.5t-90.5 169t-33 241q0 160 40 269t104 176.5t144 97t161 29.5q51 0 92 -7t75 -20.5t61.5 -32.5t51.5 -43v441h234q43 0 69.5 -7.5
t41 -28.5t19.5 -58.5t5 -98.5v-1241h-260zM606 225q51 0 90 16t80 50v493q-58 37 -145 37q-41 0 -79 -11.5t-67.5 -43.5t-47 -88.5t-17.5 -145.5q0 -84 12 -142.5t35 -95t58 -53t81 -16.5z" />
    <glyph glyph-name="e" unicode="e" horiz-adv-x="1141" 
d="M414 459q7 -69 26.5 -113.5t51 -70.5t76 -36t100.5 -10q91 0 158.5 23t115.5 57h115v-219q-35 -20 -77.5 -39t-96.5 -34t-121 -24t-152 -9q-140 0 -246.5 38t-178 109t-108 172.5t-36.5 228.5q0 130 40 234.5t113 177.5t174.5 112.5t223.5 39.5q252 0 380 -134.5
t128 -408.5q0 -32 -2 -58.5t-2 -35.5h-682zM592 870q-32 0 -60.5 -9.5t-51.5 -34t-40 -67t-24 -108.5h336q-3 62 -14.5 104t-31.5 67.5t-48.5 36.5t-65.5 11z" />
    <glyph glyph-name="f" unicode="f" horiz-adv-x="733" 
d="M25 1079h116v66q0 83 24.5 142t72 97t116 56t156.5 18q71 0 117 -9t80 -22v-204h-72q-62 0 -93.5 -18t-31.5 -75v-51h184v-237h-184v-842h-369v842h-116v237z" />
    <glyph glyph-name="g" unicode="g" horiz-adv-x="1243" 
d="M1145 82q0 -107 -40.5 -187.5t-117.5 -134.5t-187.5 -81t-250.5 -27q-154 0 -262 22.5t-185 59.5v250h115q50 -32 121 -54t164 -22q140 0 207 43.5t67 140.5v53q-51 -42 -125 -67t-164 -25t-170 26.5t-140 86t-95 154.5t-35 233q0 151 40 255t105.5 168t148.5 92t169 28
q100 0 170 -31t127 -90q17 48 50 76t89 28h199v-997zM614 287q45 0 86 15t76 40v438q-31 20 -66 30.5t-83 10.5q-40 0 -77.5 -10t-66 -38.5t-46 -78.5t-17.5 -131q0 -84 12 -137.5t36.5 -84t61 -42.5t84.5 -12z" />
    <glyph glyph-name="h" unicode="h" horiz-adv-x="1233" 
d="M467 954q35 29 77.5 55t90.5 45.5t101.5 30.5t111.5 11q61 0 114 -14t93 -49t63 -93.5t23 -148.5v-791h-369v694q0 35 -7.5 58t-23 36.5t-39.5 19t-57 5.5q-51 0 -95.5 -11t-82.5 -24v-778h-369v1434h234q42 0 68.5 -7t41 -28t20 -59t5.5 -99v-287z" />
    <glyph glyph-name="i" unicode="i" horiz-adv-x="569" 
d="M100 0v1079h238q42 0 67 -8.5t39 -31.5t18.5 -63t4.5 -104v-872h-367zM285 1145q-41 0 -76 13t-60.5 35.5t-40 54t-14.5 69.5q0 37 14.5 69t40 55.5t60.5 36.5t76 13t76 -13t60.5 -36.5t39.5 -55.5t14 -69q0 -38 -14 -69.5t-39.5 -54t-60.5 -35.5t-76 -13z" />
    <glyph glyph-name="j" unicode="j" horiz-adv-x="569" 
d="M-80 -119h57q70 0 96.5 28.5t26.5 94.5v1075h238q42 0 67 -9t39 -32.5t18.5 -63.5t4.5 -102v-886q0 -89 -23 -152t-68 -103t-112 -58.5t-155 -18.5q-62 0 -106.5 7t-82.5 20v200zM285 1145q-41 0 -76 13t-60.5 35.5t-40 54t-14.5 69.5q0 37 14.5 69t40 55.5t60.5 36.5
t76 13t76 -13t60.5 -36.5t39.5 -55.5t14 -69q0 -38 -14 -69.5t-39.5 -54t-60.5 -35.5t-76 -13z" />
    <glyph glyph-name="k" unicode="k" horiz-adv-x="1184" 
d="M467 678l336 401h307v-88l-297 -338l338 -565v-88h-346l-250 420l-88 -96v-324h-369v1434h234q42 0 68.5 -7t41 -28t20 -59t5.5 -99v-563z" />
    <glyph glyph-name="l" unicode="l" horiz-adv-x="573" 
d="M102 0v1434h234q43 0 69.5 -7t41 -28t19.5 -59t5 -99v-1241h-369z" />
    <glyph glyph-name="m" unicode="m" horiz-adv-x="1862" 
d="M354 1079q22 0 39 -5t30 -19.5t22 -40.5t14 -68q35 31 76.5 58.5t88.5 48t99 32t108 11.5q45 0 85.5 -8t75 -26t61.5 -47.5t43 -72.5q77 69 176 111.5t211 42.5q59 0 111 -15t91 -50t61.5 -94t22.5 -146v-791h-368v694q0 67 -28.5 93t-92.5 26q-45 0 -86.5 -10t-75.5 -23
v-780h-368v694q0 67 -28.5 93t-92.5 26q-45 0 -86 -10t-76 -21v-782h-369v1079h256z" />
    <glyph glyph-name="n" unicode="n" horiz-adv-x="1233" 
d="M354 1079q22 0 39 -5t29.5 -19.5t21.5 -40t15 -66.5q36 30 79 57t92 47t104 32t114 12q61 0 114 -14t93 -49t63 -93.5t23 -148.5v-791h-369v694q0 35 -7.5 58t-23 36.5t-39.5 19t-57 5.5q-51 0 -95.5 -11t-82.5 -24v-778h-369v1079h256z" />
    <glyph glyph-name="o" unicode="o" horiz-adv-x="1231" 
d="M616 -16q-122 0 -227 37.5t-182.5 108.5t-121.5 173.5t-44 231.5q0 130 44 233.5t121.5 176.5t182.5 112t227 39q121 0 226 -39t182.5 -112t121.5 -176.5t44 -233.5q0 -129 -44 -231.5t-121.5 -173.5t-182.5 -108.5t-226 -37.5zM616 225q45 0 82 17.5t63.5 55t41 95
t14.5 137.5q0 81 -14.5 140t-41 97.5t-63.5 57.5t-82 19t-82 -19t-64 -57.5t-41.5 -97.5t-14.5 -140q0 -80 14.5 -137.5t41.5 -95t64 -55t82 -17.5z" />
    <glyph glyph-name="p" unicode="p" horiz-adv-x="1243" 
d="M731 10q-88 0 -152 19.5t-112 56.5v-418h-369v1411h256q21 0 37.5 -4.5t29.5 -17.5t21.5 -35.5t14.5 -58.5q30 28 65 52.5t75.5 42.5t88 28t102.5 10q77 0 150.5 -27t130.5 -89t92 -162.5t35 -248.5q0 -154 -39 -260.5t-103.5 -173t-148.5 -96t-174 -29.5zM623 821
q-34 0 -76.5 -9.5t-79.5 -25.5v-495q31 -22 67 -32.5t82 -10.5q42 0 80 11.5t66 43.5t44.5 88.5t16.5 145.5q0 87 -16 142t-43 86.5t-63.5 43.5t-77.5 12z" />
    <glyph glyph-name="q" unicode="q" horiz-adv-x="1243" 
d="M776 104q-51 -43 -125 -68.5t-164 -25.5t-170 30t-140 94t-95 163.5t-35 237.5q0 158 40 265.5t105.5 173t148.5 94t169 28.5q51 0 93 -8.5t78 -25t67 -40t59 -53.5q20 51 53.5 80.5t85.5 29.5h199v-1411h-369v436zM614 250q45 0 86 15t76 40v475q-31 20 -66 30.5
t-83 10.5q-40 0 -77.5 -12t-66 -43t-46 -84t-17.5 -135q0 -86 11.5 -143.5t35 -91.5t60 -48t87.5 -14z" />
    <glyph glyph-name="r" unicode="r" horiz-adv-x="850" 
d="M772 784q-105 0 -182.5 -16t-122.5 -35v-733h-369v1079h256q22 0 39 -5.5t30 -21.5t22 -45t14 -75q27 34 58 62.5t68 49t79.5 32t91.5 11.5q17 0 33.5 -2.5t31.5 -5.5v-295h-49z" />
    <glyph glyph-name="s" unicode="s" horiz-adv-x="961" 
d="M440 -14q-71 0 -128 7t-104 19t-85.5 27.5t-71.5 32.5v241h125q16 -15 40.5 -29t56.5 -25.5t70.5 -18.5t82.5 -7q74 0 117 18t43 60q0 22 -8 37t-29 25.5t-57.5 18.5t-92.5 16q-86 10 -152.5 32t-112.5 60.5t-69.5 97.5t-23.5 143q0 88 33 154.5t93 110.5t143.5 66
t185.5 22q64 0 116 -5t95.5 -14.5t80.5 -23t72 -29.5v-238h-117q-37 25 -96.5 45.5t-140.5 20.5q-78 0 -109.5 -20t-31.5 -58q0 -17 9.5 -30t31 -22.5t57 -17.5t86.5 -14q94 -12 164.5 -33.5t116.5 -60t69 -97.5t23 -145t-29 -154t-88.5 -115t-150 -72t-214.5 -25z" />
    <glyph glyph-name="t" unicode="t" horiz-adv-x="754" 
d="M25 1079h116v275h369v-275h201v-237h-201v-492q0 -72 30.5 -99.5t102.5 -27.5h72v-213q-37 -11 -89.5 -19.5t-121.5 -8.5q-83 0 -150 15.5t-114.5 52.5t-73 96.5t-25.5 148.5v547h-116v237z" />
    <glyph glyph-name="u" unicode="u" horiz-adv-x="1249" 
d="M608 254q44 0 87.5 11t80.5 24v790h367v-1079h-256q-22 0 -38.5 4t-29 17t-21 37t-14.5 63q-37 -29 -78.5 -53.5t-88 -43.5t-97 -29.5t-104.5 -10.5q-67 0 -124.5 15t-100 51t-67 95t-24.5 148v786h369v-702q0 -39 9.5 -63t27 -37.5t43.5 -18t59 -4.5z" />
    <glyph glyph-name="v" unicode="v" horiz-adv-x="1176" 
d="M31 995v84h352l231 -673h4l213 673h314v-84l-369 -995h-364z" />
    <glyph glyph-name="w" unicode="w" horiz-adv-x="1675" 
d="M35 993v86h354l156 -622h4l182 622h270l173 -622h4l165 622h297v-86l-301 -993h-327l-174 594h-4l-183 -594h-323z" />
    <glyph glyph-name="x" unicode="x" horiz-adv-x="1169" 
d="M39 86l301 465l-281 442v86h361l194 -331l181 331h301v-86l-258 -422l292 -485v-86h-358l-209 365l-209 -365h-315v86z" />
    <glyph glyph-name="y" unicode="y" horiz-adv-x="1165" 
d="M279 -248l141 299l-389 944v84h350l225 -612h6l209 612h316v-84l-525 -1327h-333v84z" />
    <glyph glyph-name="z" unicode="z" horiz-adv-x="1040" 
d="M51 248l506 577h-479v254h903v-254l-508 -575h498v-250h-920v248z" />
    <glyph glyph-name="braceleft" unicode="{" horiz-adv-x="770" 
d="M199 487q0 22 -6.5 42t-20.5 36t-35.5 25.5t-52.5 9.5h-45v238h45q31 0 52.5 9.5t35.5 25t20.5 36t6.5 41.5v289q0 65 19.5 117t59 88t99 55t139.5 19h199v-236h-125q-12 0 -22.5 -5.5t-18.5 -14.5t-12.5 -20t-4.5 -21v-275q0 -41 -9.5 -76t-31.5 -63t-58.5 -49
t-90.5 -35v-6q54 -14 90.5 -35t58.5 -49t31.5 -63t9.5 -76v-297q0 -11 4.5 -22t12.5 -20t18.5 -14.5t22.5 -5.5h125v-235h-203q-157 0 -235 74t-78 206v307z" />
    <glyph glyph-name="bar" unicode="|" horiz-adv-x="406" 
d="M340 -100h-274v1618h274v-1618z" />
    <glyph glyph-name="braceright" unicode="}" horiz-adv-x="770" 
d="M569 180q0 -132 -78 -206t-235 -74h-201v235h123q25 0 42.5 20t17.5 42v297q0 41 9.5 76t31 63t57.5 49t90 35v6q-54 14 -90 35t-57.5 49t-31 63t-9.5 76v275q0 21 -17.5 41t-42.5 20h-123v236h199q80 0 139 -19t98 -55t58.5 -88t19.5 -117v-289q0 -21 6.5 -41.5
t20.5 -36t35.5 -25t52.5 -9.5h47v-238h-47q-31 0 -52.5 -9.5t-35.5 -25.5t-20.5 -36t-6.5 -42v-307z" />
    <glyph glyph-name="asciitilde" unicode="~" horiz-adv-x="831" 
d="M33 530q10 52 31 96.5t52.5 76t73.5 49.5t93 18q40 0 75.5 -8t66.5 -17.5t56.5 -17.5t44.5 -8q29 0 46 14.5t26 42.5h199v-108q-9 -52 -30 -96t-52.5 -76t-73 -50t-92.5 -18q-36 0 -71.5 8t-67.5 17.5t-59 17.5t-46 8q-29 0 -45.5 -14.5t-26.5 -42.5h-200v108z" />
    <glyph glyph-name="uni00A0" unicode="&#xa0;" horiz-adv-x="385" 
 />
    <glyph glyph-name="exclamdown" unicode="&#xa1;" horiz-adv-x="616" 
d="M504 76v-215h-391v215l73 770h242zM307 1307q41 0 76 -14.5t61 -39.5t41 -58.5t15 -72.5t-15 -73.5t-41 -60t-61 -40t-76 -14.5q-39 0 -74 14.5t-61 40t-41.5 60t-15.5 73.5t15.5 72.5t41.5 58.5t61 39.5t74 14.5z" />
    <glyph glyph-name="cent" unicode="&#xa2;" 
d="M1081 82q-40 -26 -107 -52.5t-155 -37.5v-203h-186v199q-119 9 -213.5 49t-160.5 110t-101 167.5t-35 222.5q0 120 37.5 216.5t105 167t162.5 114t209 55.5v129h186v-129q84 -8 147.5 -27.5t106.5 -42.5v-252h-133q-20 17 -51.5 33.5t-69.5 25.5v-585q47 11 79 30.5
t56 40.5h123v-231zM496 532q0 -118 36 -187t105 -95v567q-68 -28 -104.5 -99t-36.5 -186z" />
    <glyph glyph-name="sterling" unicode="&#xa3;" 
d="M102 246q33 12 62 32t50 49.5t33.5 69.5t12.5 92q0 26 -2.5 51t-5.5 50h-139v241h84q-11 45 -18 90.5t-7 96.5q0 106 39.5 187t111 136t170 83t216.5 28q67 0 123.5 -7t105.5 -20.5t91.5 -32t80.5 -42.5v-273h-141q-21 17 -44 32t-50.5 26t-60 17.5t-71.5 6.5
q-38 0 -72 -9t-59.5 -28.5t-41 -50.5t-15.5 -76q0 -80 12 -164h332v-241h-301q2 -22 3 -43t1 -41q0 -35 -6.5 -66t-17.5 -58t-25 -49t-29 -38h604v-295h-1026v246z" />
    <glyph glyph-name="yen" unicode="&#xa5;" 
d="M106 793h240l-283 544v97h355l225 -500h6l215 500h301v-97l-268 -544h248v-195h-326v-96h326v-193h-326v-309h-387v309h-326v193h326v96h-326v195z" />
    <glyph glyph-name="brokenbar" unicode="&#xa6;" horiz-adv-x="406" 
d="M66 631h276l-2 -731h-274v731zM66 1518h274l2 -719h-276v719z" />
    <glyph glyph-name="section" unicode="&#xa7;" horiz-adv-x="1126" 
d="M39 561q0 55 14 98.5t39 77t60 58.5t77 43q-54 43 -77 103.5t-23 148.5q0 82 31.5 149t90.5 114t143.5 73t189.5 26q70 0 126 -6t101 -16.5t81 -23.5t66 -28v-237h-116q-35 26 -97 47.5t-149 21.5q-74 0 -116 -20.5t-42 -67.5q0 -19 10 -35.5t33 -31.5t62 -29t98 -29
q108 -27 190.5 -57t138 -73.5t83.5 -104t28 -148.5q0 -41 -9.5 -81t-31.5 -75.5t-58 -66t-89 -53.5q53 -42 79.5 -99t26.5 -139t-29 -151t-89 -118.5t-152 -77t-217 -27.5q-71 0 -129.5 7t-107.5 19t-89.5 27t-74.5 31v241h118q16 -15 46 -30t67.5 -26.5t79.5 -18.5t82 -7
q162 0 162 90q0 23 -11 39.5t-36.5 30.5t-69 27.5t-107.5 31.5q-105 28 -181 61.5t-125.5 77t-73 100.5t-23.5 134zM526 489q45 -12 86 -24t78 -25q40 17 61 45.5t21 63.5q0 28 -11 49t-35 38.5t-62 31.5t-93 28q-40 11 -75.5 20.5t-67.5 20.5q-48 -14 -69 -41t-21 -61
q0 -25 8.5 -45t29.5 -37.5t57.5 -33t92.5 -30.5z" />
    <glyph glyph-name="dieresis" unicode="&#xa8;" horiz-adv-x="815" 
d="M199 1147q-38 0 -70 12t-55 33.5t-36 51t-13 65.5q0 35 13 65t36 52t55 34.5t70 12.5q37 0 69 -12.5t54.5 -34.5t35.5 -52t13 -65q0 -36 -13 -65.5t-35.5 -51t-54.5 -33.5t-69 -12zM616 1147q-38 0 -69.5 12t-54 33.5t-35.5 51t-13 65.5q0 35 13 65t35.5 52t54 34.5
t69.5 12.5t70 -12.5t55.5 -34.5t36.5 -52t13 -65q0 -36 -13 -65.5t-36.5 -51t-55.5 -33.5t-70 -12z" />
    <glyph glyph-name="copyright" unicode="&#xa9;" horiz-adv-x="1599" 
d="M801 -16q-98 0 -191 21.5t-175.5 63.5t-152 104t-119.5 143.5t-78 182t-28 218.5t28 218.5t78 182t119.5 143.5t152 104t175.5 63.5t191 21.5t191 -21.5t175 -63.5t151 -104t119 -143.5t77.5 -182t27.5 -218.5t-27.5 -218.5t-77.5 -182t-119 -143.5t-151 -104t-175 -63.5
t-191 -21.5zM801 98q123 0 232.5 41.5t191.5 120.5t130 194.5t48 262.5t-48 262t-130 194t-191.5 120.5t-232.5 41.5q-125 0 -234.5 -41.5t-192 -120.5t-130 -194t-47.5 -262t47.5 -262.5t130 -194.5t192 -120.5t234.5 -41.5zM823 309q-99 0 -177.5 27t-132.5 79t-83 128
t-29 174q0 97 32 173.5t90 129.5t138.5 81.5t178.5 28.5q88 0 151 -17.5t105 -37.5v-194h-107q-21 18 -53.5 33.5t-83.5 15.5q-75 0 -120.5 -53t-45.5 -162q0 -111 42.5 -160t119.5 -49q30 0 53 4.5t41 12t32 17t25 19.5h99v-176q-19 -12 -46 -25.5t-61.5 -24t-76.5 -17.5
t-91 -7z" />
    <glyph glyph-name="ordfeminine" unicode="&#xaa;" horiz-adv-x="954" 
d="M705 528q-54 0 -81.5 21.5t-41.5 66.5q-48 -54 -110.5 -77t-145.5 -23q-59 0 -111.5 17t-91.5 50.5t-61.5 84t-22.5 118.5q0 72 26 125.5t72.5 88.5t112 52t143.5 17q51 0 93 -3.5t79 -12.5v55q0 56 -34 82.5t-115 26.5q-66 0 -119 -17.5t-90 -40.5h-101v215
q35 15 74.5 28.5t85 24t99 17t116.5 6.5q105 0 182 -17.5t127.5 -56.5t75.5 -100t25 -148v-600h-186zM455 707q29 0 58 13t52 32v151q-21 3 -45 5.5t-49 2.5q-57 0 -91 -24t-34 -80q0 -28 8.5 -47t23 -31t34.5 -17t43 -5z" />
    <glyph glyph-name="guillemotleft" unicode="&#xab;" horiz-adv-x="1090" 
d="M63 467v129l232 387h274v-74l-215 -372v-5l215 -376v-74h-274zM520 467v129l232 387h274v-74l-215 -372v-5l215 -376v-74h-274z" />
    <glyph glyph-name="registered" unicode="&#xae;" horiz-adv-x="786" 
d="M393 717q-74 0 -142.5 24.5t-121 71.5t-84 115t-31.5 155q0 88 31.5 156t84 115t121 71.5t142.5 24.5t142.5 -24.5t121 -71.5t84 -115t31.5 -156q0 -87 -31.5 -155t-84 -115t-121 -71.5t-142.5 -24.5zM393 797q59 0 111 18t90.5 54t61 89.5t22.5 124.5q0 72 -22.5 125.5
t-61 89.5t-90.5 54t-111 18t-110.5 -18t-90 -54t-61 -89.5t-22.5 -125.5q0 -71 22.5 -124.5t61 -89.5t90 -54t110.5 -18zM393 1026h-28v-123h-127v375h168q157 0 157 -127q0 -32 -14 -56.5t-39 -39.5l61 -113v-39h-118zM393 1106q25 0 35 12t10 35q0 20 -10 31.5t-35 11.5
h-31v-90h31z" />
    <glyph glyph-name="macron" unicode="&#xaf;" horiz-adv-x="815" 
d="M684 1186h-553v221h553v-221z" />
    <glyph glyph-name="degree" unicode="&#xb0;" horiz-adv-x="717" 
d="M358 854q-63 0 -119 21.5t-98.5 60.5t-67 93.5t-24.5 121.5t24.5 121.5t67 93t98.5 59.5t119 21t119.5 -21t99.5 -59.5t68 -93t25 -121.5t-25 -121.5t-68 -93.5t-99.5 -60.5t-119.5 -21.5zM358 1010q59 0 95 39t36 102t-36 101t-95 38q-57 0 -92 -38t-35 -101
q0 -32 9.5 -57.5t26 -44.5t40 -29t51.5 -10z" />
    <glyph glyph-name="twosuperior" unicode="&#xb2;" horiz-adv-x="717" 
d="M651 631h-604v200l223 197q54 47 80.5 81t26.5 67q0 28 -20.5 46.5t-61.5 18.5t-75 -14.5t-52 -30.5h-107v180q48 29 117.5 50.5t163.5 21.5q156 0 238 -59.5t82 -182.5q0 -45 -13.5 -80.5t-37 -68.5t-58.5 -64.5t-78 -66.5l-115 -95h291v-200z" />
    <glyph glyph-name="threesuperior" unicode="&#xb3;" horiz-adv-x="707" 
d="M303 616q-98 0 -158.5 19.5t-103.5 42.5v168h98q19 -15 52.5 -29t80.5 -14q113 0 113 76q0 73 -104 73h-82v162h73q111 0 111 72q0 67 -92 67q-43 0 -76 -12t-53 -24h-99v163q46 29 115.5 48.5t159.5 19.5q65 0 121.5 -13.5t97.5 -40t63.5 -67.5t22.5 -98q0 -78 -43 -121
t-121 -61v-7q178 -24 178 -184q0 -117 -93 -178.5t-261 -61.5z" />
    <glyph glyph-name="acute" unicode="&#xb4;" horiz-adv-x="815" 
d="M291 1149v68l67 223h355v-88l-207 -203h-215z" />
    <glyph glyph-name="mu" unicode="&#xb5;" horiz-adv-x="1255" 
d="M471 375q0 -76 37 -99.5t104 -23.5q41 0 85 11t81 26v788h369v-1077h-256q-43 0 -68.5 21.5t-36.5 101.5q-53 -49 -114.5 -77t-153.5 -28h-24.5t-22.5 2v-352h-367v1409h367v-702z" />
    <glyph glyph-name="paragraph" unicode="&#xb6;" horiz-adv-x="1208" 
d="M496 614h-7q-98 0 -180 23.5t-141 73t-92 126.5t-33 185q0 117 40 196t109.5 127t164.5 68.5t206 20.5h531v-1620h-234v1386h-131v-1386h-233v800z" />
    <glyph glyph-name="periodcentered" unicode="&#xb7;" horiz-adv-x="481" 
d="M240 418q-40 0 -75 14t-61.5 39t-41.5 58.5t-15 72.5t15 73t41.5 59t61.5 39.5t75 14.5t75 -14.5t61 -39.5t41 -59t15 -73t-15 -72.5t-41 -58.5t-61 -39t-75 -14z" />
    <glyph glyph-name="cedilla" unicode="&#xb8;" horiz-adv-x="815" 
d="M469 0v-49q87 -5 126.5 -43.5t39.5 -106.5q0 -72 -57 -115.5t-172 -43.5q-57 0 -95.5 8.5t-72.5 23.5v127h63q11 -9 28 -15.5t40 -6.5q53 0 53 33q0 15 -14 23.5t-50 8.5h-45v156h156z" />
    <glyph glyph-name="onesuperior" unicode="&#xb9;" horiz-adv-x="567" 
d="M188 631v545l-100 -52h-49v199l223 111h211v-803h-285z" />
    <glyph glyph-name="ordmasculine" unicode="&#xba;" horiz-adv-x="1069" 
d="M535 514q-105 0 -194.5 31.5t-155 91.5t-102 146t-36.5 194q0 109 36.5 196.5t102 149t155 94.5t194.5 33t194 -33t154.5 -94.5t102 -149t36.5 -196.5q0 -108 -36.5 -194t-102 -146t-154.5 -91.5t-194 -31.5zM535 727q36 0 65 14.5t49.5 44.5t31.5 77t11 112
q0 132 -42.5 193t-114.5 61q-73 0 -115.5 -61t-42.5 -193q0 -65 11 -112t31.5 -77t50 -44.5t65.5 -14.5z" />
    <glyph glyph-name="guillemotright" unicode="&#xbb;" horiz-adv-x="1090" 
d="M520 156l215 376v5l-215 372v74h275l231 -387v-129l-231 -385h-275v74zM63 156l216 376v5l-216 372v74h275l231 -387v-129l-231 -385h-275v74z" />
    <glyph glyph-name="onequarter" unicode="&#xbc;" horiz-adv-x="1583" 
d="M1206 0v162h-350v192l361 449h260v-473h79v-168h-79v-162h-271zM1044 328h170v213h-4l-166 -209v-4zM201 631v545l-101 -52h-47v199l223 111h209v-803h-284zM383 -70h-238l1010 1563h238z" />
    <glyph glyph-name="onehalf" unicode="&#xbd;" horiz-adv-x="1667" 
d="M1616 0h-604v201l223 196q54 48 80 82t26 66q0 29 -20.5 47t-60.5 18q-41 0 -75 -14t-52 -31h-107v180q48 29 117.5 50.5t163.5 21.5q155 0 237 -60t82 -182q0 -44 -13 -80t-37 -69t-58.5 -64.5t-77.5 -66.5l-115 -94h291v-201zM201 631v545l-101 -52h-47v199l223 111
h209v-803h-284zM381 -70h-238l1010 1563h238z" />
    <glyph glyph-name="threequarters" unicode="&#xbe;" horiz-adv-x="1661" 
d="M322 616q-50 0 -89 5.5t-70.5 14t-56.5 19.5t-47 23v168h99q18 -14 52 -28.5t81 -14.5q54 0 83 18.5t29 57.5q0 73 -104 73h-82v162h74q54 0 82 19t28 53q0 67 -92 67q-43 0 -76 -12t-53 -24h-98v163q45 28 115 48t159 20q66 0 122 -13t97 -40t64 -68t23 -98
q0 -79 -43.5 -121.5t-120.5 -60.5v-7q178 -24 178 -184q0 -58 -24 -102.5t-69.5 -75t-111 -46.5t-149.5 -16zM1284 0v162h-350v192l360 449h260v-473h80v-168h-80v-162h-270zM1122 328h170v213h-4l-166 -209v-4zM481 -70h-237l1009 1563h238z" />
    <glyph glyph-name="questiondown" unicode="&#xbf;" horiz-adv-x="950" 
d="M715 846q10 -60 9.5 -108.5t-15 -91t-44 -83t-75.5 -84.5q-32 -31 -61 -59.5t-51 -57.5t-35 -59.5t-13 -64.5q0 -59 37.5 -88t99.5 -29q76 0 126 24t85 58h140v-254q-36 -23 -78 -42.5t-90.5 -34.5t-105 -23.5t-122.5 -8.5q-230 0 -351.5 98.5t-121.5 284.5
q0 62 16 112.5t45.5 93.5t71 81t92.5 76q43 33 77 60.5t57 56.5t34 63t7 80h266zM573 1307q41 0 76 -14.5t61 -39.5t41 -58.5t15 -72.5t-15 -73.5t-41 -60t-61 -40t-76 -14.5q-40 0 -75 14.5t-61 40t-41 60t-15 73.5t15 72.5t41 58.5t61 39.5t75 14.5z" />
    <glyph glyph-name="Agrave" unicode="&#xc0;" horiz-adv-x="1421" 
d="M39 92l457 1342h426l462 -1342v-92h-380l-101 324h-457l-96 -324h-311v92zM526 590h297l-147 483h-4zM612 1481l-209 190v86h355l69 -209v-67h-215z" />
    <glyph glyph-name="Aacute" unicode="&#xc1;" horiz-adv-x="1421" 
d="M39 92l457 1342h426l462 -1342v-92h-380l-101 324h-457l-96 -324h-311v92zM526 590h297l-147 483h-4zM582 1548l67 209h355v-86l-207 -190h-215v67z" />
    <glyph glyph-name="Acircumflex" unicode="&#xc2;" horiz-adv-x="1421" 
d="M55 92l457 1342h426l462 -1342v-92h-380l-101 324h-457l-96 -324h-311v92zM542 590h297l-147 483h-4zM411 1559l187 204h247l183 -204v-78h-199l-115 78l-112 -78h-191v78z" />
    <glyph glyph-name="Atilde" unicode="&#xc3;" horiz-adv-x="1421" 
d="M39 92l457 1342h426l462 -1342v-92h-380l-101 324h-457l-96 -324h-311v92zM526 590h297l-147 483h-4zM352 1563q17 102 73 156.5t144 54.5q37 0 70 -8t61.5 -17t52 -17t42.5 -8q26 0 40.5 13.5t22.5 36.5h184v-82q-17 -103 -72.5 -157t-142.5 -54q-38 0 -70.5 8.5t-61 18
t-52 18t-41.5 8.5q-53 0 -65 -53h-185v82z" />
    <glyph glyph-name="Adieresis" unicode="&#xc4;" horiz-adv-x="1421" 
d="M39 92l457 1342h426l462 -1342v-92h-380l-101 324h-457l-96 -324h-311v92zM526 590h297l-147 483h-4zM496 1481q-38 0 -70 12t-55 33.5t-36 51t-13 64.5q0 36 13 65.5t36 51t55 33.5t70 12q37 0 69 -12t54.5 -33.5t35.5 -51t13 -65.5q0 -35 -13 -64.5t-35.5 -51
t-54.5 -33.5t-69 -12zM913 1481q-38 0 -69.5 12t-54 33.5t-35.5 51t-13 64.5q0 36 13 65.5t35.5 51t54 33.5t69.5 12t70 -12t55.5 -33.5t36.5 -51t13 -65.5q0 -35 -13 -64.5t-36.5 -51t-55.5 -33.5t-70 -12z" />
    <glyph glyph-name="Aring" unicode="&#xc5;" horiz-adv-x="1421" 
d="M39 92l457 1342h426l462 -1342v-92h-380l-101 324h-457l-96 -324h-311v92zM526 590h297l-147 483h-4zM703 1481q-45 0 -85 14.5t-70 41.5t-47.5 66t-17.5 87t17.5 86.5t47.5 65.5t70 42t85 15q44 0 84 -15t70 -42t47.5 -65.5t17.5 -86.5t-17.5 -87t-47.5 -66t-70 -41.5
t-84 -14.5zM703 1616q31 0 50 20t19 54t-19 54t-50 20t-49.5 -20t-18.5 -54t18.5 -54t49.5 -20z" />
    <glyph glyph-name="AE" unicode="&#xc6;" horiz-adv-x="1972" 
d="M897 338h-418l-155 -338h-306v92l652 1342h1214v-275h-596v-305h418v-258h-418v-330h617v-266h-1008v338zM600 602h297v557h-41z" />
    <glyph glyph-name="Ccedilla" unicode="&#xc7;" horiz-adv-x="1292" 
d="M1235 121q-79 -57 -188 -95.5t-259 -43.5v-31q87 -5 126.5 -43.5t39.5 -106.5q0 -72 -56.5 -115.5t-172.5 -43.5q-57 0 -95.5 8.5t-72.5 23.5v127h64q11 -9 27.5 -15.5t39.5 -6.5q53 0 53 33q0 15 -14 23.5t-49 8.5h-45v146q-134 18 -241 73.5t-182 147t-115 216.5
t-40 282q0 176 53 314t150 233.5t233 145.5t302 50q75 0 136.5 -7.5t113.5 -21t96 -32t84 -41.5v-273h-152q-40 37 -105.5 65.5t-162.5 28.5q-163 0 -254.5 -110.5t-91.5 -337.5q0 -123 21 -211.5t62 -145t102 -83.5t142 -27q58 0 104 10t83.5 27t68 39.5t56.5 48.5h139
v-260z" />
    <glyph glyph-name="Egrave" unicode="&#xc8;" horiz-adv-x="1190" 
d="M115 1434h987v-275h-596v-305h420v-258h-420v-330h616v-266h-1007v1434zM540 1481l-209 190v86h355l69 -209v-67h-215z" />
    <glyph glyph-name="Eacute" unicode="&#xc9;" horiz-adv-x="1190" 
d="M115 1434h987v-275h-596v-305h420v-258h-420v-330h616v-266h-1007v1434zM516 1548l67 209h355v-86l-207 -190h-215v67z" />
    <glyph glyph-name="Ecircumflex" unicode="&#xca;" horiz-adv-x="1190" 
d="M115 1434h987v-275h-596v-305h420v-258h-420v-330h616v-266h-1007v1434zM323 1559l187 204h247l183 -204v-78h-199l-115 78l-112 -78h-191v78z" />
    <glyph glyph-name="Edieresis" unicode="&#xcb;" horiz-adv-x="1190" 
d="M115 1434h987v-275h-596v-305h420v-258h-420v-330h616v-266h-1007v1434zM424 1481q-38 0 -70 12t-55 33.5t-36 51t-13 64.5q0 36 13 65.5t36 51t55 33.5t70 12q37 0 69 -12t54.5 -33.5t35.5 -51t13 -65.5q0 -35 -13 -64.5t-35.5 -51t-54.5 -33.5t-69 -12zM841 1481
q-38 0 -69.5 12t-54 33.5t-35.5 51t-13 64.5q0 36 13 65.5t35.5 51t54 33.5t69.5 12t70 -12t55.5 -33.5t36.5 -51t13 -65.5q0 -35 -13 -64.5t-36.5 -51t-55.5 -33.5t-70 -12z" />
    <glyph glyph-name="Igrave" unicode="&#xcc;" horiz-adv-x="637" 
d="M121 0v1434h395v-1434h-395zM227 1481l-209 190v86h355l69 -209v-67h-215z" />
    <glyph glyph-name="Iacute" unicode="&#xcd;" horiz-adv-x="637" 
d="M121 0v1434h395v-1434h-395zM203 1548l67 209h355v-86l-207 -190h-215v67z" />
    <glyph glyph-name="Icircumflex" unicode="&#xce;" horiz-adv-x="637" 
d="M121 0v1434h395v-1434h-395zM10 1559l187 204h247l183 -204v-78h-199l-115 78l-112 -78h-191v78z" />
    <glyph glyph-name="Idieresis" unicode="&#xcf;" horiz-adv-x="637" 
d="M121 0v1434h395v-1434h-395zM109 1481q-38 0 -70 12t-55 33.5t-36 51t-13 64.5q0 36 13 65.5t36 51t55 33.5t70 12q37 0 69 -12t54.5 -33.5t35.5 -51t13 -65.5q0 -35 -13 -64.5t-35.5 -51t-54.5 -33.5t-69 -12zM526 1481q-38 0 -69.5 12t-54 33.5t-35.5 51t-13 64.5
q0 36 13 65.5t35.5 51t54 33.5t69.5 12t70 -12t55.5 -33.5t36.5 -51t13 -65.5q0 -35 -13 -64.5t-36.5 -51t-55.5 -33.5t-70 -12z" />
    <glyph glyph-name="Eth" unicode="&#xd0;" horiz-adv-x="1444" 
d="M10 842h113v592h508q186 0 328 -43.5t238 -131.5t145 -221t49 -313q0 -362 -195.5 -543.5t-577.5 -181.5h-495v588h-113v254zM612 264q96 0 167 24.5t117.5 78t69.5 139.5t23 209t-22.5 208t-68.5 138t-117.5 76.5t-168.5 23.5h-96v-319h258v-254h-258v-324h96z" />
    <glyph glyph-name="Ntilde" unicode="&#xd1;" horiz-adv-x="1448" 
d="M115 1434h420l469 -830h6v830h323v-1434h-356l-535 940h-6v-940h-321v1434zM411 1563q17 102 73 156.5t144 54.5q37 0 70 -8t61.5 -17t52 -17t42.5 -8q26 0 40.5 13.5t22.5 36.5h184v-82q-17 -103 -72.5 -157t-142.5 -54q-38 0 -70.5 8.5t-61 18t-52 18t-41.5 8.5
q-53 0 -65 -53h-185v82z" />
    <glyph glyph-name="Ograve" unicode="&#xd2;" horiz-adv-x="1520" 
d="M760 -18q-146 0 -274.5 48t-224.5 141t-152 230t-56 314q0 118 25.5 218.5t72 182.5t111.5 145t143.5 105.5t168.5 64t186 21.5q144 0 273 -48.5t225.5 -142.5t153 -231.5t56.5 -314.5t-56 -314t-152 -230t-225 -141t-275 -48zM760 250q67 0 123.5 26.5t97.5 83
t63.5 143.5t22.5 208t-22.5 209t-63.5 145t-97.5 84t-123.5 27q-68 0 -124 -27t-97 -84t-63.5 -145t-22.5 -209t22.5 -208t63.5 -143.5t97 -83t124 -26.5zM667 1481l-209 190v86h355l69 -209v-67h-215z" />
    <glyph glyph-name="Oacute" unicode="&#xd3;" horiz-adv-x="1520" 
d="M760 -18q-146 0 -274.5 48t-224.5 141t-152 230t-56 314q0 118 25.5 218.5t72 182.5t111.5 145t143.5 105.5t168.5 64t186 21.5q144 0 273 -48.5t225.5 -142.5t153 -231.5t56.5 -314.5t-56 -314t-152 -230t-225 -141t-275 -48zM760 250q67 0 123.5 26.5t97.5 83
t63.5 143.5t22.5 208t-22.5 209t-63.5 145t-97.5 84t-123.5 27q-68 0 -124 -27t-97 -84t-63.5 -145t-22.5 -209t22.5 -208t63.5 -143.5t97 -83t124 -26.5zM643 1548l67 209h355v-86l-207 -190h-215v67z" />
    <glyph glyph-name="Ocircumflex" unicode="&#xd4;" horiz-adv-x="1520" 
d="M760 -18q-146 0 -274.5 48t-224.5 141t-152 230t-56 314q0 118 25.5 218.5t72 182.5t111.5 145t143.5 105.5t168.5 64t186 21.5q144 0 273 -48.5t225.5 -142.5t153 -231.5t56.5 -314.5t-56 -314t-152 -230t-225 -141t-275 -48zM760 250q67 0 123.5 26.5t97.5 83
t63.5 143.5t22.5 208t-22.5 209t-63.5 145t-97.5 84t-123.5 27q-68 0 -124 -27t-97 -84t-63.5 -145t-22.5 -209t22.5 -208t63.5 -143.5t97 -83t124 -26.5zM450 1559l187 204h247l183 -204v-78h-199l-115 78l-112 -78h-191v78z" />
    <glyph glyph-name="Otilde" unicode="&#xd5;" horiz-adv-x="1520" 
d="M760 -18q-146 0 -274.5 48t-224.5 141t-152 230t-56 314q0 118 25.5 218.5t72 182.5t111.5 145t143.5 105.5t168.5 64t186 21.5q144 0 273 -48.5t225.5 -142.5t153 -231.5t56.5 -314.5t-56 -314t-152 -230t-225 -141t-275 -48zM760 250q67 0 123.5 26.5t97.5 83
t63.5 143.5t22.5 208t-22.5 209t-63.5 145t-97.5 84t-123.5 27q-68 0 -124 -27t-97 -84t-63.5 -145t-22.5 -209t22.5 -208t63.5 -143.5t97 -83t124 -26.5zM413 1563q17 102 73 156.5t144 54.5q37 0 70 -8t61.5 -17t52 -17t42.5 -8q26 0 40.5 13.5t22.5 36.5h184v-82
q-17 -103 -72.5 -157t-142.5 -54q-38 0 -70.5 8.5t-61 18t-52 18t-41.5 8.5q-53 0 -65 -53h-185v82z" />
    <glyph glyph-name="Odieresis" unicode="&#xd6;" horiz-adv-x="1520" 
d="M760 -18q-146 0 -274.5 48t-224.5 141t-152 230t-56 314q0 118 25.5 218.5t72 182.5t111.5 145t143.5 105.5t168.5 64t186 21.5q144 0 273 -48.5t225.5 -142.5t153 -231.5t56.5 -314.5t-56 -314t-152 -230t-225 -141t-275 -48zM760 250q67 0 123.5 26.5t97.5 83
t63.5 143.5t22.5 208t-22.5 209t-63.5 145t-97.5 84t-123.5 27q-68 0 -124 -27t-97 -84t-63.5 -145t-22.5 -209t22.5 -208t63.5 -143.5t97 -83t124 -26.5zM551 1481q-38 0 -70 12t-55 33.5t-36 51t-13 64.5q0 36 13 65.5t36 51t55 33.5t70 12q37 0 69 -12t54.5 -33.5
t35.5 -51t13 -65.5q0 -35 -13 -64.5t-35.5 -51t-54.5 -33.5t-69 -12zM968 1481q-38 0 -69.5 12t-54 33.5t-35.5 51t-13 64.5q0 36 13 65.5t35.5 51t54 33.5t69.5 12t70 -12t55.5 -33.5t36.5 -51t13 -65.5q0 -35 -13 -64.5t-36.5 -51t-55.5 -33.5t-70 -12z" />
    <glyph glyph-name="multiply" unicode="&#xd7;" 
d="M137 414l285 282l-285 283l195 195l284 -285l285 285l195 -195l-287 -283l287 -282l-193 -193l-287 283l-286 -283z" />
    <glyph glyph-name="Oslash" unicode="&#xd8;" horiz-adv-x="1520" 
d="M760 -18q-105 0 -201.5 24t-179.5 74l-100 -125h-199v57l151 187q-83 93 -130.5 222t-47.5 294q0 118 25.5 218.5t72 182.5t111.5 145t143.5 105.5t168.5 64t186 21.5q109 0 209.5 -28.5t187.5 -82.5l98 121h197v-57l-154 -188q79 -93 124.5 -218.5t45.5 -283.5
q0 -177 -56 -314t-152 -230t-225 -141t-275 -48zM446 711q0 -65 6 -118.5t17 -98.5l492 606q-39 40 -90 60t-111 20q-69 0 -127 -27.5t-99.5 -85t-64.5 -146t-23 -210.5zM760 246q68 0 126 27t100 83.5t65.5 144.5t23.5 210q0 58 -5.5 108.5t-14.5 93.5l-488 -600
q38 -35 87 -51t106 -16z" />
    <glyph glyph-name="Ugrave" unicode="&#xd9;" horiz-adv-x="1419" 
d="M750 268q58 0 101.5 13.5t73 45.5t44 85.5t14.5 134.5v887h326v-889q0 -136 -34.5 -240.5t-106 -176t-181.5 -108t-262 -36.5q-305 0 -460.5 145t-155.5 416v889h393v-887q0 -81 16 -134.5t47.5 -85.5t77.5 -45.5t107 -13.5zM649 1481l-209 190v86h355l69 -209v-67h-215z
" />
    <glyph glyph-name="Uacute" unicode="&#xda;" horiz-adv-x="1419" 
d="M750 268q58 0 101.5 13.5t73 45.5t44 85.5t14.5 134.5v887h326v-889q0 -136 -34.5 -240.5t-106 -176t-181.5 -108t-262 -36.5q-305 0 -460.5 145t-155.5 416v889h393v-887q0 -81 16 -134.5t47.5 -85.5t77.5 -45.5t107 -13.5zM625 1548l67 209h355v-86l-207 -190h-215v67z
" />
    <glyph glyph-name="Ucircumflex" unicode="&#xdb;" horiz-adv-x="1419" 
d="M750 268q58 0 101.5 13.5t73 45.5t44 85.5t14.5 134.5v887h326v-889q0 -136 -34.5 -240.5t-106 -176t-181.5 -108t-262 -36.5q-305 0 -460.5 145t-155.5 416v889h393v-887q0 -81 16 -134.5t47.5 -85.5t77.5 -45.5t107 -13.5zM432 1559l187 204h247l183 -204v-78h-199
l-115 78l-112 -78h-191v78z" />
    <glyph glyph-name="Udieresis" unicode="&#xdc;" horiz-adv-x="1419" 
d="M750 268q58 0 101.5 13.5t73 45.5t44 85.5t14.5 134.5v887h326v-889q0 -136 -34.5 -240.5t-106 -176t-181.5 -108t-262 -36.5q-305 0 -460.5 145t-155.5 416v889h393v-887q0 -81 16 -134.5t47.5 -85.5t77.5 -45.5t107 -13.5zM531 1481q-38 0 -70 12t-55 33.5t-36 51
t-13 64.5q0 36 13 65.5t36 51t55 33.5t70 12q37 0 69 -12t54.5 -33.5t35.5 -51t13 -65.5q0 -35 -13 -64.5t-35.5 -51t-54.5 -33.5t-69 -12zM948 1481q-38 0 -69.5 12t-54 33.5t-35.5 51t-13 64.5q0 36 13 65.5t35.5 51t54 33.5t69.5 12t70 -12t55.5 -33.5t36.5 -51t13 -65.5
q0 -35 -13 -64.5t-36.5 -51t-55.5 -33.5t-70 -12z" />
    <glyph glyph-name="Yacute" unicode="&#xdd;" horiz-adv-x="1305" 
d="M467 0v532l-438 805v97h368l287 -560h4l277 560h311v-97l-416 -794v-543h-393zM555 1548l67 209h355v-86l-207 -190h-215v67z" />
    <glyph glyph-name="Thorn" unicode="&#xde;" horiz-adv-x="1268" 
d="M115 1434h393v-250h133q292 0 439 -112t147 -345q0 -230 -153.5 -342.5t-446.5 -112.5h-119v-272h-393v1434zM506 520h119q60 0 100.5 13.5t65.5 40t36 64.5t11 87t-10 85.5t-34.5 60.5t-65.5 35.5t-103 11.5h-119v-398z" />
    <glyph glyph-name="germandbls" unicode="&#xdf;" horiz-adv-x="1335" 
d="M98 1020q0 102 36 183t108 137t180 86t252 30q117 0 209.5 -19.5t156.5 -59t97.5 -99t33.5 -139.5q0 -39 -13 -74t-35 -66t-51.5 -59t-63.5 -53q-33 -25 -54 -42.5t-33.5 -31.5t-17 -26t-4.5 -25q0 -12 5 -22.5t19 -20.5t37.5 -22t61.5 -27q67 -28 119 -58t86.5 -70
t52.5 -92.5t18 -125.5q0 -75 -27 -137.5t-81.5 -107.5t-136.5 -70t-193 -25q-88 0 -165.5 18.5t-127.5 50.5v240h117q12 -11 28.5 -22.5t36.5 -20.5t45 -15t54 -6q54 0 85.5 18.5t31.5 47.5q0 17 -8 29.5t-27 24t-50 24t-77 30.5q-110 41 -170 107.5t-60 175.5q0 45 10.5 80
t28.5 65.5t43.5 58.5t55.5 60q22 25 40 44.5t30.5 37t19 34.5t6.5 38q0 43 -36 71.5t-107 28.5q-53 0 -90.5 -13.5t-61 -38.5t-34.5 -60.5t-11 -79.5v-1012h-369v1020z" />
    <glyph glyph-name="agrave" unicode="&#xe0;" horiz-adv-x="1133" 
d="M840 0q-65 0 -98.5 24t-49.5 78q-57 -63 -133 -89.5t-176 -26.5q-71 0 -133.5 20t-109 60.5t-73 100.5t-26.5 140q0 85 31 148.5t87 105t134 62t172 20.5q62 0 111 -5.5t96 -14.5v73q0 71 -41.5 104.5t-141.5 33.5q-80 0 -144.5 -20.5t-111.5 -51.5h-110v248
q37 16 83.5 31.5t101 27.5t118 19.5t135.5 7.5q121 0 211 -21t149.5 -66t89 -115.5t29.5 -170.5v-723h-200zM528 201q42 0 78.5 17t65.5 42v191q-28 5 -59 7.5t-62 2.5q-74 0 -117 -30.5t-43 -98.5q0 -69 38.5 -100t98.5 -31zM452 1149l-209 203v88h355l69 -223v-68h-215z
" />
    <glyph glyph-name="aacute" unicode="&#xe1;" horiz-adv-x="1133" 
d="M840 0q-65 0 -98.5 24t-49.5 78q-57 -63 -133 -89.5t-176 -26.5q-71 0 -133.5 20t-109 60.5t-73 100.5t-26.5 140q0 85 31 148.5t87 105t134 62t172 20.5q62 0 111 -5.5t96 -14.5v73q0 71 -41.5 104.5t-141.5 33.5q-80 0 -144.5 -20.5t-111.5 -51.5h-110v248
q37 16 83.5 31.5t101 27.5t118 19.5t135.5 7.5q121 0 211 -21t149.5 -66t89 -115.5t29.5 -170.5v-723h-200zM528 201q42 0 78.5 17t65.5 42v191q-28 5 -59 7.5t-62 2.5q-74 0 -117 -30.5t-43 -98.5q0 -69 38.5 -100t98.5 -31zM453 1149v68l67 223h355v-88l-207 -203h-215z
" />
    <glyph glyph-name="acircumflex" unicode="&#xe2;" horiz-adv-x="1133" 
d="M840 0q-65 0 -98.5 24t-49.5 78q-57 -63 -133 -89.5t-176 -26.5q-71 0 -133.5 20t-109 60.5t-73 100.5t-26.5 140q0 85 31 148.5t87 105t134 62t172 20.5q62 0 111 -5.5t96 -14.5v73q0 71 -41.5 104.5t-141.5 33.5q-80 0 -144.5 -20.5t-111.5 -51.5h-110v248
q37 16 83.5 31.5t101 27.5t118 19.5t135.5 7.5q121 0 211 -21t149.5 -66t89 -115.5t29.5 -170.5v-723h-200zM528 201q42 0 78.5 17t65.5 42v191q-28 5 -59 7.5t-62 2.5q-74 0 -117 -30.5t-43 -98.5q0 -69 38.5 -100t98.5 -31zM250 1227l187 213h247l183 -213v-78h-199
l-115 86l-112 -86h-191v78z" />
    <glyph glyph-name="atilde" unicode="&#xe3;" horiz-adv-x="1133" 
d="M840 0q-65 0 -98.5 24t-49.5 78q-57 -63 -133 -89.5t-176 -26.5q-71 0 -133.5 20t-109 60.5t-73 100.5t-26.5 140q0 85 31 148.5t87 105t134 62t172 20.5q62 0 111 -5.5t96 -14.5v73q0 71 -41.5 104.5t-141.5 33.5q-80 0 -144.5 -20.5t-111.5 -51.5h-110v248
q37 16 83.5 31.5t101 27.5t118 19.5t135.5 7.5q121 0 211 -21t149.5 -66t89 -115.5t29.5 -170.5v-723h-200zM528 201q42 0 78.5 17t65.5 42v191q-28 5 -59 7.5t-62 2.5q-74 0 -117 -30.5t-43 -98.5q0 -69 38.5 -100t98.5 -31zM213 1233q17 102 73 157.5t144 55.5
q37 0 70 -7.5t61.5 -17t52 -17t42.5 -7.5q26 0 40.5 13t22.5 36h184v-82q-17 -102 -72.5 -157.5t-142.5 -55.5q-38 0 -70.5 8.5t-61 18t-52 18t-41.5 8.5q-53 0 -65 -53h-185v82z" />
    <glyph glyph-name="adieresis" unicode="&#xe4;" horiz-adv-x="1133" 
d="M840 0q-65 0 -98.5 24t-49.5 78q-57 -63 -133 -89.5t-176 -26.5q-71 0 -133.5 20t-109 60.5t-73 100.5t-26.5 140q0 85 31 148.5t87 105t134 62t172 20.5q62 0 111 -5.5t96 -14.5v73q0 71 -41.5 104.5t-141.5 33.5q-80 0 -144.5 -20.5t-111.5 -51.5h-110v248
q37 16 83.5 31.5t101 27.5t118 19.5t135.5 7.5q121 0 211 -21t149.5 -66t89 -115.5t29.5 -170.5v-723h-200zM528 201q42 0 78.5 17t65.5 42v191q-28 5 -59 7.5t-62 2.5q-74 0 -117 -30.5t-43 -98.5q0 -69 38.5 -100t98.5 -31zM349 1147q-38 0 -70 12t-55 33.5t-36 51
t-13 65.5q0 35 13 65t36 52t55 34.5t70 12.5q37 0 69 -12.5t54.5 -34.5t35.5 -52t13 -65q0 -36 -13 -65.5t-35.5 -51t-54.5 -33.5t-69 -12zM766 1147q-38 0 -69.5 12t-54 33.5t-35.5 51t-13 65.5q0 35 13 65t35.5 52t54 34.5t69.5 12.5t70 -12.5t55.5 -34.5t36.5 -52t13 -65
q0 -36 -13 -65.5t-36.5 -51t-55.5 -33.5t-70 -12z" />
    <glyph glyph-name="aring" unicode="&#xe5;" horiz-adv-x="1133" 
d="M840 0q-65 0 -98.5 24t-49.5 78q-57 -63 -133 -89.5t-176 -26.5q-71 0 -133.5 20t-109 60.5t-73 100.5t-26.5 140q0 85 31 148.5t87 105t134 62t172 20.5q62 0 111 -5.5t96 -14.5v73q0 71 -41.5 104.5t-141.5 33.5q-80 0 -144.5 -20.5t-111.5 -51.5h-110v248
q37 16 83.5 31.5t101 27.5t118 19.5t135.5 7.5q121 0 211 -21t149.5 -66t89 -115.5t29.5 -170.5v-723h-200zM528 201q42 0 78.5 17t65.5 42v191q-28 5 -59 7.5t-62 2.5q-74 0 -117 -30.5t-43 -98.5q0 -69 38.5 -100t98.5 -31zM558 1151q-45 0 -85 14.5t-70 41.5t-47.5 66
t-17.5 87t17.5 86.5t47.5 65.5t70 42t85 15q44 0 84 -15t70 -42t47.5 -65.5t17.5 -86.5t-17.5 -87t-47.5 -66t-70 -41.5t-84 -14.5zM558 1286q31 0 50 20t19 54t-19 54t-50 20t-49.5 -20t-18.5 -54t18.5 -54t49.5 -20z" />
    <glyph glyph-name="ae" unicode="&#xe6;" horiz-adv-x="1767" 
d="M414 -14q-83 0 -151.5 19.5t-118 60t-76.5 101.5t-27 144t31 146t88.5 105t139.5 63.5t185 21.5h187v51q0 70 -41.5 103t-141.5 33q-80 0 -144.5 -20.5t-111.5 -51.5h-110v248q37 16 83.5 31.5t100.5 27.5t116 19.5t132 7.5q122 0 203 -24t131 -77q69 48 153.5 74.5
t178.5 26.5q251 0 378 -134t127 -409q0 -32 -2 -58.5t-2 -35.5h-682q7 -69 26.5 -113.5t51.5 -70.5t75.5 -36t98.5 -10q91 0 159 23t118 57h114v-219q-35 -20 -77.5 -39t-96.5 -34t-121 -24t-151 -9q-152 0 -261.5 42.5t-180.5 120.5q-32 -37 -70.5 -66.5t-85 -50.5
t-102.5 -32.5t-123 -11.5zM522 201q67 0 111.5 26t75.5 60q-16 38 -25 81t-14 91h-123q-71 0 -113.5 -29.5t-42.5 -97.5q0 -35 10 -59.5t28 -40.5t42 -23.5t51 -7.5zM1219 870q-32 0 -61 -9.5t-52.5 -34.5t-40 -67.5t-23.5 -109.5h336q-2 63 -13.5 105.5t-31.5 68
t-48.5 36.5t-65.5 11z" />
    <glyph glyph-name="ccedilla" unicode="&#xe7;" horiz-adv-x="1040" 
d="M985 82q-26 -17 -62 -34.5t-82 -31.5t-101.5 -23t-121.5 -9v-33q87 -5 126.5 -43.5t39.5 -106.5q0 -72 -56.5 -115.5t-172.5 -43.5q-57 0 -95.5 8.5t-72.5 23.5v127h64q11 -9 27.5 -15.5t39.5 -6.5q53 0 53 33q0 15 -14 23.5t-49 8.5h-45v154q-201 37 -311.5 174
t-110.5 365q0 131 44 235t123 176t189 110t242 38q119 0 203.5 -23.5t138.5 -52.5v-252h-133q-29 26 -78 47t-115 21q-53 0 -97 -18.5t-75.5 -56.5t-49 -95t-17.5 -134t16.5 -132.5t46.5 -91.5t72.5 -53t95.5 -17q42 0 74.5 6t58 16.5t45.5 24t37 28.5h123v-231z" />
    <glyph glyph-name="egrave" unicode="&#xe8;" horiz-adv-x="1141" 
d="M414 459q7 -69 26.5 -113.5t51 -70.5t76 -36t100.5 -10q91 0 158.5 23t115.5 57h115v-219q-35 -20 -77.5 -39t-96.5 -34t-121 -24t-152 -9q-140 0 -246.5 38t-178 109t-108 172.5t-36.5 228.5q0 130 40 234.5t113 177.5t174.5 112.5t223.5 39.5q252 0 380 -134.5
t128 -408.5q0 -32 -2 -58.5t-2 -35.5h-682zM592 870q-32 0 -60.5 -9.5t-51.5 -34t-40 -67t-24 -108.5h336q-3 62 -14.5 104t-31.5 67.5t-48.5 36.5t-65.5 11zM477 1149l-209 203v88h355l69 -223v-68h-215z" />
    <glyph glyph-name="eacute" unicode="&#xe9;" horiz-adv-x="1141" 
d="M414 459q7 -69 26.5 -113.5t51 -70.5t76 -36t100.5 -10q91 0 158.5 23t115.5 57h115v-219q-35 -20 -77.5 -39t-96.5 -34t-121 -24t-152 -9q-140 0 -246.5 38t-178 109t-108 172.5t-36.5 228.5q0 130 40 234.5t113 177.5t174.5 112.5t223.5 39.5q252 0 380 -134.5
t128 -408.5q0 -32 -2 -58.5t-2 -35.5h-682zM592 870q-32 0 -60.5 -9.5t-51.5 -34t-40 -67t-24 -108.5h336q-3 62 -14.5 104t-31.5 67.5t-48.5 36.5t-65.5 11zM477 1149v68l67 223h355v-88l-207 -203h-215z" />
    <glyph glyph-name="ecircumflex" unicode="&#xea;" horiz-adv-x="1141" 
d="M414 459q7 -69 26.5 -113.5t51 -70.5t76 -36t100.5 -10q91 0 158.5 23t115.5 57h115v-219q-35 -20 -77.5 -39t-96.5 -34t-121 -24t-152 -9q-140 0 -246.5 38t-178 109t-108 172.5t-36.5 228.5q0 130 40 234.5t113 177.5t174.5 112.5t223.5 39.5q252 0 380 -134.5
t128 -408.5q0 -32 -2 -58.5t-2 -35.5h-682zM592 870q-32 0 -60.5 -9.5t-51.5 -34t-40 -67t-24 -108.5h336q-3 62 -14.5 104t-31.5 67.5t-48.5 36.5t-65.5 11zM274 1227l187 213h247l183 -213v-78h-199l-115 86l-112 -86h-191v78z" />
    <glyph glyph-name="edieresis" unicode="&#xeb;" horiz-adv-x="1141" 
d="M414 459q7 -69 26.5 -113.5t51 -70.5t76 -36t100.5 -10q91 0 158.5 23t115.5 57h115v-219q-35 -20 -77.5 -39t-96.5 -34t-121 -24t-152 -9q-140 0 -246.5 38t-178 109t-108 172.5t-36.5 228.5q0 130 40 234.5t113 177.5t174.5 112.5t223.5 39.5q252 0 380 -134.5
t128 -408.5q0 -32 -2 -58.5t-2 -35.5h-682zM592 870q-32 0 -60.5 -9.5t-51.5 -34t-40 -67t-24 -108.5h336q-3 62 -14.5 104t-31.5 67.5t-48.5 36.5t-65.5 11zM373 1147q-38 0 -70 12t-55 33.5t-36 51t-13 65.5q0 35 13 65t36 52t55 34.5t70 12.5q37 0 69 -12.5t54.5 -34.5
t35.5 -52t13 -65q0 -36 -13 -65.5t-35.5 -51t-54.5 -33.5t-69 -12zM790 1147q-38 0 -69.5 12t-54 33.5t-35.5 51t-13 65.5q0 35 13 65t35.5 52t54 34.5t69.5 12.5t70 -12.5t55.5 -34.5t36.5 -52t13 -65q0 -36 -13 -65.5t-36.5 -51t-55.5 -33.5t-70 -12z" />
    <glyph glyph-name="igrave" unicode="&#xec;" horiz-adv-x="569" 
d="M100 0v1079h238q42 0 67 -8.5t39 -31.5t18.5 -63t4.5 -104v-872h-367zM194 1149l-209 203v88h355l69 -223v-68h-215z" />
    <glyph glyph-name="iacute" unicode="&#xed;" horiz-adv-x="569" 
d="M100 0v1079h238q42 0 67 -8.5t39 -31.5t18.5 -63t4.5 -104v-872h-367zM156 1149v68l67 223h355v-88l-207 -203h-215z" />
    <glyph glyph-name="icircumflex" unicode="&#xee;" horiz-adv-x="569" 
d="M100 0v1079h238q42 0 67 -8.5t39 -31.5t18.5 -63t4.5 -104v-872h-367zM-23 1227l187 213h247l183 -213v-78h-199l-115 86l-112 -86h-191v78z" />
    <glyph glyph-name="idieresis" unicode="&#xef;" horiz-adv-x="569" 
d="M100 0v1079h238q42 0 67 -8.5t39 -31.5t18.5 -63t4.5 -104v-872h-367zM76 1147q-38 0 -70 12t-55 33.5t-36 51t-13 65.5q0 35 13 65t36 52t55 34.5t70 12.5q37 0 69 -12.5t54.5 -34.5t35.5 -52t13 -65q0 -36 -13 -65.5t-35.5 -51t-54.5 -33.5t-69 -12zM493 1147
q-38 0 -69.5 12t-54 33.5t-35.5 51t-13 65.5q0 35 13 65t35.5 52t54 34.5t69.5 12.5t70 -12.5t55.5 -34.5t36.5 -52t13 -65q0 -36 -13 -65.5t-36.5 -51t-55.5 -33.5t-70 -12z" />
    <glyph glyph-name="eth" unicode="&#xf0;" horiz-adv-x="1231" 
d="M334 1126l82 70q-28 8 -56 14t-57 13v211h143q53 -8 103 -20t96 -28l53 46h207v-56l-82 -69q175 -105 271 -286t96 -433q0 -158 -44.5 -272t-122.5 -187.5t-185 -109t-232 -35.5q-124 0 -227.5 36t-178.5 104.5t-117 166.5t-42 223t38 221t102.5 161t149.5 98.5t179 33.5
q51 0 89 -7.5t68 -20.5t54 -31.5t47 -40.5q-25 63 -68 110t-100 82l-59 -51h-207v57zM623 225q91 0 142.5 68.5t51.5 216.5q0 150 -51 219.5t-143 69.5q-46 0 -84.5 -17t-66 -52.5t-43 -90t-15.5 -129.5q0 -74 15.5 -127.5t43 -88.5t66 -52t84.5 -17z" />
    <glyph glyph-name="ntilde" unicode="&#xf1;" horiz-adv-x="1233" 
d="M354 1079q22 0 39 -5t29.5 -19.5t21.5 -40t15 -66.5q36 30 79 57t92 47t104 32t114 12q61 0 114 -14t93 -49t63 -93.5t23 -148.5v-791h-369v694q0 35 -7.5 58t-23 36.5t-39.5 19t-57 5.5q-51 0 -95.5 -11t-82.5 -24v-778h-369v1079h256zM278 1233q17 102 73 157.5
t144 55.5q37 0 70 -7.5t61.5 -17t52 -17t42.5 -7.5q26 0 40.5 13t22.5 36h184v-82q-17 -102 -72.5 -157.5t-142.5 -55.5q-38 0 -70.5 8.5t-61 18t-52 18t-41.5 8.5q-53 0 -65 -53h-185v82z" />
    <glyph glyph-name="ograve" unicode="&#xf2;" horiz-adv-x="1231" 
d="M616 -16q-122 0 -227 37.5t-182.5 108.5t-121.5 173.5t-44 231.5q0 130 44 233.5t121.5 176.5t182.5 112t227 39q121 0 226 -39t182.5 -112t121.5 -176.5t44 -233.5q0 -129 -44 -231.5t-121.5 -173.5t-182.5 -108.5t-226 -37.5zM616 225q45 0 82 17.5t63.5 55t41 95
t14.5 137.5q0 81 -14.5 140t-41 97.5t-63.5 57.5t-82 19t-82 -19t-64 -57.5t-41.5 -97.5t-14.5 -140q0 -80 14.5 -137.5t41.5 -95t64 -55t82 -17.5zM510 1149l-209 203v88h355l69 -223v-68h-215z" />
    <glyph glyph-name="oacute" unicode="&#xf3;" horiz-adv-x="1231" 
d="M616 -16q-122 0 -227 37.5t-182.5 108.5t-121.5 173.5t-44 231.5q0 130 44 233.5t121.5 176.5t182.5 112t227 39q121 0 226 -39t182.5 -112t121.5 -176.5t44 -233.5q0 -129 -44 -231.5t-121.5 -173.5t-182.5 -108.5t-226 -37.5zM616 225q45 0 82 17.5t63.5 55t41 95
t14.5 137.5q0 81 -14.5 140t-41 97.5t-63.5 57.5t-82 19t-82 -19t-64 -57.5t-41.5 -97.5t-14.5 -140q0 -80 14.5 -137.5t41.5 -95t64 -55t82 -17.5zM510 1149v68l67 223h355v-88l-207 -203h-215z" />
    <glyph glyph-name="ocircumflex" unicode="&#xf4;" horiz-adv-x="1231" 
d="M616 -16q-122 0 -227 37.5t-182.5 108.5t-121.5 173.5t-44 231.5q0 130 44 233.5t121.5 176.5t182.5 112t227 39q121 0 226 -39t182.5 -112t121.5 -176.5t44 -233.5q0 -129 -44 -231.5t-121.5 -173.5t-182.5 -108.5t-226 -37.5zM616 225q45 0 82 17.5t63.5 55t41 95
t14.5 137.5q0 81 -14.5 140t-41 97.5t-63.5 57.5t-82 19t-82 -19t-64 -57.5t-41.5 -97.5t-14.5 -140q0 -80 14.5 -137.5t41.5 -95t64 -55t82 -17.5zM307 1227l187 213h247l183 -213v-78h-199l-115 86l-112 -86h-191v78z" />
    <glyph glyph-name="otilde" unicode="&#xf5;" horiz-adv-x="1231" 
d="M616 -16q-122 0 -227 37.5t-182.5 108.5t-121.5 173.5t-44 231.5q0 130 44 233.5t121.5 176.5t182.5 112t227 39q121 0 226 -39t182.5 -112t121.5 -176.5t44 -233.5q0 -129 -44 -231.5t-121.5 -173.5t-182.5 -108.5t-226 -37.5zM616 225q45 0 82 17.5t63.5 55t41 95
t14.5 137.5q0 81 -14.5 140t-41 97.5t-63.5 57.5t-82 19t-82 -19t-64 -57.5t-41.5 -97.5t-14.5 -140q0 -80 14.5 -137.5t41.5 -95t64 -55t82 -17.5zM270 1233q17 102 73 157.5t144 55.5q37 0 70 -7.5t61.5 -17t52 -17t42.5 -7.5q26 0 40.5 13t22.5 36h184v-82
q-17 -102 -72.5 -157.5t-142.5 -55.5q-38 0 -70.5 8.5t-61 18t-52 18t-41.5 8.5q-53 0 -65 -53h-185v82z" />
    <glyph glyph-name="odieresis" unicode="&#xf6;" horiz-adv-x="1231" 
d="M616 -16q-122 0 -227 37.5t-182.5 108.5t-121.5 173.5t-44 231.5q0 130 44 233.5t121.5 176.5t182.5 112t227 39q121 0 226 -39t182.5 -112t121.5 -176.5t44 -233.5q0 -129 -44 -231.5t-121.5 -173.5t-182.5 -108.5t-226 -37.5zM616 225q45 0 82 17.5t63.5 55t41 95
t14.5 137.5q0 81 -14.5 140t-41 97.5t-63.5 57.5t-82 19t-82 -19t-64 -57.5t-41.5 -97.5t-14.5 -140q0 -80 14.5 -137.5t41.5 -95t64 -55t82 -17.5zM406 1147q-38 0 -70 12t-55 33.5t-36 51t-13 65.5q0 35 13 65t36 52t55 34.5t70 12.5q37 0 69 -12.5t54.5 -34.5t35.5 -52
t13 -65q0 -36 -13 -65.5t-35.5 -51t-54.5 -33.5t-69 -12zM823 1147q-38 0 -69.5 12t-54 33.5t-35.5 51t-13 65.5q0 35 13 65t35.5 52t54 34.5t69.5 12.5t70 -12.5t55.5 -34.5t36.5 -52t13 -65q0 -36 -13 -65.5t-36.5 -51t-55.5 -33.5t-70 -12z" />
    <glyph glyph-name="divide" unicode="&#xf7;" 
d="M616 129q-40 0 -74.5 14t-60 38.5t-40.5 58t-15 71.5q0 39 15 73.5t40.5 59.5t60 39.5t74.5 14.5q39 0 74 -14.5t61 -39.5t41 -59.5t15 -73.5q0 -38 -15 -71.5t-41 -58t-61 -38.5t-74 -14zM119 850h995v-285h-995v285zM616 918q-40 0 -74.5 14t-60 38.5t-40.5 58.5
t-15 73q0 38 15 71.5t40.5 58.5t60 39.5t74.5 14.5q39 0 74 -14.5t61 -39.5t41 -58.5t15 -71.5q0 -39 -15 -73t-41 -58.5t-61 -38.5t-74 -14z" />
    <glyph glyph-name="oslash" unicode="&#xf8;" horiz-adv-x="1231" 
d="M616 -16q-80 0 -153.5 16t-136.5 47l-82 -100h-168v53l117 143q-72 72 -112 170t-40 222q0 130 44 233.5t121.5 176.5t182.5 112t227 39q82 0 156 -18.5t139 -53.5l74 92h168v-53l-111 -137q70 -73 109 -171.5t39 -219.5q0 -129 -44 -231.5t-121.5 -173.5t-182.5 -108.5
t-226 -37.5zM403 530q0 -68 9 -116l325 397q-24 22 -55 31.5t-66 9.5q-47 0 -86 -19.5t-67 -59t-44 -100.5t-16 -143zM616 213q46 0 84.5 19.5t66 58.5t43 98.5t15.5 140.5q0 34 -1.5 63.5t-6.5 55.5l-325 -397q26 -22 57.5 -30.5t66.5 -8.5z" />
    <glyph glyph-name="ugrave" unicode="&#xf9;" horiz-adv-x="1249" 
d="M608 254q44 0 87.5 11t80.5 24v790h367v-1079h-256q-22 0 -38.5 4t-29 17t-21 37t-14.5 63q-37 -29 -78.5 -53.5t-88 -43.5t-97 -29.5t-104.5 -10.5q-67 0 -124.5 15t-100 51t-67 95t-24.5 148v786h369v-702q0 -39 9.5 -63t27 -37.5t43.5 -18t59 -4.5zM520 1149l-209 203
v88h355l69 -223v-68h-215z" />
    <glyph glyph-name="uacute" unicode="&#xfa;" horiz-adv-x="1249" 
d="M608 254q44 0 87.5 11t80.5 24v790h367v-1079h-256q-22 0 -38.5 4t-29 17t-21 37t-14.5 63q-37 -29 -78.5 -53.5t-88 -43.5t-97 -29.5t-104.5 -10.5q-67 0 -124.5 15t-100 51t-67 95t-24.5 148v786h369v-702q0 -39 9.5 -63t27 -37.5t43.5 -18t59 -4.5zM520 1149v68
l67 223h355v-88l-207 -203h-215z" />
    <glyph glyph-name="ucircumflex" unicode="&#xfb;" horiz-adv-x="1249" 
d="M608 254q44 0 87.5 11t80.5 24v790h367v-1079h-256q-22 0 -38.5 4t-29 17t-21 37t-14.5 63q-37 -29 -78.5 -53.5t-88 -43.5t-97 -29.5t-104.5 -10.5q-67 0 -124.5 15t-100 51t-67 95t-24.5 148v786h369v-702q0 -39 9.5 -63t27 -37.5t43.5 -18t59 -4.5zM315 1227l187 213
h247l183 -213v-78h-199l-115 86l-112 -86h-191v78z" />
    <glyph glyph-name="udieresis" unicode="&#xfc;" horiz-adv-x="1249" 
d="M608 254q44 0 87.5 11t80.5 24v790h367v-1079h-256q-22 0 -38.5 4t-29 17t-21 37t-14.5 63q-37 -29 -78.5 -53.5t-88 -43.5t-97 -29.5t-104.5 -10.5q-67 0 -124.5 15t-100 51t-67 95t-24.5 148v786h369v-702q0 -39 9.5 -63t27 -37.5t43.5 -18t59 -4.5zM416 1147
q-38 0 -70 12t-55 33.5t-36 51t-13 65.5q0 35 13 65t36 52t55 34.5t70 12.5q37 0 69 -12.5t54.5 -34.5t35.5 -52t13 -65q0 -36 -13 -65.5t-35.5 -51t-54.5 -33.5t-69 -12zM833 1147q-38 0 -69.5 12t-54 33.5t-35.5 51t-13 65.5q0 35 13 65t35.5 52t54 34.5t69.5 12.5
t70 -12.5t55.5 -34.5t36.5 -52t13 -65q0 -36 -13 -65.5t-36.5 -51t-55.5 -33.5t-70 -12z" />
    <glyph glyph-name="yacute" unicode="&#xfd;" horiz-adv-x="1165" 
d="M279 -248l141 299l-389 944v84h350l225 -612h6l209 612h316v-84l-525 -1327h-333v84zM502 1149v68l67 223h355v-88l-207 -203h-215z" />
    <glyph glyph-name="thorn" unicode="&#xfe;" horiz-adv-x="1239" 
d="M467 973q58 53 136 88t185 35q77 0 150.5 -28t130.5 -90.5t92 -163.5t35 -247q0 -151 -36.5 -258t-98.5 -175.5t-146 -100t-178 -31.5q-86 0 -152.5 21t-117.5 59v-414h-369v1766h234q42 0 68.5 -7t41 -28t20 -59t5.5 -99v-268zM623 821q-34 0 -76.5 -9.5t-79.5 -25.5
v-499q31 -22 67 -32.5t82 -10.5q42 0 80 12t66 44.5t44.5 89.5t16.5 147q0 87 -16 142t-43 86.5t-63.5 43.5t-77.5 12z" />
    <glyph glyph-name="ydieresis" unicode="&#xff;" horiz-adv-x="1165" 
d="M279 -248l141 299l-389 944v84h350l225 -612h6l209 612h316v-84l-525 -1327h-333v84zM398 1147q-38 0 -70 12t-55 33.5t-36 51t-13 65.5q0 35 13 65t36 52t55 34.5t70 12.5q37 0 69 -12.5t54.5 -34.5t35.5 -52t13 -65q0 -36 -13 -65.5t-35.5 -51t-54.5 -33.5t-69 -12z
M815 1147q-38 0 -69.5 12t-54 33.5t-35.5 51t-13 65.5q0 35 13 65t35.5 52t54 34.5t69.5 12.5t70 -12.5t55.5 -34.5t36.5 -52t13 -65q0 -36 -13 -65.5t-36.5 -51t-55.5 -33.5t-70 -12z" />
    <glyph glyph-name="Amacron" unicode="&#x100;" horiz-adv-x="1421" 
d="M39 92l457 1342h426l462 -1342v-92h-380l-101 324h-457l-96 -324h-311v92zM526 590h297l-147 483h-4zM983 1501h-565v223h565v-223z" />
    <glyph glyph-name="amacron" unicode="&#x101;" horiz-adv-x="1133" 
d="M840 0q-65 0 -98.5 24t-49.5 78q-57 -63 -133 -89.5t-176 -26.5q-71 0 -133.5 20t-109 60.5t-73 100.5t-26.5 140q0 85 31 148.5t87 105t134 62t172 20.5q62 0 111 -5.5t96 -14.5v73q0 71 -41.5 104.5t-141.5 33.5q-80 0 -144.5 -20.5t-111.5 -51.5h-110v248
q37 16 83.5 31.5t101 27.5t118 19.5t135.5 7.5q121 0 211 -21t149.5 -66t89 -115.5t29.5 -170.5v-723h-200zM528 201q42 0 78.5 17t65.5 42v191q-28 5 -59 7.5t-62 2.5q-74 0 -117 -30.5t-43 -98.5q0 -69 38.5 -100t98.5 -31zM834 1186h-553v221h553v-221z" />
    <glyph glyph-name="Abreve" unicode="&#x102;" horiz-adv-x="1421" 
d="M39 92l457 1342h426l462 -1342v-92h-380l-101 324h-457l-96 -324h-311v92zM526 590h297l-147 483h-4zM703 1481q-64 0 -115 16t-88.5 43t-61 64t-32.5 79v80h211q3 -24 22.5 -43.5t63.5 -19.5q43 0 62 19.5t24 43.5h211v-80q-9 -41 -33 -77.5t-61.5 -64t-88 -44
t-114.5 -16.5z" />
    <glyph glyph-name="abreve" unicode="&#x103;" horiz-adv-x="1133" 
d="M840 0q-65 0 -98.5 24t-49.5 78q-57 -63 -133 -89.5t-176 -26.5q-71 0 -133.5 20t-109 60.5t-73 100.5t-26.5 140q0 85 31 148.5t87 105t134 62t172 20.5q62 0 111 -5.5t96 -14.5v73q0 71 -41.5 104.5t-141.5 33.5q-80 0 -144.5 -20.5t-111.5 -51.5h-110v248
q37 16 83.5 31.5t101 27.5t118 19.5t135.5 7.5q121 0 211 -21t149.5 -66t89 -115.5t29.5 -170.5v-723h-200zM528 201q42 0 78.5 17t65.5 42v191q-28 5 -59 7.5t-62 2.5q-74 0 -117 -30.5t-43 -98.5q0 -69 38.5 -100t98.5 -31zM558 1149q-64 0 -115 17t-88.5 46.5t-61 69
t-32.5 84.5v82h211q3 -34 22.5 -56t63.5 -22q43 0 62 22t24 56h211v-82q-9 -45 -33 -84.5t-61.5 -69t-88 -46.5t-114.5 -17z" />
    <glyph glyph-name="Aogonek" unicode="&#x104;" horiz-adv-x="1421" 
d="M1219 -342q-113 0 -170.5 43t-57.5 115q0 65 42 110t97 74h-126l-101 324h-457l-96 -324h-311v92l457 1342h426l462 -1342v-92h-45q-32 -29 -50.5 -51.5t-18.5 -50.5q0 -23 17.5 -36.5t58.5 -13.5h36v-155q-28 -17 -67 -26t-96 -9zM526 590h297l-147 483h-4z" />
    <glyph glyph-name="aogonek" unicode="&#x105;" horiz-adv-x="1133" 
d="M877 -342q-113 0 -170.5 43t-57.5 115q0 61 41 110t105 78q-80 14 -103 98q-57 -63 -133 -89.5t-176 -26.5q-72 0 -134.5 20.5t-108.5 60t-72.5 100t-26.5 140.5q0 86 30.5 148.5t87 104.5t134.5 62.5t172 20.5q61 0 110.5 -5t96.5 -15v73q0 72 -41 105t-142 33
q-79 0 -143.5 -20.5t-112.5 -51.5h-110v248q76 32 184.5 59t253.5 27q242 0 360.5 -86t118.5 -287v-723h-43q-32 -29 -50.5 -51.5t-18.5 -50.5q0 -23 17.5 -36.5t58.5 -13.5h36v-155q-28 -17 -67 -26t-96 -9zM528 201q41 0 78 17.5t66 41.5v191q-29 4 -59.5 7t-61.5 3
q-74 0 -117 -31t-43 -98q0 -70 39 -100.5t98 -30.5z" />
    <glyph glyph-name="Cacute" unicode="&#x106;" horiz-adv-x="1300" 
d="M760 -18q-161 0 -291.5 48t-222.5 141t-141.5 228.5t-49.5 309.5q0 176 53 314t150 233.5t233 145.5t302 50q75 0 136.5 -7.5t113.5 -21t96 -32t84 -41.5v-273h-152q-40 37 -105.5 65.5t-162.5 28.5q-163 0 -254.5 -110.5t-91.5 -337.5q0 -123 21 -211.5t62 -145
t102 -83.5t142 -27q58 0 104 10t83.5 27t68 39.5t56.5 48.5h139v-260q-82 -60 -198.5 -99.5t-276.5 -39.5zM623 1548l67 209h355v-86l-207 -190h-215v67z" />
    <glyph glyph-name="cacute" unicode="&#x107;" horiz-adv-x="1040" 
d="M616 -16q-135 0 -241.5 36t-181 106.5t-113.5 173.5t-39 237q0 131 44 235t123 176t189 110t242 38q119 0 203.5 -23.5t138.5 -52.5v-252h-133q-29 26 -78 47t-115 21q-53 0 -97 -18.5t-75.5 -56.5t-49 -95t-17.5 -134t16.5 -132.5t46.5 -91.5t72.5 -53t95.5 -17
q42 0 74.5 6t58 16.5t45.5 24t37 28.5h123v-231q-26 -17 -62 -34.5t-82 -31.5t-102.5 -23t-122.5 -9zM479 1149v68l67 223h355v-88l-207 -203h-215z" />
    <glyph glyph-name="Ccircumflex" unicode="&#x108;" horiz-adv-x="1300" 
d="M760 -18q-161 0 -291.5 48t-222.5 141t-141.5 228.5t-49.5 309.5q0 176 53 314t150 233.5t233 145.5t302 50q75 0 136.5 -7.5t113.5 -21t96 -32t84 -41.5v-273h-152q-40 37 -105.5 65.5t-162.5 28.5q-163 0 -254.5 -110.5t-91.5 -337.5q0 -123 21 -211.5t62 -145
t102 -83.5t142 -27q58 0 104 10t83.5 27t68 39.5t56.5 48.5h139v-260q-82 -60 -198.5 -99.5t-276.5 -39.5zM432 1559l187 204h247l183 -204v-78h-199l-115 78l-112 -78h-191v78z" />
    <glyph glyph-name="ccircumflex" unicode="&#x109;" horiz-adv-x="1040" 
d="M616 -16q-135 0 -241.5 36t-181 106.5t-113.5 173.5t-39 237q0 131 44 235t123 176t189 110t242 38q119 0 203.5 -23.5t138.5 -52.5v-252h-133q-29 26 -78 47t-115 21q-53 0 -97 -18.5t-75.5 -56.5t-49 -95t-17.5 -134t16.5 -132.5t46.5 -91.5t72.5 -53t95.5 -17
q42 0 74.5 6t58 16.5t45.5 24t37 28.5h123v-231q-26 -17 -62 -34.5t-82 -31.5t-102.5 -23t-122.5 -9zM274 1227l187 213h247l183 -213v-78h-199l-115 86l-112 -86h-191v78z" />
    <glyph glyph-name="Cdotaccent" unicode="&#x10a;" horiz-adv-x="1300" 
d="M760 -18q-161 0 -291.5 48t-222.5 141t-141.5 228.5t-49.5 309.5q0 176 53 314t150 233.5t233 145.5t302 50q75 0 136.5 -7.5t113.5 -21t96 -32t84 -41.5v-273h-152q-40 37 -105.5 65.5t-162.5 28.5q-163 0 -254.5 -110.5t-91.5 -337.5q0 -123 21 -211.5t62 -145
t102 -83.5t142 -27q58 0 104 10t83.5 27t68 39.5t56.5 48.5h139v-260q-82 -60 -198.5 -99.5t-276.5 -39.5zM740 1481q-41 0 -76 13t-60.5 35.5t-40 54t-14.5 69.5q0 37 14.5 69t40 55.5t60.5 36.5t76 13q40 0 75 -13t60.5 -36.5t40 -55.5t14.5 -69q0 -38 -14.5 -69.5
t-40 -54t-60.5 -35.5t-75 -13z" />
    <glyph glyph-name="cdotaccent" unicode="&#x10b;" horiz-adv-x="1040" 
d="M616 -16q-135 0 -241.5 36t-181 106.5t-113.5 173.5t-39 237q0 131 44 235t123 176t189 110t242 38q119 0 203.5 -23.5t138.5 -52.5v-252h-133q-29 26 -78 47t-115 21q-53 0 -97 -18.5t-75.5 -56.5t-49 -95t-17.5 -134t16.5 -132.5t46.5 -91.5t72.5 -53t95.5 -17
q42 0 74.5 6t58 16.5t45.5 24t37 28.5h123v-231q-26 -17 -62 -34.5t-82 -31.5t-102.5 -23t-122.5 -9zM584 1145q-41 0 -76 13t-60.5 35.5t-40 54t-14.5 69.5q0 37 14.5 69t40 55.5t60.5 36.5t76 13q40 0 75 -13t60.5 -36.5t40 -55.5t14.5 -69q0 -38 -14.5 -69.5t-40 -54
t-60.5 -35.5t-75 -13z" />
    <glyph glyph-name="Ccaron" unicode="&#x10c;" horiz-adv-x="1300" 
d="M760 -18q-161 0 -291.5 48t-222.5 141t-141.5 228.5t-49.5 309.5q0 176 53 314t150 233.5t233 145.5t302 50q75 0 136.5 -7.5t113.5 -21t96 -32t84 -41.5v-273h-152q-40 37 -105.5 65.5t-162.5 28.5q-163 0 -254.5 -110.5t-91.5 -337.5q0 -123 21 -211.5t62 -145
t102 -83.5t142 -27q58 0 104 10t83.5 27t68 39.5t56.5 48.5h139v-260q-82 -60 -198.5 -99.5t-276.5 -39.5zM1049 1686l-189 -205h-247l-181 205v77h199l115 -77l112 77h191v-77z" />
    <glyph glyph-name="ccaron" unicode="&#x10d;" horiz-adv-x="1040" 
d="M616 -16q-135 0 -241.5 36t-181 106.5t-113.5 173.5t-39 237q0 131 44 235t123 176t189 110t242 38q119 0 203.5 -23.5t138.5 -52.5v-252h-133q-29 26 -78 47t-115 21q-53 0 -97 -18.5t-75.5 -56.5t-49 -95t-17.5 -134t16.5 -132.5t46.5 -91.5t72.5 -53t95.5 -17
q42 0 74.5 6t58 16.5t45.5 24t37 28.5h123v-231q-26 -17 -62 -34.5t-82 -31.5t-102.5 -23t-122.5 -9zM891 1362l-189 -213h-247l-181 213v78h199l115 -86l112 86h191v-78z" />
    <glyph glyph-name="Dcaron" unicode="&#x10e;" horiz-adv-x="1436" 
d="M115 1434h508q371 0 565 -175t194 -534q0 -362 -195 -543.5t-577 -181.5h-495v1434zM604 264q96 0 167 24.5t117.5 78t69.5 139.5t23 209t-22.5 208t-68.5 138t-117.5 76.5t-168.5 23.5h-96v-897h96zM963 1686l-189 -205h-247l-181 205v77h199l115 -77l112 77h191v-77z
" />
    <glyph glyph-name="dcaron" unicode="&#x10f;" horiz-adv-x="1243" 
d="M1208 1434h285v-88l-119 -197h-166v285zM885 0q-18 0 -33.5 5t-27.5 17.5t-21 34.5t-15 56q-24 -27 -55 -51t-69.5 -41.5t-85 -28t-101.5 -10.5q-92 0 -170.5 32.5t-136 99.5t-90.5 169t-33 241q0 160 40 269t104 176.5t144 97t161 29.5q51 0 92 -7t75 -20.5t61.5 -32.5
t51.5 -43v441h234q43 0 69.5 -7.5t41 -28.5t19.5 -58.5t5 -98.5v-1241h-260zM606 225q51 0 90 16t80 50v493q-58 37 -145 37q-41 0 -79 -11.5t-67.5 -43.5t-47 -88.5t-17.5 -145.5q0 -84 12 -142.5t35 -95t58 -53t81 -16.5z" />
    <glyph glyph-name="Dcroat" unicode="&#x110;" horiz-adv-x="1444" 
d="M10 842h113v592h508q370 0 565 -175.5t195 -533.5q0 -365 -193.5 -545t-579.5 -180h-495v588h-113v254zM612 264q193 0 285 102.5t92 348.5q0 123 -22.5 208t-68.5 138t-116.5 76.5t-169.5 23.5h-96v-319h258v-254h-258v-324h96z" />
    <glyph glyph-name="dcroat" unicode="&#x111;" horiz-adv-x="1243" 
d="M518 1329h258v105h234q84 0 108.5 -25t26.5 -80h100v-184h-100v-1145h-260q-37 0 -60.5 21.5t-36.5 91.5q-49 -54 -124.5 -92.5t-186.5 -38.5q-92 0 -170 32.5t-136 99t-91 169t-33 241.5q0 160 40 269.5t103.5 176t144.5 96.5t161 30q104 0 167.5 -28t112.5 -75v152
h-258v184zM606 225q51 0 90 15.5t80 50.5v493q-59 37 -145 37q-41 0 -79 -11t-67.5 -44t-47 -89t-17.5 -145q0 -170 47 -238.5t139 -68.5z" />
    <glyph glyph-name="Emacron" unicode="&#x112;" horiz-adv-x="1190" 
d="M115 1434h987v-275h-596v-305h420v-258h-420v-330h616v-266h-1007v1434zM915 1501h-565v223h565v-223z" />
    <glyph glyph-name="emacron" unicode="&#x113;" horiz-adv-x="1141" 
d="M414 459q7 -69 26.5 -113.5t51 -70.5t76 -36t100.5 -10q91 0 158.5 23t115.5 57h115v-219q-35 -20 -77.5 -39t-96.5 -34t-121 -24t-152 -9q-140 0 -246.5 38t-178 109t-108 172.5t-36.5 228.5q0 130 40 234.5t113 177.5t174.5 112.5t223.5 39.5q252 0 380 -134.5
t128 -408.5q0 -32 -2 -58.5t-2 -35.5h-682zM592 870q-32 0 -60.5 -9.5t-51.5 -34t-40 -67t-24 -108.5h336q-3 62 -14.5 104t-31.5 67.5t-48.5 36.5t-65.5 11zM858 1186h-553v221h553v-221z" />
    <glyph glyph-name="Ebreve" unicode="&#x114;" horiz-adv-x="1190" 
d="M115 1434h987v-275h-596v-305h420v-258h-420v-330h616v-266h-1007v1434zM633 1481q-64 0 -115 16t-88.5 43t-61 64t-32.5 79v80h211q3 -24 22.5 -43.5t63.5 -19.5q43 0 62 19.5t24 43.5h211v-80q-9 -41 -33 -77.5t-61.5 -64t-88 -44t-114.5 -16.5z" />
    <glyph glyph-name="ebreve" unicode="&#x115;" horiz-adv-x="1141" 
d="M414 459q7 -69 26.5 -113.5t51 -70.5t76 -36t100.5 -10q91 0 158.5 23t115.5 57h115v-219q-35 -20 -77.5 -39t-96.5 -34t-121 -24t-152 -9q-140 0 -246.5 38t-178 109t-108 172.5t-36.5 228.5q0 130 40 234.5t113 177.5t174.5 112.5t223.5 39.5q252 0 380 -134.5
t128 -408.5q0 -32 -2 -58.5t-2 -35.5h-682zM592 870q-32 0 -60.5 -9.5t-51.5 -34t-40 -67t-24 -108.5h336q-3 62 -14.5 104t-31.5 67.5t-48.5 36.5t-65.5 11zM582 1149q-64 0 -115 17t-88.5 46.5t-61 69t-32.5 84.5v82h211q3 -34 22.5 -56t63.5 -22q43 0 62 22t24 56h211
v-82q-9 -45 -33 -84.5t-61.5 -69t-88 -46.5t-114.5 -17z" />
    <glyph glyph-name="Edotaccent" unicode="&#x116;" horiz-adv-x="1190" 
d="M115 1434h987v-275h-596v-305h420v-258h-420v-330h616v-266h-1007v1434zM633 1481q-41 0 -76 13t-60.5 35.5t-40 54t-14.5 69.5q0 37 14.5 69t40 55.5t60.5 36.5t76 13q40 0 75 -13t60.5 -36.5t40 -55.5t14.5 -69q0 -38 -14.5 -69.5t-40 -54t-60.5 -35.5t-75 -13z" />
    <glyph glyph-name="edotaccent" unicode="&#x117;" horiz-adv-x="1141" 
d="M414 459q7 -69 26.5 -113.5t51 -70.5t76 -36t100.5 -10q91 0 158.5 23t115.5 57h115v-219q-35 -20 -77.5 -39t-96.5 -34t-121 -24t-152 -9q-140 0 -246.5 38t-178 109t-108 172.5t-36.5 228.5q0 130 40 234.5t113 177.5t174.5 112.5t223.5 39.5q252 0 380 -134.5
t128 -408.5q0 -32 -2 -58.5t-2 -35.5h-682zM592 870q-32 0 -60.5 -9.5t-51.5 -34t-40 -67t-24 -108.5h336q-3 62 -14.5 104t-31.5 67.5t-48.5 36.5t-65.5 11zM582 1145q-41 0 -76 13t-60.5 35.5t-40 54t-14.5 69.5q0 37 14.5 69t40 55.5t60.5 36.5t76 13q40 0 75 -13
t60.5 -36.5t40 -55.5t14.5 -69q0 -38 -14.5 -69.5t-40 -54t-60.5 -35.5t-75 -13z" />
    <glyph glyph-name="Eogonek" unicode="&#x118;" horiz-adv-x="1190" 
d="M115 1434h987v-275h-596v-305h420v-258h-420v-330h616v-266h-88q-33 -29 -51 -51.5t-18 -50.5q0 -23 17 -36.5t58 -13.5h37v-155q-28 -17 -67 -26t-97 -9q-112 0 -169.5 43t-57.5 115q0 65 42 110t97 74h-710v1434z" />
    <glyph glyph-name="eogonek" unicode="&#x119;" horiz-adv-x="1141" 
d="M930 2q-29 -25 -47.5 -50.5t-18.5 -53.5q0 -23 16.5 -36.5t59.5 -13.5h37v-155q-29 -17 -68 -26t-96 -9q-113 0 -171 43t-58 117q0 57 36.5 100t86.5 72q-21 -4 -47.5 -5t-49.5 -1q-282 0 -425.5 146t-143.5 402q0 130 40 234t112.5 178t174 113t224.5 39q508 0 508 -543
q0 -33 -2 -58.5t-2 -35.5h-680q12 -135 76.5 -182.5t175.5 -47.5q92 0 159.5 22.5t114.5 57.5h115v-219q-35 -27 -70 -47t-57 -41zM592 870q-33 0 -61.5 -9t-51 -33.5t-39 -67.5t-24.5 -109h336q-4 125 -45 172t-115 47z" />
    <glyph glyph-name="Ecaron" unicode="&#x11a;" horiz-adv-x="1190" 
d="M115 1434h987v-275h-596v-305h420v-258h-420v-330h616v-266h-1007v1434zM940 1686l-189 -205h-247l-181 205v77h199l115 -77l112 77h191v-77z" />
    <glyph glyph-name="ecaron" unicode="&#x11b;" horiz-adv-x="1141" 
d="M414 459q7 -69 26.5 -113.5t51 -70.5t76 -36t100.5 -10q91 0 158.5 23t115.5 57h115v-219q-35 -20 -77.5 -39t-96.5 -34t-121 -24t-152 -9q-140 0 -246.5 38t-178 109t-108 172.5t-36.5 228.5q0 130 40 234.5t113 177.5t174.5 112.5t223.5 39.5q252 0 380 -134.5
t128 -408.5q0 -32 -2 -58.5t-2 -35.5h-682zM592 870q-32 0 -60.5 -9.5t-51.5 -34t-40 -67t-24 -108.5h336q-3 62 -14.5 104t-31.5 67.5t-48.5 36.5t-65.5 11zM891 1362l-189 -213h-247l-181 213v78h199l115 -86l112 86h191v-78z" />
    <glyph glyph-name="Gcircumflex" unicode="&#x11c;" horiz-adv-x="1395" 
d="M760 -18q-175 0 -307.5 48t-221 141t-133.5 228.5t-45 309.5q0 179 51.5 317.5t148 233t236 143.5t316.5 49q70 0 128 -6t109 -17t98 -28t95 -39v-283h-145q-24 18 -51 34.5t-60.5 29t-75 19.5t-94.5 7q-84 0 -149.5 -24.5t-110 -78.5t-67.5 -140.5t-23 -210.5
q0 -125 18 -214.5t55 -146.5t93.5 -83.5t132.5 -26.5q57 0 95 5.5t69 14.5v262h-170v238h542v-674q-112 -56 -247 -82t-287 -26zM432 1559l187 204h247l183 -204v-78h-199l-115 78l-112 -78h-191v78z" />
    <glyph glyph-name="gcircumflex" unicode="&#x11d;" horiz-adv-x="1243" 
d="M1145 82q0 -107 -40.5 -187.5t-117.5 -134.5t-187.5 -81t-250.5 -27q-154 0 -262 22.5t-185 59.5v250h115q50 -32 121 -54t164 -22q140 0 207 43.5t67 140.5v53q-51 -42 -125 -67t-164 -25t-170 26.5t-140 86t-95 154.5t-35 233q0 151 40 255t105.5 168t148.5 92t169 28
q100 0 170 -31t127 -90q17 48 50 76t89 28h199v-997zM614 287q45 0 86 15t76 40v438q-31 20 -66 30.5t-83 10.5q-40 0 -77.5 -10t-66 -38.5t-46 -78.5t-17.5 -131q0 -84 12 -137.5t36.5 -84t61 -42.5t84.5 -12zM303 1227l187 213h247l183 -213v-78h-199l-115 86l-112 -86
h-191v78z" />
    <glyph glyph-name="Gbreve" unicode="&#x11e;" horiz-adv-x="1395" 
d="M760 -18q-175 0 -307.5 48t-221 141t-133.5 228.5t-45 309.5q0 179 51.5 317.5t148 233t236 143.5t316.5 49q70 0 128 -6t109 -17t98 -28t95 -39v-283h-145q-24 18 -51 34.5t-60.5 29t-75 19.5t-94.5 7q-84 0 -149.5 -24.5t-110 -78.5t-67.5 -140.5t-23 -210.5
q0 -125 18 -214.5t55 -146.5t93.5 -83.5t132.5 -26.5q57 0 95 5.5t69 14.5v262h-170v238h542v-674q-112 -56 -247 -82t-287 -26zM742 1481q-64 0 -115 16t-88.5 43t-61 64t-32.5 79v80h211q3 -24 22.5 -43.5t63.5 -19.5q43 0 62 19.5t24 43.5h211v-80q-9 -41 -33 -77.5
t-61.5 -64t-88 -44t-114.5 -16.5z" />
    <glyph glyph-name="gbreve" unicode="&#x11f;" horiz-adv-x="1243" 
d="M1145 82q0 -107 -40.5 -187.5t-117.5 -134.5t-187.5 -81t-250.5 -27q-154 0 -262 22.5t-185 59.5v250h115q50 -32 121 -54t164 -22q140 0 207 43.5t67 140.5v53q-51 -42 -125 -67t-164 -25t-170 26.5t-140 86t-95 154.5t-35 233q0 151 40 255t105.5 168t148.5 92t169 28
q100 0 170 -31t127 -90q17 48 50 76t89 28h199v-997zM614 287q45 0 86 15t76 40v438q-31 20 -66 30.5t-83 10.5q-40 0 -77.5 -10t-66 -38.5t-46 -78.5t-17.5 -131q0 -84 12 -137.5t36.5 -84t61 -42.5t84.5 -12zM611 1149q-64 0 -115 17t-88.5 46.5t-61 69t-32.5 84.5v82h211
q3 -34 22.5 -56t63.5 -22q43 0 62 22t24 56h211v-82q-9 -45 -33 -84.5t-61.5 -69t-88 -46.5t-114.5 -17z" />
    <glyph glyph-name="Gdotaccent" unicode="&#x120;" horiz-adv-x="1395" 
d="M760 -18q-175 0 -307.5 48t-221 141t-133.5 228.5t-45 309.5q0 179 51.5 317.5t148 233t236 143.5t316.5 49q70 0 128 -6t109 -17t98 -28t95 -39v-283h-145q-24 18 -51 34.5t-60.5 29t-75 19.5t-94.5 7q-84 0 -149.5 -24.5t-110 -78.5t-67.5 -140.5t-23 -210.5
q0 -125 18 -214.5t55 -146.5t93.5 -83.5t132.5 -26.5q57 0 95 5.5t69 14.5v262h-170v238h542v-674q-112 -56 -247 -82t-287 -26zM742 1481q-41 0 -76 13t-60.5 35.5t-40 54t-14.5 69.5q0 37 14.5 69t40 55.5t60.5 36.5t76 13q40 0 75 -13t60.5 -36.5t40 -55.5t14.5 -69
q0 -38 -14.5 -69.5t-40 -54t-60.5 -35.5t-75 -13z" />
    <glyph glyph-name="gdotaccent" unicode="&#x121;" horiz-adv-x="1243" 
d="M1145 82q0 -107 -40.5 -187.5t-117.5 -134.5t-187.5 -81t-250.5 -27q-154 0 -262 22.5t-185 59.5v250h115q50 -32 121 -54t164 -22q140 0 207 43.5t67 140.5v53q-51 -42 -125 -67t-164 -25t-170 26.5t-140 86t-95 154.5t-35 233q0 151 40 255t105.5 168t148.5 92t169 28
q100 0 170 -31t127 -90q17 48 50 76t89 28h199v-997zM614 287q45 0 86 15t76 40v438q-31 20 -66 30.5t-83 10.5q-40 0 -77.5 -10t-66 -38.5t-46 -78.5t-17.5 -131q0 -84 12 -137.5t36.5 -84t61 -42.5t84.5 -12zM611 1145q-41 0 -76 13t-60.5 35.5t-40 54t-14.5 69.5
q0 37 14.5 69t40 55.5t60.5 36.5t76 13q40 0 75 -13t60.5 -36.5t40 -55.5t14.5 -69q0 -38 -14.5 -69.5t-40 -54t-60.5 -35.5t-75 -13z" />
    <glyph glyph-name="uni0122" unicode="&#x122;" horiz-adv-x="1395" 
d="M760 -18q-175 0 -307.5 48t-221 141t-133.5 228.5t-45 309.5q0 179 51.5 317.5t148 233t236 143.5t316.5 49q70 0 128 -6t109 -17t98 -28t95 -39v-283h-145q-24 18 -51 34.5t-60.5 29t-75 19.5t-94.5 7q-84 0 -149.5 -24.5t-110 -78.5t-67.5 -140.5t-23 -210.5
q0 -125 18 -214.5t55 -146.5t93.5 -83.5t132.5 -26.5q57 0 95 5.5t69 14.5v262h-170v238h542v-674q-112 -56 -247 -82t-287 -26zM592 -340q53 4 73.5 16.5t20.5 32.5q0 17 -14 24t-31 17q-26 17 -38.5 38.5t-12.5 57.5q0 52 41 84.5t105 32.5q65 0 111 -40t46 -124
q0 -123 -72.5 -189.5t-228.5 -76.5v127z" />
    <glyph glyph-name="uni0123" unicode="&#x123;" horiz-adv-x="1243" 
d="M1145 82q0 -107 -40.5 -187.5t-117.5 -134.5t-187.5 -81t-250.5 -27q-154 0 -262 22.5t-185 59.5v250h115q50 -32 121 -54t164 -22q140 0 207 43.5t67 140.5v53q-51 -42 -125 -67t-164 -25t-170 26.5t-140 86t-95 154.5t-35 233q0 151 40 255t105.5 168t148.5 92t169 28
q100 0 170 -31t127 -90q17 48 50 76t89 28h199v-997zM614 287q45 0 86 15t76 40v438q-31 20 -66 30.5t-83 10.5q-40 0 -77.5 -10t-66 -38.5t-46 -78.5t-17.5 -131q0 -84 12 -137.5t36.5 -84t61 -42.5t84.5 -12zM758 1458q-53 -4 -73.5 -16t-20.5 -33q0 -16 14.5 -23.5
t30.5 -17.5q27 -16 39 -37.5t12 -58.5q0 -51 -41 -84t-104 -33q-66 0 -112 40t-46 124q0 123 72.5 189.5t228.5 76.5v-127z" />
    <glyph glyph-name="Hcircumflex" unicode="&#x124;" horiz-adv-x="1456" 
d="M115 0v1434h393v-566h440v566h393v-1434h-393v592h-440v-592h-393zM417 1559l187 204h247l183 -204v-78h-199l-115 78l-112 -78h-191v78z" />
    <glyph glyph-name="hcircumflex" unicode="&#x125;" horiz-adv-x="1233" 
d="M467 954q35 29 77.5 55t90.5 45.5t101.5 30.5t111.5 11q61 0 114 -14t93 -49t63 -93.5t23 -148.5v-791h-369v694q0 35 -7.5 58t-23 36.5t-39.5 19t-57 5.5q-51 0 -95.5 -11t-82.5 -24v-778h-369v1434h234q42 0 68.5 -7t41 -28t20 -59t5.5 -99v-287zM307 1555l187 213h247
l183 -213v-78h-199l-115 86l-112 -86h-191v78z" />
    <glyph glyph-name="Hbar" unicode="&#x126;" horiz-adv-x="1456" 
d="M2 1245h113v189h393v-189h440v189h393v-189h113v-221h-113v-1024h-393v592h-440v-592h-393v1024h-113v221zM948 864v160h-440v-160h440z" />
    <glyph glyph-name="hbar" unicode="&#x127;" horiz-adv-x="1233" 
d="M-2 1329h100v105h234q82 0 107.5 -24t27.5 -81h258v-184h-258v-191q72 60 168 101t213 41q61 0 114.5 -14.5t93.5 -49.5t62.5 -93t22.5 -148v-791h-369v694q0 72 -30.5 95.5t-96.5 23.5q-51 0 -95 -11t-83 -24v-778h-369v1145h-100v184z" />
    <glyph glyph-name="Itilde" unicode="&#x128;" horiz-adv-x="641" 
d="M121 0v1434h395v-1434h-395zM-27 1563q17 102 73 156.5t144 54.5q37 0 70 -8t61.5 -17t52 -17t42.5 -8q26 0 40.5 13.5t22.5 36.5h184v-82q-17 -103 -72.5 -157t-142.5 -54q-38 0 -70.5 8.5t-61 18t-52 18t-41.5 8.5q-53 0 -65 -53h-185v82z" />
    <glyph glyph-name="itilde" unicode="&#x129;" horiz-adv-x="573" 
d="M100 0v1079h238q42 0 67 -8.5t39 -31.5t18.5 -63t4.5 -104v-872h-367zM-60 1233q17 102 73 157.5t144 55.5q37 0 70 -7.5t61.5 -17t52 -17t42.5 -7.5q26 0 40.5 13t22.5 36h184v-82q-17 -102 -72.5 -157.5t-142.5 -55.5q-38 0 -70.5 8.5t-61 18t-52 18t-41.5 8.5
q-53 0 -65 -53h-185v82z" />
    <glyph glyph-name="Imacron" unicode="&#x12a;" horiz-adv-x="637" 
d="M121 0v1434h395v-1434h-395zM600 1501h-565v223h565v-223z" />
    <glyph glyph-name="imacron" unicode="&#x12b;" horiz-adv-x="569" 
d="M100 0v1079h238q41 0 66.5 -8t39 -31.5t18.5 -63.5t5 -104v-872h-367zM547 1186h-527v221h527v-221z" />
    <glyph glyph-name="Ibreve" unicode="&#x12c;" horiz-adv-x="641" 
d="M121 0v1434h395v-1434h-395zM320 1481q-64 0 -115 16t-88.5 43t-61 64t-32.5 79v80h211q3 -24 22.5 -43.5t63.5 -19.5q43 0 62 19.5t24 43.5h211v-80q-9 -41 -33 -77.5t-61.5 -64t-88 -44t-114.5 -16.5z" />
    <glyph glyph-name="ibreve" unicode="&#x12d;" horiz-adv-x="573" 
d="M100 0v1079h238q42 0 67 -8.5t39 -31.5t18.5 -63t4.5 -104v-872h-367zM283 1149q-64 0 -115 17t-88.5 46.5t-61 69t-32.5 84.5v82h211q3 -34 22.5 -56t63.5 -22q43 0 62 22t24 56h211v-82q-9 -45 -33 -84.5t-61.5 -69t-88 -46.5t-114.5 -17z" />
    <glyph glyph-name="Iogonek" unicode="&#x12e;" horiz-adv-x="637" 
d="M356 -342q-112 0 -169.5 43t-57.5 115q0 65 42 110t97 74h-147v1434h395v-1434h-39q-33 -29 -51 -51.5t-18 -50.5q0 -23 17 -36.5t58 -13.5h37v-155q-28 -17 -67 -26t-97 -9z" />
    <glyph glyph-name="iogonek" unicode="&#x12f;" horiz-adv-x="569" 
d="M315 -342q-112 0 -169.5 43t-57.5 115q0 65 42 110t97 74h-127v1079h238q41 0 66.5 -8t39 -31.5t18.5 -63.5t5 -104v-872h-31q-33 -29 -51 -51.5t-18 -50.5q0 -23 17 -36.5t58 -13.5h37v-155q-28 -17 -67 -26t-97 -9zM285 1145q-82 0 -136.5 48t-54.5 124t54.5 125
t136.5 49q84 0 137 -49t53 -125t-53 -124t-137 -48z" />
    <glyph glyph-name="Idotaccent" unicode="&#x130;" horiz-adv-x="637" 
d="M121 0v1434h395v-1434h-395zM318 1481q-41 0 -76 13t-60.5 35.5t-40 54t-14.5 69.5q0 37 14.5 69t40 55.5t60.5 36.5t76 13q40 0 75 -13t60.5 -36.5t40 -55.5t14.5 -69q0 -38 -14.5 -69.5t-40 -54t-60.5 -35.5t-75 -13z" />
    <glyph glyph-name="dotlessi" unicode="&#x131;" horiz-adv-x="569" 
d="M100 0v1079h238q42 0 67 -8.5t39 -31.5t18.5 -63t4.5 -104v-872h-367z" />
    <glyph glyph-name="IJ" unicode="&#x132;" horiz-adv-x="1618" 
d="M121 0v1434h395v-1434h-395zM993 -18q-119 0 -203.5 23.5t-146.5 62.5v264h135q14 -13 31 -25.5t39.5 -22t50.5 -15t63 -5.5q75 0 113.5 37.5t38.5 110.5v1022h393v-1022q0 -211 -126 -320.5t-388 -109.5z" />
    <glyph glyph-name="ij" unicode="&#x133;" horiz-adv-x="1145" 
d="M100 0v1079h238q42 0 67 -8.5t39 -31.5t18.5 -63t4.5 -104v-872h-367zM285 1145q-41 0 -76 13t-60.5 35.5t-40 54t-14.5 69.5q0 37 14.5 69t40 55.5t60.5 36.5t76 13t76 -13t60.5 -36.5t39.5 -55.5t14 -69q0 -38 -14 -69.5t-39.5 -54t-60.5 -35.5t-76 -13zM493 -119h57
q70 0 96.5 28.5t26.5 94.5v1075h238q42 0 67 -9t39 -32.5t18.5 -63.5t4.5 -102v-886q0 -89 -23 -152t-68 -103t-112 -58.5t-155 -18.5q-62 0 -106.5 7t-82.5 20v200zM858 1145q-41 0 -76 13t-60.5 35.5t-40 54t-14.5 69.5q0 37 14.5 69t40 55.5t60.5 36.5t76 13t76 -13
t60.5 -36.5t39.5 -55.5t14 -69q0 -38 -14 -69.5t-39.5 -54t-60.5 -35.5t-76 -13z" />
    <glyph glyph-name="Jcircumflex" unicode="&#x134;" horiz-adv-x="1004" 
d="M383 -18q-119 0 -203.5 23.5t-146.5 62.5v264h135q14 -13 31 -25.5t39.5 -22t50.5 -15t63 -5.5q75 0 113.5 37.5t38.5 110.5v1022h393v-1022q0 -211 -126 -320.5t-388 -109.5zM385 1559l187 204h247l183 -204v-78h-199l-115 78l-112 -78h-191v78z" />
    <glyph glyph-name="jcircumflex" unicode="&#x135;" horiz-adv-x="569" 
d="M-80 -119h57q70 0 96.5 29t26.5 94v1075h238q41 0 66.5 -9t39 -31.5t18.5 -63.5t5 -103v-886q0 -179 -91 -255.5t-267 -76.5q-62 0 -106 7t-83 20v200zM-25 1227l187 213h247l183 -213v-78h-199l-115 86l-112 -86h-191v78z" />
    <glyph glyph-name="uni0136" unicode="&#x136;" horiz-adv-x="1419" 
d="M115 1434h393v-584l485 584h338v-88l-416 -480l459 -778v-88h-383l-352 596l-131 -143v-453h-393v1434zM577 -340q53 4 73.5 16.5t20.5 32.5q0 17 -14 24t-31 17q-26 17 -38.5 38.5t-12.5 57.5q0 52 41 84.5t105 32.5q65 0 111 -40t46 -124q0 -123 -72.5 -189.5
t-228.5 -76.5v127z" />
    <glyph glyph-name="uni0137" unicode="&#x137;" horiz-adv-x="1184" 
d="M467 678l336 401h307v-88l-297 -338l338 -565v-88h-346l-250 420l-88 -96v-324h-369v1434h234q42 0 68.5 -7t41 -28t20 -59t5.5 -99v-563zM473 -340q53 4 73.5 16.5t20.5 32.5q0 17 -14 24t-31 17q-26 17 -38.5 38.5t-12.5 57.5q0 52 41 84.5t105 32.5q65 0 111 -40
t46 -124q0 -123 -72.5 -189.5t-228.5 -76.5v127z" />
    <glyph glyph-name="Lacute" unicode="&#x139;" horiz-adv-x="1130" 
d="M115 0v1434h393v-1164h563v-270h-956zM197 1548l67 209h355v-86l-207 -190h-215v67z" />
    <glyph glyph-name="lacute" unicode="&#x13a;" horiz-adv-x="573" 
d="M102 0v1434h234q43 0 69.5 -7t41 -28t19.5 -59t5 -99v-1241h-369zM164 1477v68l67 223h355v-88l-207 -203h-215z" />
    <glyph glyph-name="uni013B" unicode="&#x13b;" horiz-adv-x="1130" 
d="M115 0v1434h393v-1164h563v-270h-956zM452 -340q53 4 73.5 16.5t20.5 32.5q0 17 -14 24t-31 17q-26 17 -38.5 38.5t-12.5 57.5q0 52 41 84.5t105 32.5q65 0 111 -40t46 -124q0 -123 -72.5 -189.5t-228.5 -76.5v127z" />
    <glyph glyph-name="uni013C" unicode="&#x13c;" horiz-adv-x="573" 
d="M102 0v1434h234q43 0 69.5 -7t41 -28t19.5 -59t5 -99v-1241h-369zM139 -340q53 4 73.5 16.5t20.5 32.5q0 17 -14 24t-31 17q-26 17 -38.5 38.5t-12.5 57.5q0 52 41 84.5t105 32.5q65 0 111 -40t46 -124q0 -123 -72.5 -189.5t-228.5 -76.5v127z" />
    <glyph glyph-name="Lcaron" unicode="&#x13d;" horiz-adv-x="1130" 
d="M641 1434h283v-88l-117 -197h-166v285zM115 0v1434h393v-1164h563v-270h-956z" />
    <glyph glyph-name="lcaron" unicode="&#x13e;" horiz-adv-x="573" 
d="M535 1434h284v-88l-119 -197h-165v285zM102 0v1434h234q43 0 69.5 -7t41 -28t19.5 -59t5 -99v-1241h-369z" />
    <glyph glyph-name="Ldot" unicode="&#x13f;" horiz-adv-x="1135" 
d="M115 0v1434h393v-1164h563v-270h-956zM908.609 601.024q-39.1016 0 -73.3154 13.666t-60.1182 38.0693q-25.9053 24.4033 -40.5684 57.1035q-14.6631 32.7012 -14.6631 70.7705t14.6631 71.2578t40.5684 57.5918q25.9043 24.4033 60.1182 38.5576
q34.2139 14.1533 73.3154 14.1533t73.3154 -14.1533q34.2139 -14.1543 59.6299 -38.5576t40.0791 -57.5918t14.6631 -71.2578t-14.6631 -70.7705q-14.6631 -32.7002 -40.0791 -57.1035t-59.6299 -38.0693t-73.3154 -13.666z" />
    <glyph glyph-name="ldot" unicode="&#x140;" horiz-adv-x="856" 
d="M102 0v1434h234q43 0 69.5 -7t41 -28t19.5 -59t5 -99v-1241h-369zM715.574 615.1q-38.0957 0 -71.4297 13.334t-58.5723 37.1436t-39.5234 55.7148q-14.2861 31.9053 -14.2861 69.0479q0 37.1436 14.2861 69.5254q14.2852 32.3809 39.5234 56.1914
q25.2383 23.8096 58.5723 37.6191t71.4297 13.8096t71.4297 -13.8096t58.0957 -37.6191q24.7617 -23.8105 39.0479 -56.1914q14.2861 -32.3818 14.2861 -69.5254q0 -37.1426 -14.2861 -69.0479t-39.0479 -55.7148t-58.0957 -37.1436t-71.4297 -13.334z" />
    <glyph glyph-name="Lslash" unicode="&#x141;" horiz-adv-x="1155" 
d="M137 0v455l-125 -45v252l125 45v727h393v-580l365 135v-252l-365 -135v-332h564v-270h-957z" />
    <glyph glyph-name="lslash" unicode="&#x142;" horiz-adv-x="608" 
d="M121 0v569l-115 -59v242l115 59v623h233q42 0 68.5 -7t40.5 -28t19 -59t5 -99v-235l121 63v-242l-121 -63v-764h-366z" />
    <glyph glyph-name="Nacute" unicode="&#x143;" horiz-adv-x="1448" 
d="M115 1434h420l469 -830h6v830h323v-1434h-356l-535 940h-6v-940h-321v1434zM641 1548l67 209h355v-86l-207 -190h-215v67z" />
    <glyph glyph-name="nacute" unicode="&#x144;" horiz-adv-x="1233" 
d="M354 1079q22 0 39 -5t29.5 -19.5t21.5 -40t15 -66.5q36 30 79 57t92 47t104 32t114 12q61 0 114 -14t93 -49t63 -93.5t23 -148.5v-791h-369v694q0 35 -7.5 58t-23 36.5t-39.5 19t-57 5.5q-51 0 -95.5 -11t-82.5 -24v-778h-369v1079h256zM520 1149v68l67 223h355v-88
l-207 -203h-215z" />
    <glyph glyph-name="uni0145" unicode="&#x145;" horiz-adv-x="1448" 
d="M115 1434h420l469 -830h6v830h323v-1434h-356l-535 940h-6v-940h-321v1434zM559 -340q53 4 73.5 16.5t20.5 32.5q0 17 -14 24t-31 17q-26 17 -38.5 38.5t-12.5 57.5q0 52 41 84.5t105 32.5q65 0 111 -40t46 -124q0 -123 -72.5 -189.5t-228.5 -76.5v127z" />
    <glyph glyph-name="uni0146" unicode="&#x146;" horiz-adv-x="1233" 
d="M354 1079q22 0 39 -5t29.5 -19.5t21.5 -40t15 -66.5q36 30 79 57t92 47t104 32t114 12q61 0 114 -14t93 -49t63 -93.5t23 -148.5v-791h-369v694q0 35 -7.5 58t-23 36.5t-39.5 19t-57 5.5q-51 0 -95.5 -11t-82.5 -24v-778h-369v1079h256zM475 -340q53 4 73.5 16.5
t20.5 32.5q0 17 -14 24t-31 17q-26 17 -38.5 38.5t-12.5 57.5q0 52 41 84.5t105 32.5q65 0 111 -40t46 -124q0 -123 -72.5 -189.5t-228.5 -76.5v127z" />
    <glyph glyph-name="Ncaron" unicode="&#x147;" horiz-adv-x="1448" 
d="M115 1434h420l469 -830h6v830h323v-1434h-356l-535 940h-6v-940h-321v1434zM1065 1686l-189 -205h-247l-181 205v77h199l115 -77l112 77h191v-77z" />
    <glyph glyph-name="ncaron" unicode="&#x148;" horiz-adv-x="1233" 
d="M354 1079q22 0 39 -5t29.5 -19.5t21.5 -40t15 -66.5q36 30 79 57t92 47t104 32t114 12q61 0 114 -14t93 -49t63 -93.5t23 -148.5v-791h-369v694q0 35 -7.5 58t-23 36.5t-39.5 19t-57 5.5q-51 0 -95.5 -11t-82.5 -24v-778h-369v1079h256zM932 1362l-189 -213h-247
l-181 213v78h199l115 -86l112 86h191v-78z" />
    <glyph glyph-name="napostrophe" unicode="&#x149;" horiz-adv-x="1425" 
d="M-125 1030q62 8 96.5 27.5t34.5 48.5q0 15 -6.5 23.5t-16 15t-22 13t-24.5 16.5q-26 18 -44 46t-18 76q0 34 13 62t36.5 48.5t56 32t70.5 11.5q39 0 74 -13t62 -39.5t43 -67t16 -95.5q0 -164 -90.5 -252t-280.5 -102v149zM542 1079q22 0 39 -5t29.5 -19.5t21.5 -40
t15 -66.5q36 30 79 57t92 47t104 32t114 12q61 0 114 -14t93 -49t63 -93.5t23 -148.5v-791h-369v694q0 35 -7.5 58t-23 36.5t-39.5 19t-57 5.5q-51 0 -95.5 -11t-82.5 -24v-778h-369v1079h256z" />
    <glyph glyph-name="Eng" unicode="&#x14a;" horiz-adv-x="1452" 
d="M887 -346q-111 0 -184.5 22.5t-133.5 57.5v250h123q27 -27 64 -46.5t104 -19.5q101 0 125 78l-4 -2l-537 946h-6v-940h-321v1434h420l469 -830h6v830h323v-1373q0 -200 -109.5 -303.5t-338.5 -103.5z" />
    <glyph glyph-name="eng" unicode="&#x14b;" horiz-adv-x="1237" 
d="M784 -346q-61 0 -106 7t-82 20v200h57q70 0 95.5 28t25.5 95v690q0 72 -30.5 95.5t-96.5 23.5q-51 0 -95 -11t-83 -22v-780h-369v1079h256q43 0 69 -25.5t36 -107.5q71 62 170.5 106t218.5 44q61 0 114.5 -14.5t93.5 -49.5t62.5 -93t22.5 -148v-805q0 -179 -92.5 -255.5
t-266.5 -76.5z" />
    <glyph glyph-name="Omacron" unicode="&#x14c;" horiz-adv-x="1520" 
d="M760 -18q-146 0 -274.5 48t-224.5 141t-152 230t-56 314q0 118 25.5 218.5t72 182.5t111.5 145t143.5 105.5t168.5 64t186 21.5q144 0 273 -48.5t225.5 -142.5t153 -231.5t56.5 -314.5t-56 -314t-152 -230t-225 -141t-275 -48zM760 250q67 0 123.5 26.5t97.5 83
t63.5 143.5t22.5 208t-22.5 209t-63.5 145t-97.5 84t-123.5 27q-68 0 -124 -27t-97 -84t-63.5 -145t-22.5 -209t22.5 -208t63.5 -143.5t97 -83t124 -26.5zM1042 1501h-565v223h565v-223z" />
    <glyph glyph-name="omacron" unicode="&#x14d;" horiz-adv-x="1231" 
d="M616 -16q-122 0 -227 37.5t-182.5 108.5t-121.5 173.5t-44 231.5q0 130 44 233.5t121.5 176.5t182.5 112t227 39q121 0 226 -39t182.5 -112t121.5 -176.5t44 -233.5q0 -129 -44 -231.5t-121.5 -173.5t-182.5 -108.5t-226 -37.5zM616 225q45 0 82 17.5t63.5 55t41 95
t14.5 137.5q0 81 -14.5 140t-41 97.5t-63.5 57.5t-82 19t-82 -19t-64 -57.5t-41.5 -97.5t-14.5 -140q0 -80 14.5 -137.5t41.5 -95t64 -55t82 -17.5zM891 1186h-553v221h553v-221z" />
    <glyph glyph-name="Obreve" unicode="&#x14e;" horiz-adv-x="1524" 
d="M760 1481q-64 0 -115 16t-88.5 43t-61 64t-32.5 79v80h211q3 -24 22.5 -43.5t63.5 -19.5q43 0 62 19.5t24 43.5h211v-80q-9 -41 -33 -77.5t-61.5 -64t-88 -44t-114.5 -16.5zM760 -18q-146 0 -274.5 48t-224.5 141t-152 230t-56 314q0 118 25.5 218.5t72 182.5t111.5 145
t143.5 105.5t168.5 64t186 21.5q144 0 273 -48.5t225.5 -142.5t153 -231.5t56.5 -314.5t-56 -314t-152 -230t-225 -141t-275 -48zM760 250q67 0 123.5 26.5t97.5 83t63.5 143.5t22.5 208t-22.5 209t-63.5 145t-97.5 84t-123.5 27q-68 0 -124 -27t-97 -84t-63.5 -145
t-22.5 -209t22.5 -208t63.5 -143.5t97 -83t124 -26.5z" />
    <glyph glyph-name="obreve" unicode="&#x14f;" horiz-adv-x="1235" 
d="M616 -16q-122 0 -227 37.5t-182.5 108.5t-121.5 173.5t-44 231.5q0 130 44 233.5t121.5 176.5t182.5 112t227 39q121 0 226 -39t182.5 -112t121.5 -176.5t44 -233.5q0 -129 -44 -231.5t-121.5 -173.5t-182.5 -108.5t-226 -37.5zM616 225q45 0 82 17.5t63.5 55t41 95
t14.5 137.5q0 81 -14.5 140t-41 97.5t-63.5 57.5t-82 19t-82 -19t-64 -57.5t-41.5 -97.5t-14.5 -140q0 -80 14.5 -137.5t41.5 -95t64 -55t82 -17.5zM617 1149q-64 0 -115 17t-88.5 46.5t-61 69t-32.5 84.5v82h211q3 -34 22.5 -56t63.5 -22q43 0 62 22t24 56h211v-82
q-9 -45 -33 -84.5t-61.5 -69t-88 -46.5t-114.5 -17z" />
    <glyph glyph-name="Ohungarumlaut" unicode="&#x150;" horiz-adv-x="1520" 
d="M760 -18q-146 0 -274.5 48t-224.5 141t-152 230t-56 314q0 118 25.5 218.5t72 182.5t111.5 145t143.5 105.5t168.5 64t186 21.5q144 0 273 -48.5t225.5 -142.5t153 -231.5t56.5 -314.5t-56 -314t-152 -230t-225 -141t-275 -48zM760 250q67 0 123.5 26.5t97.5 83
t63.5 143.5t22.5 208t-22.5 209t-63.5 145t-97.5 84t-123.5 27q-68 0 -124 -27t-97 -84t-63.5 -145t-22.5 -209t22.5 -208t63.5 -143.5t97 -83t124 -26.5zM471 1540l63 217h289v-86l-156 -190h-196v59zM837 1540l64 217h289v-86l-154 -190h-199v59z" />
    <glyph glyph-name="ohungarumlaut" unicode="&#x151;" horiz-adv-x="1231" 
d="M616 -16q-122 0 -227 37.5t-182.5 108.5t-121.5 173.5t-44 231.5q0 130 44 233.5t121.5 176.5t182.5 112t227 39q121 0 226 -39t182.5 -112t121.5 -176.5t44 -233.5q0 -129 -44 -231.5t-121.5 -173.5t-182.5 -108.5t-226 -37.5zM616 225q45 0 82 17.5t63.5 55t41 95
t14.5 137.5q0 81 -14.5 140t-41 97.5t-63.5 57.5t-82 19t-82 -19t-64 -57.5t-41.5 -97.5t-14.5 -140q0 -80 14.5 -137.5t41.5 -95t64 -55t82 -17.5zM332 1206l66 234h282v-86l-158 -205h-190v57zM692 1206l66 234h283v-86l-156 -205h-193v57z" />
    <glyph glyph-name="OE" unicode="&#x152;" horiz-adv-x="1982" 
d="M813 0q-374 0 -567 174.5t-193 534.5q0 362 194.5 543.5t575.5 181.5h1071v-275h-583v-305h407v-258h-407v-330h604v-266h-1102zM829 1165q-96 0 -167 -23.5t-117.5 -76.5t-69 -138t-22.5 -208t22 -209t68.5 -139.5t117 -78t168.5 -24.5h91v897h-91z" />
    <glyph glyph-name="oe" unicode="&#x153;" horiz-adv-x="1913" 
d="M610 -16q-120 0 -224 37.5t-180.5 108.5t-120.5 173.5t-44 231.5q0 130 43.5 233.5t120 176.5t180 112t223.5 39q119 0 217.5 -41.5t169.5 -116.5q66 75 160.5 116.5t216.5 41.5q244 0 372 -134.5t128 -408.5q0 -32 -2 -58.5t-2 -35.5h-682q7 -69 26.5 -113.5t51 -70.5
t76 -36t100.5 -10q91 0 158 23t116 57h115v-219q-35 -20 -77.5 -39t-95.5 -34t-118.5 -24t-146.5 -9q-138 0 -236.5 38t-163.5 109q-71 -72 -167 -109.5t-214 -37.5zM616 223q45 0 82 18t63.5 55.5t41 95.5t14.5 138q0 81 -14.5 139.5t-41 97t-63.5 57t-82 18.5t-82 -18.5
t-64 -57t-41.5 -97t-14.5 -139.5q0 -80 14.5 -138t41.5 -95.5t64 -55.5t82 -18zM1364 870q-32 0 -60.5 -9.5t-51.5 -34t-40 -67t-24 -108.5h336q-2 62 -13.5 104t-32 67.5t-49 36.5t-65.5 11z" />
    <glyph glyph-name="Racute" unicode="&#x154;" horiz-adv-x="1348" 
d="M657 526h-149v-526h-393v1434h538q286 0 430 -112t144 -327q0 -136 -56.5 -231t-156.5 -152l284 -520v-92h-364zM504 782h125q109 0 159 48.5t50 144.5t-50 144t-159 48h-125v-385zM524 1548l67 209h355v-86l-207 -190h-215v67z" />
    <glyph glyph-name="racute" unicode="&#x155;" horiz-adv-x="850" 
d="M772 784q-105 0 -182.5 -16t-122.5 -35v-733h-369v1079h256q22 0 39 -5.5t30 -21.5t22 -45t14 -75q27 34 58 62.5t68 49t79.5 32t91.5 11.5q17 0 33.5 -2.5t31.5 -5.5v-295h-49zM379 1149v68l67 223h355v-88l-207 -203h-215z" />
    <glyph glyph-name="uni0156" unicode="&#x156;" horiz-adv-x="1348" 
d="M657 526h-149v-526h-393v1434h538q286 0 430 -112t144 -327q0 -136 -56.5 -231t-156.5 -152l284 -520v-92h-364zM504 782h125q109 0 159 48.5t50 144.5t-50 144t-159 48h-125v-385zM543 -340q53 4 73.5 16.5t20.5 32.5q0 17 -14 24t-31 17q-26 17 -38.5 38.5t-12.5 57.5
q0 52 41 84.5t105 32.5q65 0 111 -40t46 -124q0 -123 -72.5 -189.5t-228.5 -76.5v127z" />
    <glyph glyph-name="uni0157" unicode="&#x157;" horiz-adv-x="842" 
d="M772 784q-105 0 -182.5 -16t-122.5 -35v-733h-369v1079h256q22 0 39 -5.5t30 -21.5t22 -45t14 -75q27 34 58 62.5t68 49t79.5 32t91.5 11.5q17 0 33.5 -2.5t31.5 -5.5v-295h-49zM127 -340q53 4 73.5 16.5t20.5 32.5q0 17 -14 24t-31 17q-26 17 -38.5 38.5t-12.5 57.5
q0 52 41 84.5t105 32.5q65 0 111 -40t46 -124q0 -123 -72.5 -189.5t-228.5 -76.5v127z" />
    <glyph glyph-name="Rcaron" unicode="&#x158;" horiz-adv-x="1348" 
d="M657 526h-149v-526h-393v1434h538q286 0 430 -112t144 -327q0 -136 -56.5 -231t-156.5 -152l284 -520v-92h-364zM504 782h125q109 0 159 48.5t50 144.5t-50 144t-159 48h-125v-385zM951 1686l-189 -205h-247l-181 205v77h199l115 -77l112 77h191v-77z" />
    <glyph glyph-name="rcaron" unicode="&#x159;" horiz-adv-x="842" 
d="M772 784q-105 0 -182.5 -16t-122.5 -35v-733h-369v1079h256q22 0 39 -5.5t30 -21.5t22 -45t14 -75q27 34 58 62.5t68 49t79.5 32t91.5 11.5q17 0 33.5 -2.5t31.5 -5.5v-295h-49zM793 1362l-189 -213h-247l-181 213v78h199l115 -86l112 86h191v-78z" />
    <glyph glyph-name="Sacute" unicode="&#x15a;" horiz-adv-x="1135" 
d="M518 -18q-78 0 -145 8t-124 23t-106.5 36t-93.5 47v273h145q22 -23 52 -44t68.5 -37t86 -25t103.5 -9q111 0 167 36.5t56 104.5q0 46 -20.5 73.5t-57 45.5t-86.5 30.5t-110 28.5q-99 25 -174 59.5t-125.5 86t-76.5 123.5t-26 174q0 110 40 192t111 136t170 81t218 27
q136 0 242 -25.5t184 -70.5v-264h-142q-49 37 -116 62.5t-154 25.5q-105 0 -157 -32t-52 -101q0 -36 15 -60t44.5 -41t73.5 -30t103 -27q127 -29 214.5 -66t141.5 -90t78 -126t24 -173q0 -108 -36.5 -192t-108.5 -141.5t-178.5 -88t-247.5 -30.5zM459 1548l67 209h355v-86
l-207 -190h-215v67z" />
    <glyph glyph-name="sacute" unicode="&#x15b;" horiz-adv-x="961" 
d="M440 -14q-71 0 -128 7t-104 19t-85.5 27.5t-71.5 32.5v241h125q16 -15 40.5 -29t56.5 -25.5t70.5 -18.5t82.5 -7q74 0 117 18t43 60q0 22 -8 37t-29 25.5t-57.5 18.5t-92.5 16q-86 10 -152.5 32t-112.5 60.5t-69.5 97.5t-23.5 143q0 88 33 154.5t93 110.5t143.5 66
t185.5 22q64 0 116 -5t95.5 -14.5t80.5 -23t72 -29.5v-238h-117q-37 25 -96.5 45.5t-140.5 20.5q-78 0 -109.5 -20t-31.5 -58q0 -17 9.5 -30t31 -22.5t57 -17.5t86.5 -14q94 -12 164.5 -33.5t116.5 -60t69 -97.5t23 -145t-29 -154t-88.5 -115t-150 -72t-214.5 -25zM383 1149
v68l67 223h355v-88l-207 -203h-215z" />
    <glyph glyph-name="Scircumflex" unicode="&#x15c;" horiz-adv-x="1135" 
d="M518 -18q-78 0 -145 8t-124 23t-106.5 36t-93.5 47v273h145q22 -23 52 -44t68.5 -37t86 -25t103.5 -9q111 0 167 36.5t56 104.5q0 46 -20.5 73.5t-57 45.5t-86.5 30.5t-110 28.5q-99 25 -174 59.5t-125.5 86t-76.5 123.5t-26 174q0 110 40 192t111 136t170 81t218 27
q136 0 242 -25.5t184 -70.5v-264h-142q-49 37 -116 62.5t-154 25.5q-105 0 -157 -32t-52 -101q0 -36 15 -60t44.5 -41t73.5 -30t103 -27q127 -29 214.5 -66t141.5 -90t78 -126t24 -173q0 -108 -36.5 -192t-108.5 -141.5t-178.5 -88t-247.5 -30.5zM268 1559l187 204h247
l183 -204v-78h-199l-115 78l-112 -78h-191v78z" />
    <glyph glyph-name="scircumflex" unicode="&#x15d;" horiz-adv-x="961" 
d="M440 -14q-71 0 -128 7t-104 19t-85.5 27.5t-71.5 32.5v241h125q16 -15 40.5 -29t56.5 -25.5t70.5 -18.5t82.5 -7q74 0 117 18t43 60q0 22 -8 37t-29 25.5t-57.5 18.5t-92.5 16q-86 10 -152.5 32t-112.5 60.5t-69.5 97.5t-23.5 143q0 88 33 154.5t93 110.5t143.5 66
t185.5 22q64 0 116 -5t95.5 -14.5t80.5 -23t72 -29.5v-238h-117q-37 25 -96.5 45.5t-140.5 20.5q-78 0 -109.5 -20t-31.5 -58q0 -17 9.5 -30t31 -22.5t57 -17.5t86.5 -14q94 -12 164.5 -33.5t116.5 -60t69 -97.5t23 -145t-29 -154t-88.5 -115t-150 -72t-214.5 -25zM180 1227
l187 213h247l183 -213v-78h-199l-115 86l-112 -86h-191v78z" />
    <glyph glyph-name="uni015E" unicode="&#x15e;" horiz-adv-x="1139" 
d="M1090 434q0 -198 -121 -314t-357 -134v-35q86 -4 126 -43t40 -107q0 -71 -56 -115t-173 -44q-57 0 -95 8t-73 24v127h63q11 -10 28 -16t40 -6q53 0 53 33q0 16 -14 24t-49 8h-45v140q-133 6 -231.5 35.5t-176.5 76.5v273h146q43 -47 119.5 -81t189.5 -34q110 0 166.5 37
t56.5 104q0 45 -20.5 73t-57.5 46t-87 30.5t-109 28.5q-99 25 -173.5 60t-126 86t-77 122.5t-25.5 174.5q0 110 40 192t111.5 136.5t170 81t217.5 26.5q135 0 241.5 -25.5t184.5 -70.5v-264h-142q-49 36 -116.5 62t-153.5 26q-209 0 -209 -133q0 -35 15.5 -59.5t44 -41
t72.5 -30t104 -27.5q127 -29 214 -66t141 -90t79 -125.5t25 -173.5z" />
    <glyph glyph-name="uni015F" unicode="&#x15f;" horiz-adv-x="961" 
d="M922 352q0 -153 -92.5 -248.5t-290.5 -113.5v-39q86 -4 126 -43t40 -107q0 -71 -56.5 -115t-173.5 -44q-57 0 -95 8t-73 24v127h64q10 -10 27.5 -16t39.5 -6q54 0 54 33q0 16 -14.5 24t-49.5 8h-45v144q-117 4 -194.5 28.5t-137.5 55.5v241h125q33 -28 97.5 -54
t152.5 -26q74 0 117 18.5t43 59.5q0 21 -8.5 36t-29 25.5t-57 18.5t-92.5 17q-86 10 -152.5 32.5t-112.5 60.5t-69.5 97t-23.5 143q0 88 32.5 155t93 111t143.5 65.5t186 21.5q129 0 212 -19.5t152 -52.5v-238h-117q-36 25 -95.5 45.5t-141.5 20.5q-78 0 -109.5 -19.5
t-31.5 -58.5q0 -35 39.5 -53.5t144.5 -30.5q94 -12 164.5 -33.5t117 -59.5t69 -97.5t22.5 -145.5z" />
    <glyph glyph-name="Scaron" unicode="&#x160;" horiz-adv-x="1120" 
d="M514 -18q-78 0 -145 8t-124 23t-106.5 36t-93.5 47v273h145q22 -23 52 -44t68.5 -37t86 -25t103.5 -9q111 0 167 36.5t56 104.5q0 46 -20.5 73.5t-57 45.5t-86.5 30.5t-110 28.5q-99 25 -174 59.5t-125.5 86t-76.5 123.5t-26 174q0 110 40 192t111 136t170 81t218 27
q136 0 242 -25.5t184 -70.5v-264h-142q-49 37 -116 62.5t-154 25.5q-105 0 -157 -32t-52 -101q0 -36 15 -60t44.5 -41t73.5 -30t103 -27q127 -29 214.5 -66t141.5 -90t78 -126t24 -173q0 -108 -36.5 -192t-108.5 -141.5t-178.5 -88t-247.5 -30.5zM875 1686l-189 -205h-247
l-181 205v77h199l115 -77l112 77h191v-77z" />
    <glyph glyph-name="scaron" unicode="&#x161;" horiz-adv-x="961" 
d="M440 -14q-71 0 -128 7t-104 19t-85.5 27.5t-71.5 32.5v241h125q16 -15 40.5 -29t56.5 -25.5t70.5 -18.5t82.5 -7q74 0 117 18t43 60q0 22 -8 37t-29 25.5t-57.5 18.5t-92.5 16q-86 10 -152.5 32t-112.5 60.5t-69.5 97.5t-23.5 143q0 88 33 154.5t93 110.5t143.5 66
t185.5 22q64 0 116 -5t95.5 -14.5t80.5 -23t72 -29.5v-238h-117q-37 25 -96.5 45.5t-140.5 20.5q-78 0 -109.5 -20t-31.5 -58q0 -17 9.5 -30t31 -22.5t57 -17.5t86.5 -14q94 -12 164.5 -33.5t116.5 -60t69 -97.5t23 -145t-29 -154t-88.5 -115t-150 -72t-214.5 -25zM797 1362
l-189 -213h-247l-181 213v78h199l115 -86l112 86h191v-78z" />
    <glyph glyph-name="Tcommaaccent" unicode="&#x162;" horiz-adv-x="1235" 
d="M421 0v1161h-370v273h1133v-273h-370v-1161h-393zM467 -340q53 4 73.5 16.5t20.5 32.5q0 17 -14 24t-31 17q-26 17 -38.5 38.5t-12.5 57.5q0 52 41 84.5t105 32.5q65 0 111 -40t46 -124q0 -123 -72.5 -189.5t-228.5 -76.5v127z" />
    <glyph glyph-name="tcommaaccent" unicode="&#x163;" horiz-adv-x="754" 
d="M25 1079h116v275h369v-275h201v-237h-201v-492q0 -72 30.5 -99.5t102.5 -27.5h72v-213q-37 -11 -89.5 -19.5t-121.5 -8.5q-83 0 -150 15.5t-114.5 52.5t-73 96.5t-25.5 148.5v547h-116v237zM270 -340q53 4 73.5 16.5t20.5 32.5q0 17 -14 24t-31 17q-26 17 -38.5 38.5
t-12.5 57.5q0 52 41 84.5t105 32.5q65 0 111 -40t46 -124q0 -123 -72.5 -189.5t-228.5 -76.5v127z" />
    <glyph glyph-name="Tcaron" unicode="&#x164;" horiz-adv-x="1235" 
d="M421 0v1161h-370v273h1133v-273h-370v-1161h-393zM926 1686l-189 -205h-247l-181 205v77h199l115 -77l112 77h191v-77z" />
    <glyph glyph-name="tcaron" unicode="&#x165;" horiz-adv-x="754" 
d="M584 1149v285h284v-88l-118 -197h-166zM25 1079h116v275h369v-275h201v-237h-201v-492q0 -72 30.5 -99.5t102.5 -27.5h72v-213q-37 -11 -89.5 -19.5t-121.5 -8.5q-83 0 -150 15.5t-114.5 52.5t-73 96.5t-25.5 148.5v547h-116v237z" />
    <glyph glyph-name="Tbar" unicode="&#x166;" horiz-adv-x="1239" 
d="M164 932h913v-221h-913v221zM421 0v1161h-370v273h1133v-273h-370v-1161h-393z" />
    <glyph glyph-name="tbar" unicode="&#x167;" horiz-adv-x="758" 
d="M27 739h686v-192h-686v192zM25 1079h116v275h369v-275h201v-237h-201v-492q0 -72 30.5 -99.5t102.5 -27.5h72v-213q-37 -11 -89.5 -19.5t-121.5 -8.5q-83 0 -150 15.5t-114.5 52.5t-73 96.5t-25.5 148.5v547h-116v237z" />
    <glyph glyph-name="Utilde" unicode="&#x168;" horiz-adv-x="1423" 
d="M387 1563q17 102 73 156.5t144 54.5q37 0 70 -8t61.5 -17t52 -17t42.5 -8q26 0 40.5 13.5t22.5 36.5h184v-82q-17 -103 -72.5 -157t-142.5 -54q-38 0 -70.5 8.5t-61 18t-52 18t-41.5 8.5q-53 0 -65 -53h-185v82zM750 268q58 0 101.5 13.5t73 45.5t44 85.5t14.5 134.5v887
h326v-889q0 -136 -34.5 -240.5t-106 -176t-181.5 -108t-262 -36.5q-305 0 -460.5 145t-155.5 416v889h393v-887q0 -81 16 -134.5t47.5 -85.5t77.5 -45.5t107 -13.5z" />
    <glyph glyph-name="utilde" unicode="&#x169;" horiz-adv-x="1253" 
d="M608 254q44 0 87.5 11t80.5 24v790h367v-1079h-256q-22 0 -38.5 4t-29 17t-21 37t-14.5 63q-37 -29 -78.5 -53.5t-88 -43.5t-97 -29.5t-104.5 -10.5q-67 0 -124.5 15t-100 51t-67 95t-24.5 148v786h369v-702q0 -39 9.5 -63t27 -37.5t43.5 -18t59 -4.5zM272 1233
q17 102 73 157.5t144 55.5q37 0 70 -7.5t61.5 -17t52 -17t42.5 -7.5q26 0 40.5 13t22.5 36h184v-82q-17 -102 -72.5 -157.5t-142.5 -55.5q-38 0 -70.5 8.5t-61 18t-52 18t-41.5 8.5q-53 0 -65 -53h-185v82z" />
    <glyph glyph-name="Umacron" unicode="&#x16a;" horiz-adv-x="1419" 
d="M750 268q58 0 101.5 13.5t73 45.5t44 85.5t14.5 134.5v887h326v-889q0 -136 -34.5 -240.5t-106 -176t-181.5 -108t-262 -36.5q-305 0 -460.5 145t-155.5 416v889h393v-887q0 -81 16 -134.5t47.5 -85.5t77.5 -45.5t107 -13.5zM1022 1501h-565v223h565v-223z" />
    <glyph glyph-name="umacron" unicode="&#x16b;" horiz-adv-x="1249" 
d="M608 254q44 0 87.5 11t80.5 24v790h367v-1079h-256q-22 0 -38.5 4t-29 17t-21 37t-14.5 63q-37 -29 -78.5 -53.5t-88 -43.5t-97 -29.5t-104.5 -10.5q-67 0 -124.5 15t-100 51t-67 95t-24.5 148v786h369v-702q0 -39 9.5 -63t27 -37.5t43.5 -18t59 -4.5zM901 1186h-553v221
h553v-221z" />
    <glyph glyph-name="Ubreve" unicode="&#x16c;" horiz-adv-x="1419" 
d="M750 268q58 0 101.5 13.5t73 45.5t44 85.5t14.5 134.5v887h326v-889q0 -136 -34.5 -240.5t-106 -176t-181.5 -108t-262 -36.5q-305 0 -460.5 145t-155.5 416v889h393v-887q0 -81 16 -134.5t47.5 -85.5t77.5 -45.5t107 -13.5zM740 1481q-64 0 -115 16t-88.5 43t-61 64
t-32.5 79v80h211q3 -24 22.5 -43.5t63.5 -19.5q43 0 62 19.5t24 43.5h211v-80q-9 -41 -33 -77.5t-61.5 -64t-88 -44t-114.5 -16.5z" />
    <glyph glyph-name="ubreve" unicode="&#x16d;" horiz-adv-x="1249" 
d="M608 254q44 0 87.5 11t80.5 24v790h367v-1079h-256q-22 0 -38.5 4t-29 17t-21 37t-14.5 63q-37 -29 -78.5 -53.5t-88 -43.5t-97 -29.5t-104.5 -10.5q-67 0 -124.5 15t-100 51t-67 95t-24.5 148v786h369v-702q0 -39 9.5 -63t27 -37.5t43.5 -18t59 -4.5zM625 1149
q-64 0 -115 17t-88.5 46.5t-61 69t-32.5 84.5v82h211q3 -34 22.5 -56t63.5 -22q43 0 62 22t24 56h211v-82q-9 -45 -33 -84.5t-61.5 -69t-88 -46.5t-114.5 -17z" />
    <glyph glyph-name="Uring" unicode="&#x16e;" horiz-adv-x="1419" 
d="M756 268q58 0 101.5 13.5t73 45.5t44 85.5t14.5 134.5v887h326v-889q0 -136 -34.5 -240.5t-106 -176t-181.5 -108t-262 -36.5q-305 0 -460.5 145t-155.5 416v889h393v-887q0 -81 16 -134.5t47.5 -85.5t77.5 -45.5t107 -13.5zM750 1426q-45 0 -85 14.5t-70 41.5t-47.5 66
t-17.5 87t17.5 86.5t47.5 65.5t70 42t85 15q44 0 84 -15t70 -42t47.5 -65.5t17.5 -86.5t-17.5 -87t-47.5 -66t-70 -41.5t-84 -14.5zM750 1561q31 0 50 20t19 54t-19 54t-50 20t-49.5 -20t-18.5 -54t18.5 -54t49.5 -20z" />
    <glyph glyph-name="uring" unicode="&#x16f;" horiz-adv-x="1249" 
d="M608 254q44 0 87.5 11t80.5 24v790h367v-1079h-256q-22 0 -38.5 4t-29 17t-21 37t-14.5 63q-37 -29 -78.5 -53.5t-88 -43.5t-97 -29.5t-104.5 -10.5q-67 0 -124.5 15t-100 51t-67 95t-24.5 148v786h369v-702q0 -39 9.5 -63t27 -37.5t43.5 -18t59 -4.5zM625 1151
q-45 0 -85 14.5t-70 41.5t-47.5 66t-17.5 87t17.5 86.5t47.5 65.5t70 42t85 15q44 0 84 -15t70 -42t47.5 -65.5t17.5 -86.5t-17.5 -87t-47.5 -66t-70 -41.5t-84 -14.5zM625 1286q31 0 50 20t19 54t-19 54t-50 20t-49.5 -20t-18.5 -54t18.5 -54t49.5 -20z" />
    <glyph glyph-name="Uhungarumlaut" unicode="&#x170;" horiz-adv-x="1419" 
d="M750 268q58 0 101.5 13.5t73 45.5t44 85.5t14.5 134.5v887h326v-889q0 -136 -34.5 -240.5t-106 -176t-181.5 -108t-262 -36.5q-305 0 -460.5 145t-155.5 416v889h393v-887q0 -81 16 -134.5t47.5 -85.5t77.5 -45.5t107 -13.5zM451 1540l63 217h289v-86l-156 -190h-196v59z
M817 1540l64 217h289v-86l-154 -190h-199v59z" />
    <glyph glyph-name="uhungarumlaut" unicode="&#x171;" horiz-adv-x="1249" 
d="M608 254q44 0 87.5 11t80.5 24v790h367v-1079h-256q-22 0 -38.5 4t-29 17t-21 37t-14.5 63q-37 -29 -78.5 -53.5t-88 -43.5t-97 -29.5t-104.5 -10.5q-67 0 -124.5 15t-100 51t-67 95t-24.5 148v786h369v-702q0 -39 9.5 -63t27 -37.5t43.5 -18t59 -4.5zM342 1206l66 234
h282v-86l-158 -205h-190v57zM702 1206l66 234h283v-86l-156 -205h-193v57z" />
    <glyph glyph-name="Uogonek" unicode="&#x172;" horiz-adv-x="1419" 
d="M809 -342q-113 0 -170 43t-57 117q0 55 32.5 97t79.5 71h-2q-280 0 -431.5 146.5t-151.5 412.5v889h393v-887q0 -80 16.5 -134.5t47 -86t76.5 -45t108 -13.5q57 0 101 13.5t73.5 45t44 86t14.5 134.5v887h326v-889q0 -187 -60.5 -308.5t-191.5 -187.5q-41 -22 -84 -36.5
t-72 -39.5q-41 -36 -41 -75q0 -23 17.5 -36.5t58.5 -13.5h37v-155q-29 -17 -67 -26t-97 -9z" />
    <glyph glyph-name="uogonek" unicode="&#x173;" horiz-adv-x="1249" 
d="M981 -342q-113 0 -170 43t-57 115q0 65 42 110t97 74h-6q-43 0 -67.5 21.5t-35.5 99.5q-73 -58 -165.5 -97.5t-202.5 -39.5q-68 0 -125.5 15t-99 51t-66.5 95.5t-25 147.5v786h369v-702q0 -78 37 -100.5t102 -22.5q43 0 87 11t81 24v790h367v-1079h-41
q-33 -29 -51.5 -51.5t-18.5 -50.5q0 -23 17.5 -36.5t58.5 -13.5h37v-155q-29 -17 -68 -26t-96 -9z" />
    <glyph glyph-name="Wcircumflex" unicode="&#x174;" horiz-adv-x="1937" 
d="M39 1341v93h381l192 -945h4l220 945h311l225 -945h4l187 945h331v-93l-321 -1341h-414l-194 842h-4l-195 -842h-408zM680 1559l187 204h247l183 -204v-78h-199l-115 78l-112 -78h-191v78z" />
    <glyph glyph-name="wcircumflex" unicode="&#x175;" horiz-adv-x="1679" 
d="M557 1227l187 213h247l183 -213v-78h-199l-115 86l-112 -86h-191v78zM35 993v86h354l156 -622h4l182 622h270l173 -622h4l165 622h297v-86l-301 -993h-327l-174 594h-4l-183 -594h-323z" />
    <glyph glyph-name="Ycircumflex" unicode="&#x176;" horiz-adv-x="1309" 
d="M467 0v532l-438 805v97h368l287 -560h4l277 560h311v-97l-416 -794v-543h-393zM366 1559l187 204h247l183 -204v-78h-199l-115 78l-112 -78h-191v78z" />
    <glyph glyph-name="ycircumflex" unicode="&#x177;" horiz-adv-x="1169" 
d="M279 -248l141 299l-389 944v84h350l225 -612h6l209 612h316v-84l-525 -1327h-333v84zM291 1227l187 213h247l183 -213v-78h-199l-115 86l-112 -86h-191v78z" />
    <glyph glyph-name="Ydieresis" unicode="&#x178;" horiz-adv-x="1305" 
d="M467 0v532l-438 805v97h368l287 -560h4l277 560h311v-97l-416 -794v-543h-393zM471 1481q-38 0 -70 12t-55 33.5t-36 51t-13 64.5q0 36 13 65.5t36 51t55 33.5t70 12q37 0 69 -12t54.5 -33.5t35.5 -51t13 -65.5q0 -35 -13 -64.5t-35.5 -51t-54.5 -33.5t-69 -12zM888 1481
q-38 0 -69.5 12t-54 33.5t-35.5 51t-13 64.5q0 36 13 65.5t35.5 51t54 33.5t69.5 12t70 -12t55.5 -33.5t36.5 -51t13 -65.5q0 -35 -13 -64.5t-36.5 -51t-55.5 -33.5t-70 -12z" />
    <glyph glyph-name="Zacute" unicode="&#x179;" horiz-adv-x="1171" 
d="M37 285l637 868v8h-592v273h1014v-295l-637 -863v-8h637v-268h-1059v285zM484 1548l67 209h355v-86l-207 -190h-215v67z" />
    <glyph glyph-name="zacute" unicode="&#x17a;" horiz-adv-x="1040" 
d="M51 248l506 577h-479v254h903v-254l-508 -575h498v-250h-920v248zM424 1149v68l67 223h355v-88l-207 -203h-215z" />
    <glyph glyph-name="Zdotaccent" unicode="&#x17b;" horiz-adv-x="1171" 
d="M37 285l637 868v8h-592v273h1014v-295l-637 -863v-8h637v-268h-1059v285zM611 1481q-41 0 -76 13t-60.5 35.5t-40 54t-14.5 69.5q0 37 14.5 69t40 55.5t60.5 36.5t76 13q40 0 75 -13t60.5 -36.5t40 -55.5t14.5 -69q0 -38 -14.5 -69.5t-40 -54t-60.5 -35.5t-75 -13z" />
    <glyph glyph-name="zdotaccent" unicode="&#x17c;" horiz-adv-x="1040" 
d="M51 248l506 577h-479v254h903v-254l-508 -575h498v-250h-920v248zM529 1145q-41 0 -76 13t-60.5 35.5t-40 54t-14.5 69.5q0 37 14.5 69t40 55.5t60.5 36.5t76 13q40 0 75 -13t60.5 -36.5t40 -55.5t14.5 -69q0 -38 -14.5 -69.5t-40 -54t-60.5 -35.5t-75 -13z" />
    <glyph glyph-name="Zcaron" unicode="&#x17d;" horiz-adv-x="1171" 
d="M37 285l637 868v8h-592v273h1014v-295l-637 -863v-8h637v-268h-1059v285zM918 1686l-189 -205h-247l-181 205v77h199l115 -77l112 77h191v-77z" />
    <glyph glyph-name="zcaron" unicode="&#x17e;" horiz-adv-x="1040" 
d="M51 248l506 577h-479v254h903v-254l-508 -575h498v-250h-920v248zM836 1362l-189 -213h-247l-181 213v78h199l115 -86l112 86h191v-78z" />
    <glyph glyph-name="uni0192" unicode="&#x192;" horiz-adv-x="821" 
d="M203 909l26 228q37 321 381 321q70 0 114 -9t75 -22v-210h-68q-61 0 -92 -20.5t-39 -80.5l-25 -207h170v-237h-198l-107 -877h-368l102 877h-113v237h142z" />
    <glyph glyph-name="Aringacute" unicode="&#x1fa;" horiz-adv-x="1425" 
d="M39 92l457 1342h426l462 -1342v-92h-380l-101 324h-457l-96 -324h-311v92zM526 590h297l-147 483h-4zM592 2005l67 209h355v-86l-207 -190h-215v67zM703 1481q-45 0 -85 14.5t-70 41.5t-47.5 66t-17.5 87t17.5 86.5t47.5 65.5t70 42t85 15q44 0 84 -15t70 -42t47.5 -65.5
t17.5 -86.5t-17.5 -87t-47.5 -66t-70 -41.5t-84 -14.5zM703 1616q31 0 50 20t19 54t-19 54t-50 20t-49.5 -20t-18.5 -54t18.5 -54t49.5 -20z" />
    <glyph glyph-name="aringacute" unicode="&#x1fb;" horiz-adv-x="1137" 
d="M840 0q-65 0 -98.5 24t-49.5 78q-57 -63 -133 -89.5t-176 -26.5q-71 0 -133.5 20t-109 60.5t-73 100.5t-26.5 140q0 85 31 148.5t87 105t134 62t172 20.5q62 0 111 -5.5t96 -14.5v73q0 71 -41.5 104.5t-141.5 33.5q-80 0 -144.5 -20.5t-111.5 -51.5h-110v248
q37 16 83.5 31.5t101 27.5t118 19.5t135.5 7.5q121 0 211 -21t149.5 -66t89 -115.5t29.5 -170.5v-723h-200zM528 201q42 0 78.5 17t65.5 42v191q-28 5 -59 7.5t-62 2.5q-74 0 -117 -30.5t-43 -98.5q0 -69 38.5 -100t98.5 -31zM560 1151q-45 0 -85 14.5t-70 41.5t-47.5 66
t-17.5 87t17.5 86.5t47.5 65.5t70 42t85 15q44 0 84 -15t70 -42t47.5 -65.5t17.5 -86.5t-17.5 -87t-47.5 -66t-70 -41.5t-84 -14.5zM560 1286q31 0 50 20t19 54t-19 54t-50 20t-49.5 -20t-18.5 -54t18.5 -54t49.5 -20zM438 1675l67 209h355v-86l-207 -190h-215v67z" />
    <glyph glyph-name="AEacute" unicode="&#x1fc;" horiz-adv-x="1976" 
d="M1122 1548l67 209h355v-86l-207 -190h-215v67zM897 338h-418l-155 -338h-306v92l652 1342h1214v-275h-596v-305h418v-258h-418v-330h617v-266h-1008v338zM600 602h297v557h-41z" />
    <glyph glyph-name="aeacute" unicode="&#x1fd;" horiz-adv-x="1772" 
d="M776 1149v68l67 223h355v-88l-207 -203h-215zM414 -14q-83 0 -151.5 19.5t-118 60t-76.5 101.5t-27 144t31 146t88.5 105t139.5 63.5t185 21.5h187v51q0 70 -41.5 103t-141.5 33q-80 0 -144.5 -20.5t-111.5 -51.5h-110v248q37 16 83.5 31.5t100.5 27.5t116 19.5t132 7.5
q122 0 203 -24t131 -77q69 48 153.5 74.5t178.5 26.5q251 0 378 -134t127 -409q0 -32 -2 -58.5t-2 -35.5h-682q7 -69 26.5 -113.5t51.5 -70.5t75.5 -36t98.5 -10q91 0 159 23t118 57h114v-219q-35 -20 -77.5 -39t-96.5 -34t-121 -24t-151 -9q-152 0 -261.5 42.5
t-180.5 120.5q-32 -37 -70.5 -66.5t-85 -50.5t-102.5 -32.5t-123 -11.5zM522 201q67 0 111.5 26t75.5 60q-16 38 -25 81t-14 91h-123q-71 0 -113.5 -29.5t-42.5 -97.5q0 -35 10 -59.5t28 -40.5t42 -23.5t51 -7.5zM1219 870q-32 0 -61 -9.5t-52.5 -34.5t-40 -67.5
t-23.5 -109.5h336q-2 63 -13.5 105.5t-31.5 68t-48.5 36.5t-65.5 11z" />
    <glyph glyph-name="Oslashacute" unicode="&#x1fe;" horiz-adv-x="1524" 
d="M760 -18q-105 0 -201.5 24t-179.5 74l-100 -125h-199v57l151 187q-83 93 -130.5 222t-47.5 294q0 118 25.5 218.5t72 182.5t111.5 145t143.5 105.5t168.5 64t186 21.5q109 0 209.5 -28.5t187.5 -82.5l98 121h197v-57l-154 -188q79 -93 124.5 -218.5t45.5 -283.5
q0 -177 -56 -314t-152 -230t-225 -141t-275 -48zM446 711q0 -65 6 -118.5t17 -98.5l492 606q-39 40 -90 60t-111 20q-69 0 -127 -27.5t-99.5 -85t-64.5 -146t-23 -210.5zM760 246q68 0 126 27t100 83.5t65.5 144.5t23.5 210q0 58 -5.5 108.5t-14.5 93.5l-488 -600
q38 -35 87 -51t106 -16zM643 1548l67 209h355v-86l-207 -190h-215v67z" />
    <glyph glyph-name="oslashacute" unicode="&#x1ff;" horiz-adv-x="1235" 
d="M616 -16q-80 0 -153.5 16t-136.5 47l-82 -100h-168v53l117 143q-72 72 -112 170t-40 222q0 130 44 233.5t121.5 176.5t182.5 112t227 39q82 0 156 -18.5t139 -53.5l74 92h168v-53l-111 -137q70 -73 109 -171.5t39 -219.5q0 -129 -44 -231.5t-121.5 -173.5t-182.5 -108.5
t-226 -37.5zM403 530q0 -68 9 -116l325 397q-24 22 -55 31.5t-66 9.5q-47 0 -86 -19.5t-67 -59t-44 -100.5t-16 -143zM616 213q46 0 84.5 19.5t66 58.5t43 98.5t15.5 140.5q0 34 -1.5 63.5t-6.5 55.5l-325 -397q26 -22 57.5 -30.5t66.5 -8.5zM512 1149v68l67 223h355v-88
l-207 -203h-215z" />
    <glyph glyph-name="uni0218" unicode="&#x218;" horiz-adv-x="1139" 
d="M518 -18q-78 0 -145 8t-124 23t-106.5 36t-93.5 47v273h145q22 -23 52 -44t68.5 -37t86 -25t103.5 -9q111 0 167 36.5t56 104.5q0 46 -20.5 73.5t-57 45.5t-86.5 30.5t-110 28.5q-99 25 -174 59.5t-125.5 86t-76.5 123.5t-26 174q0 110 40 192t111 136t170 81t218 27
q136 0 242 -25.5t184 -70.5v-264h-142q-49 37 -116 62.5t-154 25.5q-105 0 -157 -32t-52 -101q0 -36 15 -60t44.5 -41t73.5 -30t103 -27q127 -29 214.5 -66t141.5 -90t78 -126t24 -173q0 -108 -36.5 -192t-108.5 -141.5t-178.5 -88t-247.5 -30.5zM412 -340q53 4 73.5 16.5
t20.5 32.5q0 17 -14 24t-31 17q-26 17 -38.5 38.5t-12.5 57.5q0 52 41 84.5t105 32.5q65 0 111 -40t46 -124q0 -123 -72.5 -189.5t-228.5 -76.5v127z" />
    <glyph glyph-name="uni0219" unicode="&#x219;" horiz-adv-x="961" 
d="M440 -14q-71 0 -128 7t-104 19t-85.5 27.5t-71.5 32.5v241h125q16 -15 40.5 -29t56.5 -25.5t70.5 -18.5t82.5 -7q74 0 117 18t43 60q0 22 -8 37t-29 25.5t-57.5 18.5t-92.5 16q-86 10 -152.5 32t-112.5 60.5t-69.5 97.5t-23.5 143q0 88 33 154.5t93 110.5t143.5 66
t185.5 22q64 0 116 -5t95.5 -14.5t80.5 -23t72 -29.5v-238h-117q-37 25 -96.5 45.5t-140.5 20.5q-78 0 -109.5 -20t-31.5 -58q0 -17 9.5 -30t31 -22.5t57 -17.5t86.5 -14q94 -12 164.5 -33.5t116.5 -60t69 -97.5t23 -145t-29 -154t-88.5 -115t-150 -72t-214.5 -25zM338 -340
q53 4 73.5 16.5t20.5 32.5q0 17 -14 24t-31 17q-26 17 -38.5 38.5t-12.5 57.5q0 52 41 84.5t105 32.5q65 0 111 -40t46 -124q0 -123 -72.5 -189.5t-228.5 -76.5v127z" />
    <glyph glyph-name="uni021A" unicode="&#x21a;" horiz-adv-x="1235" 
d="M421 0v1161h-370v273h1133v-273h-370v-1161h-393zM467 -340q53 4 73.5 16.5t20.5 32.5q0 17 -14 24t-31 17q-26 17 -38.5 38.5t-12.5 57.5q0 52 41 84.5t105 32.5q65 0 111 -40t46 -124q0 -123 -72.5 -189.5t-228.5 -76.5v127z" />
    <glyph glyph-name="uni021B" unicode="&#x21b;" horiz-adv-x="754" 
d="M25 1079h116v275h369v-275h201v-237h-201v-492q0 -72 30.5 -99.5t102.5 -27.5h72v-213q-37 -11 -89.5 -19.5t-121.5 -8.5q-83 0 -150 15.5t-114.5 52.5t-73 96.5t-25.5 148.5v547h-116v237zM270 -340q53 4 73.5 16.5t20.5 32.5q0 17 -14 24t-31 17q-26 17 -38.5 38.5
t-12.5 57.5q0 52 41 84.5t105 32.5q65 0 111 -40t46 -124q0 -123 -72.5 -189.5t-228.5 -76.5v127z" />
    <glyph glyph-name="uni0237" unicode="&#x237;" horiz-adv-x="569" 
d="M-80 -119h57q70 0 96.5 29t26.5 94v1075h238q41 0 66.5 -9t39 -31.5t18.5 -63.5t5 -103v-886q0 -179 -91 -255.5t-267 -76.5q-62 0 -106 7t-83 20v200z" />
    <glyph glyph-name="uni02BC" unicode="&#x2bc;" horiz-adv-x="473" 
d="M51 1030q62 8 96.5 27.5t34.5 48.5q0 15 -6.5 23.5t-16 15t-22 13t-24.5 16.5q-26 18 -44 46t-18 76q0 34 13 62t36.5 48.5t56 32t70.5 11.5q39 0 74 -13t62 -39.5t43 -67t16 -95.5q0 -164 -90.5 -252t-280.5 -102v149z" />
    <glyph glyph-name="circumflex" unicode="&#x2c6;" horiz-adv-x="815" 
d="M98 1227l187 213h247l183 -213v-78h-199l-115 86l-112 -86h-191v78z" />
    <glyph glyph-name="caron" unicode="&#x2c7;" horiz-adv-x="815" 
d="M715 1362l-189 -213h-247l-181 213v78h199l115 -86l112 86h191v-78z" />
    <glyph glyph-name="breve" unicode="&#x2d8;" horiz-adv-x="815" 
d="M408 1149q-64 0 -115 17t-88.5 46.5t-61 69t-32.5 84.5v82h211q3 -34 22.5 -56t63.5 -22q43 0 62 22t24 56h211v-82q-9 -45 -33 -84.5t-61.5 -69t-88 -46.5t-114.5 -17z" />
    <glyph glyph-name="dotaccent" unicode="&#x2d9;" horiz-adv-x="815" 
d="M408 1145q-41 0 -76 13t-60.5 35.5t-40 54t-14.5 69.5q0 37 14.5 69t40 55.5t60.5 36.5t76 13q40 0 75 -13t60.5 -36.5t40 -55.5t14.5 -69q0 -38 -14.5 -69.5t-40 -54t-60.5 -35.5t-75 -13z" />
    <glyph glyph-name="ring" unicode="&#x2da;" horiz-adv-x="815" 
d="M408 1151q-45 0 -85 14.5t-70 41.5t-47.5 66t-17.5 87t17.5 86.5t47.5 65.5t70 42t85 15q44 0 84 -15t70 -42t47.5 -65.5t17.5 -86.5t-17.5 -87t-47.5 -66t-70 -41.5t-84 -14.5zM408 1286q31 0 50 20t19 54t-19 54t-50 20t-49.5 -20t-18.5 -54t18.5 -54t49.5 -20z" />
    <glyph glyph-name="ogonek" unicode="&#x2db;" horiz-adv-x="815" 
d="M444 -342q-112 0 -169.5 42.5t-57.5 115.5q0 32 11.5 59.5t30.5 50t44.5 41t52.5 33.5h209q-32 -28 -50.5 -50.5t-18.5 -51.5q0 -23 16.5 -36.5t58.5 -13.5h37v-155q-29 -17 -68 -26t-96 -9z" />
    <glyph glyph-name="tilde" unicode="&#x2dc;" horiz-adv-x="815" 
d="M51 1233q17 102 73 157.5t144 55.5q37 0 70 -7.5t61.5 -17t52 -17t42.5 -7.5q26 0 40.5 13t22.5 36h184v-82q-17 -102 -72.5 -157.5t-142.5 -55.5q-38 0 -70.5 8.5t-61 18t-52 18t-41.5 8.5q-53 0 -65 -53h-185v82z" />
    <glyph glyph-name="hungarumlaut" unicode="&#x2dd;" horiz-adv-x="815" 
d="M127 1206l66 234h282v-86l-158 -205h-190v57zM487 1206l66 234h283v-86l-156 -205h-193v57z" />
    <glyph glyph-name="uni037E" unicode="&#x37e;" horiz-adv-x="487" 
d="M111 -84q68 9 102.5 31t34.5 51q0 15 -6.5 23.5t-17 15t-23.5 13t-27 16.5q-28 20 -45.5 50.5t-17.5 80.5q0 35 14 64.5t39 51t59 33.5t74 12q41 0 78 -13t64.5 -41t44 -70.5t16.5 -100.5q0 -168 -95 -259t-294 -110v152zM307 567q-41 0 -76 14.5t-60.5 39.5t-40.5 58.5
t-15 72.5t15 73t40.5 59.5t60.5 40.5t76 15q40 0 75 -15t61.5 -40.5t41.5 -59.5t15 -73t-15 -72.5t-41.5 -58.5t-61.5 -39.5t-75 -14.5z" />
    <glyph glyph-name="pi" unicode="&#x3c0;" horiz-adv-x="1231" 
d="M1130 0h-368v823h-293v-823h-369v1077h1030v-1077z" />
    <glyph glyph-name="uni0401" unicode="&#x401;" horiz-adv-x="1194" 
d="M404 1481q-38 0 -70 12t-55 33.5t-36 51t-13 64.5q0 36 13 65.5t36 51t55 33.5t70 12q37 0 69 -12t54.5 -33.5t35.5 -51t13 -65.5q0 -35 -13 -64.5t-35.5 -51t-54.5 -33.5t-69 -12zM821 1481q-38 0 -69.5 12t-54 33.5t-35.5 51t-13 64.5q0 36 13 65.5t35.5 51t54 33.5
t69.5 12t70 -12t55.5 -33.5t36.5 -51t13 -65.5q0 -35 -13 -64.5t-36.5 -51t-55.5 -33.5t-70 -12zM117 1434h987v-275h-596v-305h420v-258h-420v-330h616v-266h-1007v1434z" />
    <glyph glyph-name="uni0402" unicode="&#x402;" horiz-adv-x="1696" 
d="M1190 440q0 99 -43 140t-154 41q-47 0 -84 -5.5t-63 -11.5q-31 -8 -53 -14l-68 178q57 35 127 61q59 23 143 42.5t187 19.5q112 0 189 -26.5t123 -79t65.5 -132.5t19.5 -184v-276q0 -121 -29.5 -206t-83 -139.5t-126 -79t-160.5 -24.5q-66 0 -114 11.5t-77 21.5v223h66
q86 0 110.5 50t24.5 153v237zM415 0v1161h-370v273h1133v-273h-370v-1161h-393z" />
    <glyph glyph-name="uni0403" unicode="&#x403;" horiz-adv-x="1096" 
d="M115 1434h950v-271h-557v-1163h-393v1434zM473 1548l67 209h355v-86l-207 -190h-215v67z" />
    <glyph glyph-name="uni0404" unicode="&#x404;" horiz-adv-x="1294" 
d="M1237 121q-82 -60 -198.5 -99.5t-276.5 -39.5q-162 0 -292 48t-222 141t-141.5 228.5t-49.5 309.5q0 176 53.5 314t149.5 233.5t232.5 145.5t302.5 50q151 0 250.5 -27.5t179.5 -74.5v-273h-152q-41 37 -105.5 67t-162.5 30q-137 0 -225 -78t-115 -238h506v-266h-508
q22 -176 103 -256t220 -80q117 0 187.5 37t124.5 88h139v-260z" />
    <glyph glyph-name="uni0405" unicode="&#x405;" horiz-adv-x="1139" 
d="M516 -18q-158 0 -269.5 30.5t-199.5 83.5v273h146q43 -47 119.5 -81t189.5 -34q110 0 166.5 37t56.5 104q0 45 -20.5 73t-57.5 46t-87 30.5t-109 28.5q-99 25 -173.5 60t-126 86t-77 122.5t-25.5 174.5q0 110 40 192t111.5 136.5t170 81t217.5 26.5q135 0 241.5 -25.5
t184.5 -70.5v-264h-142q-49 36 -116.5 62t-153.5 26q-209 0 -209 -133q0 -35 15.5 -59.5t44 -41t72.5 -30t104 -27.5q127 -29 214 -66t141 -90t78.5 -125.5t24.5 -173.5q0 -217 -144 -334.5t-427 -117.5z" />
    <glyph glyph-name="uni0406" unicode="&#x406;" horiz-adv-x="641" 
d="M123 0v1434h395v-1434h-395z" />
    <glyph glyph-name="uni0407" unicode="&#x407;" horiz-adv-x="641" 
d="M109 1481q-38 0 -70 12t-55 33.5t-36 51t-13 65.5q0 35 13 65t36 52t55 34.5t70 12.5q37 0 69 -12.5t54.5 -34.5t35.5 -52t13 -65q0 -36 -13 -65.5t-35.5 -51t-54.5 -33.5t-69 -12zM526 1481q-38 0 -69.5 12t-54 33.5t-35.5 51t-13 65.5q0 35 13 65t35.5 52t54 34.5
t69.5 12.5t70 -12.5t55.5 -34.5t36.5 -52t13 -65q0 -36 -13 -65.5t-36.5 -51t-55.5 -33.5t-70 -12zM123 0v1434h395v-1434h-395z" />
    <glyph glyph-name="uni0408" unicode="&#x408;" horiz-adv-x="1008" 
d="M385 -18q-119 0 -204 23.5t-146 62.5v264h135q29 -27 71 -47.5t113 -20.5q152 0 152 148v1022h393v-1022q0 -211 -125 -320.5t-389 -109.5z" />
    <glyph glyph-name="uni0409" unicode="&#x409;" horiz-adv-x="2062" 
d="M618 1151q0 -107 -6 -225q-4 -103 -12 -230t-22 -258q-27 -221 -117 -339.5t-268 -118.5q-48 0 -79.5 4t-54.5 10q-24 6 -41 14v264h62q59 0 93 63.5t48 205.5q6 63 10.5 136t9.5 147.5t8 149.5t5 142q6 158 10 318h1034v-490h134q286 0 428.5 -114.5t142.5 -356.5
t-142.5 -357.5t-424.5 -115.5h-531v1151h-287zM1296 686v-424h123q117 0 157 57.5t40 155.5t-44 154.5t-153 56.5h-123z" />
    <glyph glyph-name="uni040A" unicode="&#x40a;" horiz-adv-x="2093" 
d="M1325 651v-389h123q117 0 158 54.5t41 146.5q0 88 -44 138t-155 50h-123zM117 0v1434h393v-525h426v525h393v-525h131q287 0 430.5 -109.5t143.5 -338.5q0 -236 -143.5 -348.5t-424.5 -112.5h-530v633h-426v-633h-393z" />
    <glyph glyph-name="uni040B" unicode="&#x40b;" horiz-adv-x="1686" 
d="M1569 0h-387v440q0 99 -41 140t-152 41q-47 0 -84 -5.5t-61 -11.5q-31 -8 -51 -14l-68 178q55 35 125 61q59 23 142 42.5t186 19.5q112 0 187 -26.5t120 -79t64.5 -131.5t19.5 -183v-471zM415 0v1161h-370v273h1133v-273h-370v-1161h-393z" />
    <glyph glyph-name="uni040C" unicode="&#x40c;" horiz-adv-x="1452" 
d="M580 1548l67 209h355v-86l-207 -190h-215v67zM666 592h-158v-592h-393v1434h393v-566h160l346 566h338v-88l-359 -564l402 -694v-88h-383z" />
    <glyph glyph-name="uni040E" unicode="&#x40e;" horiz-adv-x="1305" 
d="M655 1518q-135 0 -214 63.5t-97 155.5v80h238q2 -41 16 -68t57 -27t57.5 27t18.5 68h236v-80q-19 -92 -97.5 -155.5t-214.5 -63.5zM399 -16q-47 0 -80.5 4t-56.5 8q-26 6 -47 12v252h86q90 0 135 34t80 105l-487 942v93h364l299 -639l266 639h318v-93l-426 -976
q-37 -86 -78 -156t-93 -120t-121 -77.5t-159 -27.5z" />
    <glyph glyph-name="uni040F" unicode="&#x40f;" horiz-adv-x="1436" 
d="M928 1434h393v-1434h-430l-27 -287h-295l-26 287h-428v1434h393v-1155h420v1155z" />
    <glyph glyph-name="uni0410" unicode="&#x410;" horiz-adv-x="1425" 
d="M528 590h297l-147 483h-4zM905 326h-454l-99 -326h-311v92l459 1342h424l462 -1342v-92h-380z" />
    <glyph glyph-name="uni0411" unicode="&#x411;" horiz-adv-x="1282" 
d="M115 1434h1005v-271h-612v-260h164q278 0 416.5 -111.5t138.5 -322.5q0 -227 -140.5 -348t-422.5 -121h-549v1434zM645 262q100 0 145.5 54.5t45.5 146.5t-46.5 141t-144.5 49h-139v-391h139z" />
    <glyph glyph-name="uni0412" unicode="&#x412;" horiz-adv-x="1286" 
d="M115 1434h536q269 0 401 -91.5t132 -283.5q0 -133 -70 -203t-188 -98v-8q143 -27 227 -105t84 -229q0 -205 -149.5 -310.5t-425.5 -105.5h-547v1434zM633 860q176 0 176 160q0 158 -174 158h-135v-318h133zM645 254q100 0 148.5 48t48.5 136q0 183 -197 183h-145v-367
h145z" />
    <glyph glyph-name="uni0413" unicode="&#x413;" horiz-adv-x="1096" 
d="M115 1434h950v-271h-557v-1163h-393v1434z" />
    <glyph glyph-name="uni0414" unicode="&#x414;" horiz-adv-x="1559" 
d="M578 565q-13 -88 -34.5 -160.5t-49.5 -125.5h485v872h-367q0 -18 -1 -79.5t-5 -145.5t-10 -179.5t-18 -181.5zM324 -287h-306v566h95q22 26 45 73q18 41 37.5 104.5t31.5 161.5q15 119 23 249t11 245t4 201t1 121h1106v-1155h158v-566h-305l-41 287h-819z" />
    <glyph glyph-name="uni0415" unicode="&#x415;" horiz-adv-x="1194" 
d="M117 1434h987v-275h-596v-305h420v-258h-420v-330h616v-266h-1007v1434z" />
    <glyph glyph-name="uni0416" unicode="&#x416;" horiz-adv-x="2234" 
d="M918 592h-138l-346 -592h-377v88l396 688l-365 570v88h344l346 -566h140v566h393v-566h139l346 566h338v-88l-358 -562l401 -696v-88h-383l-346 592h-137v-592h-393v592z" />
    <glyph glyph-name="uni0417" unicode="&#x417;" horiz-adv-x="1143" 
d="M514 -18q-92 0 -166 12t-131 32.5t-99 43t-71 45.5v260h133q21 -21 47.5 -42.5t62.5 -39t83 -28.5t106 -11q105 0 157 48t52 136t-50 130t-161 42h-137v252h121q104 0 158.5 36t54.5 120q0 153 -195 153q-96 0 -157.5 -30.5t-94.5 -59.5h-141v267q29 14 68 32.5t92 34
t120.5 26.5t155.5 11q117 0 214.5 -22.5t168 -69.5t110.5 -119t40 -170q0 -137 -74 -213t-201 -104v-9q146 -22 228 -99t82 -230q0 -105 -42 -185.5t-118 -136t-182.5 -84t-233.5 -28.5z" />
    <glyph glyph-name="uni0418" unicode="&#x418;" horiz-adv-x="1477" 
d="M115 0v1434h372v-887h7l475 887h393v-1434h-373v909h-6l-494 -909h-374z" />
    <glyph glyph-name="uni0419" unicode="&#x419;" horiz-adv-x="1477" 
d="M727 1518q-135 0 -214 63.5t-97 155.5v80h237q2 -41 16.5 -68t57.5 -27t57.5 27t18.5 68h235v-80q-18 -92 -97 -155.5t-214 -63.5zM115 0v1434h372v-887h7l475 887h393v-1434h-373v909h-6l-494 -909h-374z" />
    <glyph glyph-name="uni041A" unicode="&#x41a;" horiz-adv-x="1452" 
d="M666 592h-158v-592h-393v1434h393v-566h160l346 566h338v-88l-359 -564l402 -694v-88h-383z" />
    <glyph glyph-name="uni041B" unicode="&#x41b;" horiz-adv-x="1427" 
d="M920 1151h-302q0 -107 -6 -225q-4 -103 -12 -230t-22 -258q-27 -221 -117 -339.5t-268 -118.5q-48 0 -79.5 4t-54.5 10q-24 6 -41 14v264h62q59 0 93 63.5t48 205.5q6 63 10.5 136t9.5 147.5t8 149.5t5 142q6 158 10 318h1049v-1434h-393v1151z" />
    <glyph glyph-name="uni041C" unicode="&#x41c;" horiz-adv-x="1804" 
d="M115 1434h514l272 -852h6l273 852h510v-1434h-385v989h-7l-321 -989h-225l-318 989h-6v-989h-313v1434z" />
    <glyph glyph-name="uni041D" unicode="&#x41d;" horiz-adv-x="1456" 
d="M115 0v1434h393v-566h440v566h393v-1434h-393v592h-440v-592h-393z" />
    <glyph glyph-name="uni041E" unicode="&#x41e;" horiz-adv-x="1526" 
d="M762 -18q-146 0 -275 48t-225 141t-151.5 229.5t-55.5 314.5t56.5 315t153.5 230.5t225 142.5t272 49q143 0 272 -49t226.5 -142.5t153.5 -230.5t56 -315t-56 -314.5t-152.5 -229.5t-225.5 -141t-274 -48zM762 250q135 0 221 109.5t86 351.5q0 241 -86 353t-221 112
t-221 -112t-86 -353q0 -242 86 -351.5t221 -109.5z" />
    <glyph glyph-name="uni041F" unicode="&#x41f;" horiz-adv-x="1436" 
d="M115 0v1434h1206v-1434h-393v1155h-420v-1155h-393z" />
    <glyph glyph-name="uni0420" unicode="&#x420;" horiz-adv-x="1270" 
d="M117 1434h526q293 0 439.5 -113t146.5 -352q0 -238 -152.5 -351.5t-447.5 -113.5h-119v-504h-393v1434zM508 750h119q121 0 167 57t46 158q0 102 -44 153t-169 51h-119v-419z" />
    <glyph glyph-name="uni0421" unicode="&#x421;" horiz-adv-x="1294" 
d="M762 -18q-162 0 -292 48t-222 141t-141.5 228.5t-49.5 309.5q0 176 53.5 314t149.5 233.5t232.5 145.5t302.5 50q151 0 250.5 -27.5t179.5 -74.5v-273h-152q-41 37 -105.5 67t-162.5 30q-164 0 -255 -111t-91 -340q0 -246 83 -356.5t244 -110.5q117 0 187.5 37t124.5 88
h139v-260q-82 -60 -198.5 -99.5t-276.5 -39.5z" />
    <glyph glyph-name="uni0422" unicode="&#x422;" 
d="M418 0v1161h-369v273h1131v-273h-369v-1161h-393z" />
    <glyph glyph-name="uni0423" unicode="&#x423;" horiz-adv-x="1305" 
d="M399 -16q-47 0 -80.5 4t-56.5 8q-26 6 -47 12v252h86q90 0 135 34t80 105l-487 942v93h364l299 -639l266 639h318v-93l-426 -976q-37 -86 -78 -156t-93 -120t-121 -77.5t-159 -27.5z" />
    <glyph glyph-name="uni0424" unicode="&#x424;" horiz-adv-x="1743" 
d="M1315 719q0 67 -17.5 123.5t-51.5 97.5t-81 64.5t-106 23.5v-614q121 4 188.5 88t67.5 217zM428 715q0 -66 17.5 -123t50 -98t81 -64.5t107.5 -23.5v612q-121 -2 -188.5 -86t-67.5 -217zM1065 -10h-387v166q-137 6 -251 43t-197 106.5t-129 173t-46 238.5t45 238.5
t128 174t197 109.5t253 45v160h387v-160q137 -6 252 -43t196.5 -106.5t128 -174t46.5 -243.5q0 -131 -46.5 -232.5t-129 -173t-196.5 -110.5t-251 -45v-166z" />
    <glyph glyph-name="uni0425" unicode="&#x425;" horiz-adv-x="1399" 
d="M53 96l381 645l-371 596v97h390l280 -469l252 469h322v-97l-351 -600l390 -641v-96h-388l-303 514l-278 -514h-324v96z" />
    <glyph glyph-name="uni0426" unicode="&#x426;" horiz-adv-x="1507" 
d="M1174 -287l-41 287h-1016v1434h393v-1155h420v1155h393v-1155h156v-566h-305z" />
    <glyph glyph-name="uni0427" unicode="&#x427;" horiz-adv-x="1407" 
d="M899 0v543q-51 -19 -143 -41.5t-209 -22.5q-103 0 -187 25.5t-144 83t-93 146.5t-33 216v484h393v-469q0 -111 47.5 -152t133.5 -41q84 0 146 12.5t89 20.5v629h393v-1434h-393z" />
    <glyph glyph-name="uni0428" unicode="&#x428;" horiz-adv-x="2095" 
d="M117 1434h393v-1155h342v1155h393v-1155h340v1155h393v-1434h-1861v1434z" />
    <glyph glyph-name="uni0429" unicode="&#x429;" horiz-adv-x="2167" 
d="M1833 -287l-41 287h-1675v1434h393v-1155h342v1155h393v-1155h340v1155h393v-1155h160v-566h-305z" />
    <glyph glyph-name="uni042A" unicode="&#x42a;" horiz-adv-x="1509" 
d="M338 0v1161h-309v273h702v-490h148q286 0 428.5 -114.5t142.5 -356.5t-142.5 -357.5t-424.5 -115.5h-545zM729 686v-424h137q117 0 157 57.5t40 155.5t-44 154.5t-153 56.5h-137z" />
    <glyph glyph-name="uni042B" unicode="&#x42b;" horiz-adv-x="1855" 
d="M117 1434h393v-490h145q287 0 430.5 -114.5t143.5 -356.5t-142.5 -357.5t-424.5 -115.5h-545v1434zM1343 0v1434h394v-1434h-394zM508 686v-424h137q117 0 157 57.5t40 155.5t-44 154.5t-153 56.5h-137z" />
    <glyph glyph-name="uni042C" unicode="&#x42c;" horiz-adv-x="1288" 
d="M117 1434h393v-490h145q287 0 430.5 -114.5t143.5 -356.5t-142.5 -357.5t-424.5 -115.5h-545v1434zM508 686v-424h137q117 0 157 57.5t40 155.5t-44 154.5t-153 56.5h-137z" />
    <glyph glyph-name="uni042D" unicode="&#x42d;" horiz-adv-x="1280" 
d="M500 -18q-142 0 -256.5 36.5t-192.5 96.5v266h142q51 -49 120.5 -85t167.5 -36q295 0 342 338h-499v264h497q-22 154 -104 234t-223 80q-101 0 -172.5 -28t-112.5 -69h-150v262q82 48 188.5 79.5t266.5 31.5q162 0 293 -47t224 -136t143.5 -220t50.5 -299
q0 -177 -48.5 -319t-140.5 -241.5t-227 -153.5t-309 -54z" />
    <glyph glyph-name="uni042E" unicode="&#x42e;" horiz-adv-x="2050" 
d="M1325 -18q-127 0 -240.5 39.5t-201.5 116.5t-145.5 191.5t-75.5 262.5h-152v-592h-393v1434h393v-566h158q20 142 79.5 250.5t147.5 183t197.5 112.5t232.5 38q139 0 261 -49t213 -142.5t143.5 -230.5t52.5 -315t-52.5 -314.5t-142.5 -229.5t-212 -141t-263 -48z
M1325 250q123 0 200 109.5t77 351.5q0 243 -77 354t-200 111t-198.5 -111t-75.5 -354q0 -242 75.5 -351.5t198.5 -109.5z" />
    <glyph glyph-name="uni042F" unicode="&#x42f;" horiz-adv-x="1337" 
d="M831 1167h-131q-110 0 -158 -55t-48 -151q0 -97 48 -153t158 -56h131v415zM702 496l-288 -496h-357v92l314 494q-119 43 -194 134t-75 243q0 227 147.5 349t428.5 122h543v-1434h-394v496h-125z" />
    <glyph glyph-name="uni0430" unicode="&#x430;" horiz-adv-x="1137" 
d="M530 201q45 0 82 18.5t62 40.5v191q-29 4 -59.5 7t-61.5 3q-74 0 -117 -30t-43 -99q0 -70 39 -100.5t98 -30.5zM842 0q-66 0 -98.5 24.5t-49.5 77.5q-57 -61 -133 -88.5t-174 -27.5q-72 0 -135.5 20.5t-109.5 60t-72.5 101t-26.5 141.5q0 84 30.5 146.5t87 104.5
t134.5 62.5t172 20.5q65 0 114.5 -4t92.5 -14v73q0 70 -41 103t-141 33q-80 0 -144.5 -20.5t-111.5 -49.5h-111v246q76 32 184.5 59t253.5 27q242 0 360.5 -86t118.5 -287v-723h-200z" />
    <glyph glyph-name="uni0431" unicode="&#x431;" horiz-adv-x="1204" 
d="M606 -16q-123 0 -225 34.5t-176 110.5t-115 192.5t-41 280.5v43q0 172 26.5 307t100.5 229.5t204 149.5t335 68q59 4 105 9t77 11q37 8 64 15h104v-250q-45 -13 -100 -21q-47 -8 -116 -16t-153 -14q-149 -11 -221 -57t-90 -156q59 38 140 67t192 29q217 0 330.5 -127
t113.5 -357q0 -133 -42 -235t-116.5 -172t-176 -105.5t-220.5 -35.5zM606 225q86 0 134 65.5t48 229.5q0 135 -47 188.5t-139 53.5q-57 0 -101 -18.5t-79 -41.5v-116q0 -103 10 -171.5t32.5 -110.5t57.5 -60.5t84 -18.5z" />
    <glyph glyph-name="uni0432" unicode="&#x432;" horiz-adv-x="1153" 
d="M1057 801q0 -58 -17.5 -98.5t-45 -68.5t-63.5 -43.5t-71 -21.5v-8q43 -6 86 -21.5t77 -43t55.5 -70.5t21.5 -109q0 -149 -103.5 -233t-330.5 -84h-566v1079h547q203 0 306.5 -66.5t103.5 -211.5zM459 858v-199h129q65 0 94 26t29 77q0 96 -123 96h-129zM459 221h143
q82 0 107.5 32t25.5 85q0 51 -27.5 79.5t-105.5 28.5h-143v-225z" />
    <glyph glyph-name="uni0433" unicode="&#x433;" horiz-adv-x="915" 
d="M887 827h-418v-827h-369v1079h787v-252z" />
    <glyph glyph-name="uni0434" unicode="&#x434;" horiz-adv-x="1341" 
d="M520 459q-16 -135 -67 -217h344v585h-260q0 -61 -2 -127q-3 -55 -7 -119.5t-8 -121.5zM303 -246h-278v488h63q59 28 88 93.5t39 180.5q4 74 7 170t5 184q2 103 2 209h932v-837h135v-488h-278l-25 246h-665z" />
    <glyph glyph-name="uni0435" unicode="&#x435;" horiz-adv-x="1145" 
d="M594 870q-31 0 -59.5 -9t-52 -33.5t-40 -66.5t-22.5 -110h334q-4 125 -45 172t-115 47zM1059 90q-35 -20 -78 -38.5t-96.5 -34t-121 -24.5t-151.5 -9q-282 0 -424.5 146t-142.5 402q0 130 40 234t112.5 178t174 113t222.5 39q508 0 508 -541q0 -33 -2 -59.5t-2 -36.5
h-680q12 -135 75.5 -182.5t176.5 -47.5q92 0 159.5 22.5t114.5 57.5h115v-219z" />
    <glyph glyph-name="uni0436" unicode="&#x436;" horiz-adv-x="1792" 
d="M709 426h-84l-254 -426h-340v88l280 487l-252 416v88h314l248 -409h88v409h368v-409h88l248 409h307v-88l-245 -405l286 -498v-88h-346l-254 426h-84v-426h-368v426z" />
    <glyph glyph-name="uni0437" unicode="&#x437;" horiz-adv-x="1020" 
d="M436 242q92 0 127 29.5t35 74.5q0 47 -37 70.5t-123 23.5h-131v226h133q66 0 105 21.5t39 68.5q0 88 -148 88q-84 0 -137 -22.5t-84 -51.5h-131v246q51 28 148.5 54t236.5 26q225 0 346 -76t121 -221q0 -60 -20.5 -101t-53.5 -67.5t-70.5 -41t-70.5 -20.5v-8
q39 -4 82 -19.5t80 -45t60.5 -75.5t23.5 -112q0 -145 -121 -235t-373 -90q-154 0 -255 29.5t-155 62.5v239h125q29 -26 94.5 -49.5t153.5 -23.5z" />
    <glyph glyph-name="uni0438" unicode="&#x438;" horiz-adv-x="1266" 
d="M457 1079v-643h4l334 643h370v-1079h-356v643h-4l-334 -643h-371v1079h357z" />
    <glyph glyph-name="uni0439" unicode="&#x439;" horiz-adv-x="1266" 
d="M627 1149q-135 0 -213 63.5t-97 153.5v82h236q4 -41 18.5 -67.5t55.5 -26.5q43 0 57 26.5t18 67.5h236v-82q-18 -90 -97 -153.5t-214 -63.5zM457 1079v-643h4l334 643h370v-1079h-356v643h-4l-334 -643h-371v1079h357z" />
    <glyph glyph-name="uni043A" unicode="&#x43a;" horiz-adv-x="1202" 
d="M571 426h-104v-426h-369v1079h369v-409h108l248 409h307v-88l-245 -405l286 -498v-88h-346z" />
    <glyph glyph-name="uni043B" unicode="&#x43b;" horiz-adv-x="1231" 
d="M762 825h-238q-2 -88 -4 -172q-4 -71 -7 -150t-7 -136q-19 -191 -94.5 -289t-231.5 -98q-39 0 -66.5 5t-45.5 13q-23 8 -37 18v254h32q64 0 86.5 42t32.5 145q8 102 13.5 210.5t9.5 200.5q4 107 4 211h921v-1079h-368v825z" />
    <glyph glyph-name="uni043C" unicode="&#x43c;" horiz-adv-x="1575" 
d="M100 1079h484l211 -581h6l194 581h480v-1079h-355v707h-4l-237 -707h-244l-250 707h-6v-707h-279v1079z" />
    <glyph glyph-name="uni043D" unicode="&#x43d;" horiz-adv-x="1251" 
d="M784 426h-315v-426h-369v1079h369v-409h315v409h238q41 0 66.5 -8t39 -31.5t18.5 -63.5t5 -104v-872h-367v426z" />
    <glyph glyph-name="uni043E" unicode="&#x43e;" horiz-adv-x="1235" 
d="M618 -16q-122 0 -226.5 37.5t-181.5 108.5t-121 173.5t-44 231.5t44 233t121 177t181.5 112t226.5 39q121 0 226.5 -39t182.5 -112t121 -177t44 -233t-44 -231.5t-121 -173.5t-182.5 -108.5t-226.5 -37.5zM618 225q93 0 147 73t54 232q0 162 -54 239t-147 77
q-92 0 -147 -77t-55 -239q0 -159 55 -232t147 -73z" />
    <glyph glyph-name="uni043F" unicode="&#x43f;" horiz-adv-x="1241" 
d="M469 0h-369v1079h1041v-1079h-369v836h-303v-836z" />
    <glyph glyph-name="uni0440" unicode="&#x440;" horiz-adv-x="1247" 
d="M618 248q44 0 80.5 11t65.5 44t45 88t16 146q0 86 -15 142t-43 88t-64.5 44t-77.5 12q-35 0 -79 -11t-77 -26v-495q61 -43 149 -43zM733 10q-88 0 -152.5 19.5t-111.5 56.5v-418h-369v1411h256q41 0 67 -22.5t36 -93.5q59 59 140 96t192 37q75 0 149 -27t131 -89
t92 -162.5t35 -248.5q0 -153 -39 -260.5t-103.5 -173t-148.5 -95.5t-174 -30z" />
    <glyph glyph-name="uni0441" unicode="&#x441;" horiz-adv-x="1044" 
d="M618 -16q-272 0 -422.5 142t-150.5 411q0 131 44 234t122 176t187.5 111t242.5 38q119 0 204 -23.5t138 -52.5v-252h-133q-29 27 -78 47.5t-115 20.5q-106 0 -172.5 -75t-66.5 -229q0 -153 62.5 -223.5t168.5 -70.5q84 0 132 23.5t83 51.5h123v-231q-53 -35 -144 -66.5
t-225 -31.5z" />
    <glyph glyph-name="uni0442" unicode="&#x442;" horiz-adv-x="1008" 
d="M29 1079h950v-252h-291v-827h-369v827h-290v252z" />
    <glyph glyph-name="uni0443" unicode="&#x443;" horiz-adv-x="1169" 
d="M281 -248l141 299l-389 944v84h350l225 -612h6l209 612h316v-84l-525 -1327h-333v84z" />
    <glyph glyph-name="uni0444" unicode="&#x444;" horiz-adv-x="1694" 
d="M1028 1096q146 0 261.5 -38t195.5 -108.5t123 -172t43 -230.5t-42 -233.5t-122 -178.5t-195.5 -112.5t-263.5 -38.5v-316h-364v316q-146 0 -260.5 37.5t-194.5 108.5t-123 173.5t-43 231.5t42 233t121 177t194.5 112t263.5 39v338h231q43 0 68.5 -7.5t40 -28t19.5 -56
t5 -93.5v-153zM1028 223q129 0 193.5 80t64.5 246t-64.5 235.5t-193.5 69.5v-631zM408 530q0 -165 64.5 -236t191.5 -71v631q-127 0 -191.5 -79t-64.5 -245z" />
    <glyph glyph-name="uni0445" unicode="&#x445;" horiz-adv-x="1174" 
d="M41 86l301 465l-281 442v86h361l194 -331l181 331h301v-86l-258 -422l293 -485v-86h-359l-209 367l-209 -367h-315v86z" />
    <glyph glyph-name="uni0446" unicode="&#x446;" horiz-adv-x="1303" 
d="M977 -246l-25 246h-852v1079h369v-837h287v837h235q43 0 68.5 -8t39 -31.5t18.5 -63.5t5 -104v-630h135v-488h-280z" />
    <glyph glyph-name="uni0447" unicode="&#x447;" horiz-adv-x="1208" 
d="M739 0v399q-43 -20 -121.5 -42.5t-187.5 -22.5q-76 0 -139.5 18.5t-109.5 59.5t-71.5 109.5t-25.5 168.5v389h369v-338q0 -88 35.5 -117.5t105.5 -29.5q45 0 84 8t61 16v461h238q43 0 68.5 -8t39 -31.5t18.5 -63.5t5 -104v-872h-369z" />
    <glyph glyph-name="uni0448" unicode="&#x448;" horiz-adv-x="1769" 
d="M100 0v1079h369v-835h231v835h369v-835h234v835h237q41 0 66.5 -8t39 -31.5t18.5 -63.5t5 -104v-872h-1569z" />
    <glyph glyph-name="uni0449" unicode="&#x449;" horiz-adv-x="1849" 
d="M1526 -246l-25 246h-1401v1079h369v-835h231v835h369v-835h234v835h237q41 0 66.5 -8t39 -31.5t18.5 -63.5t5 -104v-628h135v-490h-278z" />
    <glyph glyph-name="uni044A" unicode="&#x44a;" horiz-adv-x="1321" 
d="M295 0v836h-264v243h631v-323h157q217 0 339 -92.5t122 -280.5q0 -186 -122 -284.5t-345 -98.5h-518zM659 227h101q71 0 114.5 37t43.5 115t-43.5 114.5t-114.5 36.5h-101v-303z" />
    <glyph glyph-name="uni044B" unicode="&#x44b;" horiz-adv-x="1614" 
d="M1153 0v1079h238q41 0 66.5 -8t38.5 -31.5t18.5 -63.5t5.5 -104v-872h-367zM465 756h160q215 0 336.5 -92.5t121.5 -280.5q0 -186 -120.5 -284.5t-344.5 -98.5h-518v1079h365v-323zM463 227h102q72 0 115 37t43 115t-43 114.5t-115 36.5h-102v-303z" />
    <glyph glyph-name="uni044C" unicode="&#x44c;" horiz-adv-x="1126" 
d="M465 756h160q215 0 336.5 -92.5t121.5 -280.5q0 -186 -120.5 -284.5t-344.5 -98.5h-518v1079h365v-323zM463 227h102q72 0 115 37t43 115t-43 114.5t-115 36.5h-102v-303z" />
    <glyph glyph-name="uni044D" unicode="&#x44d;" horiz-adv-x="1040" 
d="M414 -16q-119 0 -210 29.5t-147 62.5v239h125q29 -26 78 -48.5t133 -22.5q92 0 155.5 43t88.5 141h-352v231h352q-47 183 -248 183q-67 0 -116.5 -21.5t-79.5 -50.5h-134v246q54 28 138 54t217 26q135 0 244.5 -35t185.5 -103.5t116.5 -170t40.5 -232.5
q0 -270 -153.5 -420.5t-433.5 -150.5z" />
    <glyph glyph-name="uni044E" unicode="&#x44e;" horiz-adv-x="1724" 
d="M1126 -18q-108 0 -200 30.5t-164 87t-118 139.5t-62 187h-113v-426h-367v1079h238q41 0 66.5 -8t39 -31.5t18.5 -63.5t5 -104v-202h117q41 200 185 313t355 113q123 0 224.5 -39t174 -112t113.5 -177t41 -233t-41 -231.5t-113.5 -174.5t-174 -109.5t-224.5 -37.5z
M1126 225q86 0 136.5 73t50.5 232q0 162 -50.5 239t-136.5 77t-136 -77t-50 -239q0 -159 50 -232t136 -73z" />
    <glyph glyph-name="uni044F" unicode="&#x44f;" horiz-adv-x="1139" 
d="M690 -2v330h-86l-227 -328h-324v88l236 303q-94 35 -148.5 109.5t-54.5 195.5q0 187 123 284t352 97h494v-1079h-365zM692 850h-88q-72 0 -115 -35t-43 -113q0 -77 43 -113t115 -36h88v297z" />
    <glyph glyph-name="uni0451" unicode="&#x451;" horiz-adv-x="1145" 
d="M379 1147q-38 0 -70 12t-55 33.5t-36 51t-13 65.5q0 35 13 65t36 52t55 34.5t70 12.5q37 0 69 -12.5t54.5 -34.5t35.5 -52t13 -65q0 -36 -13 -65.5t-35.5 -51t-54.5 -33.5t-69 -12zM796 1147q-38 0 -69.5 12t-54 33.5t-35.5 51t-13 65.5q0 35 13 65t35.5 52t54 34.5
t69.5 12.5t70 -12.5t55.5 -34.5t36.5 -52t13 -65q0 -36 -13 -65.5t-36.5 -51t-55.5 -33.5t-70 -12zM594 870q-31 0 -59.5 -9t-52 -33.5t-40 -66.5t-22.5 -110h334q-4 125 -45 172t-115 47zM1059 90q-35 -20 -78 -38.5t-96.5 -34t-121 -24.5t-151.5 -9q-282 0 -424.5 146
t-142.5 402q0 130 40 234t112.5 178t174 113t222.5 39q508 0 508 -541q0 -33 -2 -59.5t-2 -36.5h-680q12 -135 75.5 -182.5t176.5 -47.5q92 0 159.5 22.5t114.5 57.5h115v-219z" />
    <glyph glyph-name="uni0452" unicode="&#x452;" horiz-adv-x="1237" 
d="M1145 121q0 -127 -16.5 -216t-58.5 -144.5t-113.5 -81t-182.5 -25.5q-59 0 -104 10t-74 23v194h63q39 0 62.5 12.5t35 36t14.5 57t3 76.5v533q0 119 -32.5 168t-110.5 49q-49 0 -92 -9t-70 -20v-784h-369v1145h-100v184h100v105h234q74 0 101.5 -21.5t31.5 -83.5h260
v-184h-258v-170q59 39 150.5 72.5t205.5 33.5q93 0 154 -24.5t98 -74.5t52.5 -128t15.5 -184v-549z" />
    <glyph glyph-name="uni0453" unicode="&#x453;" horiz-adv-x="915" 
d="M887 827h-418v-827h-369v1079h787v-252zM379 1149v68l67 223h355v-88l-207 -203h-215z" />
    <glyph glyph-name="uni0454" unicode="&#x454;" horiz-adv-x="1044" 
d="M987 82q-53 -35 -142 -66.5t-218 -31.5q-275 0 -430.5 142t-155.5 411q0 131 44 234t124 176t188.5 111t237.5 38q123 0 209 -23.5t139 -52.5v-252h-133q-29 27 -78 47.5t-115 20.5q-84 0 -143 -42t-86 -130h344v-238h-350q20 -98 79.5 -143t147.5 -45q84 0 132 23.5
t83 51.5h123v-231z" />
    <glyph glyph-name="uni0455" unicode="&#x455;" horiz-adv-x="965" 
d="M442 -14q-139 0 -231 25.5t-158 60.5v241h125q33 -28 97.5 -54t152.5 -26q74 0 118 18.5t44 59.5q0 21 -8.5 36t-30 25.5t-58 18.5t-92.5 17q-86 10 -152.5 32.5t-112.5 61.5t-69.5 97t-23.5 142q0 88 33 155t93 111t143 65.5t186 21.5q129 0 212 -19.5t152 -52.5v-238
h-117q-36 27 -95.5 46.5t-141.5 19.5q-78 0 -109.5 -19.5t-31.5 -58.5q0 -35 39.5 -53.5t144.5 -30.5q94 -12 164.5 -33.5t117 -59.5t69 -97.5t22.5 -145.5q0 -174 -117 -270t-365 -96z" />
    <glyph glyph-name="uni0456" unicode="&#x456;" horiz-adv-x="573" 
d="M287 1145q-82 0 -136.5 48t-54.5 124t54.5 125t136.5 49q84 0 137 -49t53 -125t-53 -124t-137 -48zM102 0v1079h238q41 0 66.5 -8t39 -31.5t18.5 -63.5t5 -104v-872h-367z" />
    <glyph glyph-name="uni0457" unicode="&#x457;" horiz-adv-x="573" 
d="M479 1147q-76 0 -125 45t-49 117q0 71 49 117.5t125 46.5t124 -46.5t48 -117.5q0 -72 -48 -117t-124 -45zM92 1147q-76 0 -124 45t-48 117q0 71 48 117.5t124 46.5t125 -46.5t49 -117.5q0 -72 -49 -117t-125 -45zM102 0v1079h238q41 0 66.5 -8t39 -31.5t18.5 -63.5
t5 -104v-872h-367z" />
    <glyph glyph-name="uni0458" unicode="&#x458;" horiz-adv-x="573" 
d="M287 1145q-82 0 -136.5 48t-54.5 124t54.5 125t136.5 49q84 0 137 -49t53 -125t-53 -124t-137 -48zM469 -14q0 -179 -91 -255.5t-267 -76.5q-62 0 -106 7t-83 20v200h58q69 0 95.5 28t26.5 95v1075h238q41 0 66.5 -9t39 -31.5t18.5 -62.5t5 -104v-886z" />
    <glyph glyph-name="uni0459" unicode="&#x459;" horiz-adv-x="1774" 
d="M180 -20q-39 0 -66.5 5t-45.5 13q-23 8 -37 18v254h32q64 0 86.5 42t32.5 145q8 102 13.5 210.5t9.5 200.5q4 107 4 211h903v-323h158q217 0 339 -92.5t122 -280.5q0 -186 -121 -284.5t-344 -98.5h-518v825h-224q-2 -88 -4 -172q-4 -71 -7 -150t-7 -136
q-19 -191 -94.5 -289t-231.5 -98zM1110 227h102q72 0 115 37t43 115t-43 114.5t-115 36.5h-102v-303z" />
    <glyph glyph-name="uni045A" unicode="&#x45a;" horiz-adv-x="1808" 
d="M1147 227h102q72 0 114 32t42 99q0 66 -42 96.5t-114 30.5h-102v-258zM784 467h-315v-467h-369v1079h369v-368h315v368h365v-368h158q217 0 338.5 -86t121.5 -263q0 -174 -121.5 -268t-345.5 -94h-516v467z" />
    <glyph glyph-name="uni045B" unicode="&#x45b;" horiz-adv-x="1237" 
d="M647 813q-51 0 -95 -11t-83 -22v-780h-369v1145h-100v184h100v105h234q84 0 109.5 -24t25.5 -81h258v-184h-258v-191q72 60 168 101t213 41q61 0 114.5 -14.5t93.5 -49.5t62.5 -93t22.5 -148v-791h-369v694q0 72 -30.5 95.5t-96.5 23.5z" />
    <glyph glyph-name="uni045C" unicode="&#x45c;" horiz-adv-x="1202" 
d="M481 1149v68l67 223h355v-88l-207 -203h-215zM571 426h-104v-426h-369v1079h369v-409h108l248 409h307v-88l-245 -405l286 -498v-88h-346z" />
    <glyph glyph-name="uni045E" unicode="&#x45e;" horiz-adv-x="1169" 
d="M623 1149q-129 0 -204 63.5t-93 153.5v82h221q4 -41 18.5 -67.5t57.5 -26.5q41 0 55 26.5t18 67.5h222v-82q-19 -90 -92.5 -153.5t-202.5 -63.5zM281 -248l141 299l-389 944v84h350l225 -612h6l209 612h316v-84l-525 -1327h-333v84z" />
    <glyph glyph-name="uni045F" unicode="&#x45f;" horiz-adv-x="1223" 
d="M100 0v1079h369v-827h287v827h235q43 0 68.5 -8t39 -31.5t18.5 -63.5t5 -104v-872h-362l-25 -248h-252l-24 248h-359z" />
    <glyph glyph-name="uni0490" unicode="&#x490;" horiz-adv-x="1114" 
d="M510 0h-393v1434h628l39 284h297v-555h-571v-1163z" />
    <glyph glyph-name="uni0491" unicode="&#x491;" horiz-adv-x="915" 
d="M469 827v-827h-369v1079h484l24 238h279v-490h-418z" />
    <glyph glyph-name="uni0492" unicode="&#x492;" horiz-adv-x="1104" 
d="M852 588h-842v254h842v-254zM123 1434h950v-271h-557v-1163h-393v1434z" />
    <glyph glyph-name="uni0493" unicode="&#x493;" horiz-adv-x="938" 
d="M6 602h748v-192h-748v192zM910 827h-418v-827h-369v1079h787v-252z" />
    <glyph glyph-name="uni0496" unicode="&#x496;" horiz-adv-x="2218" 
d="M1851 279h347v-566h-306l-41 287v279zM918 592h-138l-346 -592h-377v88l396 688l-365 570v88h344l346 -566h140v566h393v-566h139l346 566h338v-88l-358 -562l401 -696v-88h-383l-346 592h-137v-592h-393v592z" />
    <glyph glyph-name="uni0497" unicode="&#x497;" horiz-adv-x="1823" 
d="M1802 242v-488h-278l-25 246h-37v242h340zM709 426h-84l-254 -426h-340v88l280 487l-252 416v88h314l248 -409h88v409h368v-409h88l248 409h307v-88l-245 -405l286 -498v-88h-346l-254 426h-84v-426h-368v426z" />
    <glyph glyph-name="uni049A" unicode="&#x49a;" horiz-adv-x="1446" 
d="M1079 279h346v-566h-305l-41 287v279zM666 592h-158v-592h-393v1434h393v-566h160l346 566h338v-88l-359 -564l402 -694v-88h-383z" />
    <glyph glyph-name="uni049B" unicode="&#x49b;" horiz-adv-x="1233" 
d="M1212 242v-488h-278l-25 246h-37v242h340zM571 426h-104v-426h-369v1079h369v-409h108l248 409h307v-88l-245 -405l286 -498v-88h-346z" />
    <glyph glyph-name="uni04A2" unicode="&#x4a2;" horiz-adv-x="1516" 
d="M1141 279h346v-566h-305l-41 287v279zM115 0v1434h393v-566h440v566h393v-1434h-393v592h-440v-592h-393z" />
    <glyph glyph-name="uni04A3" unicode="&#x4a3;" horiz-adv-x="1350" 
d="M1305 242v-488h-279l-25 246h-36v242h340zM784 426h-315v-426h-369v1079h369v-409h315v409h238q41 0 66.5 -8t39 -31.5t18.5 -63.5t5 -104v-872h-367v426z" />
    <glyph glyph-name="uni04AE" unicode="&#x4ae;" horiz-adv-x="1305" 
d="M467 0v532l-438 805v97h368l287 -560h4l277 560h311v-97l-416 -794v-543h-393z" />
    <glyph glyph-name="uni04AF" unicode="&#x4af;" horiz-adv-x="1176" 
d="M776 -332h-364v332l-381 995v84h352l231 -673h4l213 673h314v-84l-369 -995v-332z" />
    <glyph glyph-name="uni04B0" unicode="&#x4b0;" horiz-adv-x="1305" 
d="M184 547h957v-209h-957v209zM467 0v532l-438 805v97h368l287 -560h4l277 560h311v-97l-416 -794v-543h-393z" />
    <glyph glyph-name="uni04B1" unicode="&#x4b1;" horiz-adv-x="1176" 
d="M776 -209v-123h-364v123h-236v209h236l-381 995v84h352l231 -673h4l213 673h314v-84l-369 -995h236v-209h-236z" />
    <glyph glyph-name="uni04B2" unicode="&#x4b2;" horiz-adv-x="1384" 
d="M1018 279h346v-566h-305l-41 287v279zM51 96l381 645l-371 596v97h390l280 -469l252 469h322v-97l-351 -600l389 -641v-96h-387l-303 514l-278 -514h-324v96z" />
    <glyph glyph-name="uni04B3" unicode="&#x4b3;" horiz-adv-x="1192" 
d="M1171 242v-488h-278l-25 246h-37v242h340zM39 86l301 465l-281 442v86h361l194 -331l181 331h301v-86l-258 -422l292 -485v-86h-358l-209 365l-209 -365h-315v86z" />
    <glyph glyph-name="uni04BA" unicode="&#x4ba;" horiz-adv-x="1432" 
d="M508.055 1434v-542.967q50.9971 18.999 142.991 41.4971q91.9951 22.499 208.987 22.499q102.994 0 186.988 -25.498q83.9951 -25.499 143.992 -82.9951q59.9961 -57.4971 92.9941 -146.491q32.998 -88.9951 32.998 -215.987v-483.97h-392.977v468.971
q0 110.993 -47.4971 151.991q-47.4971 40.9971 -133.491 40.9971q-83.9951 0 -145.991 -12.499q-61.9971 -12.499 -88.9951 -20.499v-628.961h-392.976v1433.91h392.976z" />
    <glyph glyph-name="uni04BB" unicode="&#x4bb;" horiz-adv-x="1237" 
d="M467 954q35 29 77.5 55t90.5 45.5t101.5 30.5t111.5 11q61 0 114 -14t93 -49t63 -93.5t23 -148.5v-791h-369v694q0 35 -7.5 58t-23 36.5t-39.5 19t-57 5.5q-51 0 -95.5 -11t-82.5 -24v-778h-369v1434h234q42 0 68.5 -7t41 -28t20 -59t5.5 -99v-287z" />
    <glyph glyph-name="uni04C0" unicode="&#x4c0;" horiz-adv-x="629" 
d="M117 0v1434h395v-1434h-395z" />
    <glyph glyph-name="uni04CF" unicode="&#x4cf;" horiz-adv-x="573" 
d="M102 0v1434h234q43 0 69.5 -7t41 -28t19.5 -59t5 -99v-1241h-369z" />
    <glyph glyph-name="uni04D8" unicode="&#x4d8;" horiz-adv-x="1481" 
d="M731 -18q-170 0 -304 64.5t-222 178t-126 268t-20 334.5h961q-23 183 -124 266t-255 83q-119 0 -193.5 -28t-115.5 -69h-150v262q41 25 88 45.5t106.5 36t135.5 23.5t174 8q160 0 296 -49t234.5 -141.5t154.5 -225.5t56 -301q0 -178 -50 -319.5t-142 -237.5t-220 -147
t-284 -51zM731 252q139 0 208 100.5t83 265.5h-565q14 -180 85.5 -273t188.5 -93z" />
    <glyph glyph-name="uni04D9" unicode="&#x4d9;" horiz-adv-x="1147" 
d="M731.025 616.028q-7 68.9951 -26.498 113.493q-19.499 44.4971 -50.9971 70.4951q-31.498 25.999 -75.9961 35.998q-44.4971 9.99902 -100.493 9.99902q-90.9951 0 -158.49 -22.998q-67.4961 -22.999 -115.493 -56.9971h-114.993v218.987q34.998 19.998 77.4951 38.9971
q42.498 18.999 96.4941 33.998q53.9971 14.999 120.993 23.999q66.9951 8.99902 151.99 8.99902q139.991 0 246.485 -37.998q106.493 -37.9971 177.989 -108.993q71.4951 -70.9951 107.993 -172.489t36.498 -228.486q0 -129.992 -39.998 -234.485
q-39.9971 -104.494 -112.993 -177.489q-72.9951 -72.9951 -174.489 -112.493t-223.486 -39.498q-251.984 0 -379.977 134.492t-127.992 408.476q0 31.998 2 58.4961q1.99902 26.498 1.99902 35.498h681.959zM553.036 205.053q31.998 0 60.4961 9.5
q28.498 9.49902 51.4971 33.998q22.999 24.498 39.998 66.9951q16.998 42.498 23.998 108.494h-335.979q3 -61.9961 14.499 -103.994q11.499 -41.9971 31.498 -67.4961q19.999 -25.498 48.4971 -36.4971q28.498 -11 65.4961 -11z" />
    <glyph glyph-name="uni04E8" unicode="&#x4e8;" horiz-adv-x="1522" 
d="M422 809h715v-209h-715v209zM760 -18q-146 0 -274.5 48t-224.5 141t-152 230t-56 314q0 118 25.5 218.5t72 182.5t111.5 145t143.5 105.5t168.5 64t186 21.5q144 0 273 -48.5t225.5 -142.5t153 -231.5t56.5 -314.5t-56 -314t-152 -230t-225 -141t-275 -48zM760 250
q67 0 123.5 26.5t97.5 83t63.5 143.5t22.5 208t-22.5 209t-63.5 145t-97.5 84t-123.5 27q-68 0 -124 -27t-97 -84t-63.5 -145t-22.5 -209t22.5 -208t63.5 -143.5t97 -83t124 -26.5z" />
    <glyph glyph-name="uni04E9" unicode="&#x4e9;" horiz-adv-x="1233" 
d="M350 633h561v-205h-561v205zM616 -16q-122 0 -227 37.5t-182.5 108.5t-121.5 173.5t-44 231.5q0 130 44 233.5t121.5 176.5t182.5 112t227 39q121 0 226 -39t182.5 -112t121.5 -176.5t44 -233.5q0 -129 -44 -231.5t-121.5 -173.5t-182.5 -108.5t-226 -37.5zM616 225
q45 0 82 17.5t63.5 55t41 95t14.5 137.5q0 81 -14.5 140t-41 97.5t-63.5 57.5t-82 19t-82 -19t-64 -57.5t-41.5 -97.5t-14.5 -140q0 -80 14.5 -137.5t41.5 -95t64 -55t82 -17.5z" />
    <glyph glyph-name="Wgrave" unicode="&#x1e80;" horiz-adv-x="1937" 
d="M891 1481l-209 190v86h355l69 -209v-67h-215zM39 1341v93h381l192 -945h4l220 945h311l225 -945h4l187 945h331v-93l-321 -1341h-414l-194 842h-4l-195 -842h-408z" />
    <glyph glyph-name="wgrave" unicode="&#x1e81;" horiz-adv-x="1679" 
d="M35 993v86h354l156 -622h4l182 622h270l173 -622h4l165 622h297v-86l-301 -993h-327l-174 594h-4l-183 -594h-323zM762 1149l-209 203v88h355l69 -223v-68h-215z" />
    <glyph glyph-name="Wacute" unicode="&#x1e82;" horiz-adv-x="1937" 
d="M875 1548l67 209h355v-86l-207 -190h-215v67zM39 1341v93h381l192 -945h4l220 945h311l225 -945h4l187 945h331v-93l-321 -1341h-414l-194 842h-4l-195 -842h-408z" />
    <glyph glyph-name="wacute" unicode="&#x1e83;" horiz-adv-x="1679" 
d="M754 1149v68l67 223h355v-88l-207 -203h-215zM35 993v86h354l156 -622h4l182 622h270l173 -622h4l165 622h297v-86l-301 -993h-327l-174 594h-4l-183 -594h-323z" />
    <glyph glyph-name="Wdieresis" unicode="&#x1e84;" horiz-adv-x="1937" 
d="M781 1481q-38 0 -70 12t-55 33.5t-36 51t-13 64.5q0 36 13 65.5t36 51t55 33.5t70 12q37 0 69 -12t54.5 -33.5t35.5 -51t13 -65.5q0 -35 -13 -64.5t-35.5 -51t-54.5 -33.5t-69 -12zM1198 1481q-38 0 -69.5 12t-54 33.5t-35.5 51t-13 64.5q0 36 13 65.5t35.5 51t54 33.5
t69.5 12t70 -12t55.5 -33.5t36.5 -51t13 -65.5q0 -35 -13 -64.5t-36.5 -51t-55.5 -33.5t-70 -12zM39 1341v93h381l192 -945h4l220 945h311l225 -945h4l187 945h331v-93l-321 -1341h-414l-194 842h-4l-195 -842h-408z" />
    <glyph glyph-name="wdieresis" unicode="&#x1e85;" horiz-adv-x="1679" 
d="M658 1147q-38 0 -70 12t-55 33.5t-36 51t-13 65.5q0 35 13 65t36 52t55 34.5t70 12.5q37 0 69 -12.5t54.5 -34.5t35.5 -52t13 -65q0 -36 -13 -65.5t-35.5 -51t-54.5 -33.5t-69 -12zM1075 1147q-38 0 -69.5 12t-54 33.5t-35.5 51t-13 65.5q0 35 13 65t35.5 52t54 34.5
t69.5 12.5t70 -12.5t55.5 -34.5t36.5 -52t13 -65q0 -36 -13 -65.5t-36.5 -51t-55.5 -33.5t-70 -12zM35 993v86h354l156 -622h4l182 622h270l173 -622h4l165 622h297v-86l-301 -993h-327l-174 594h-4l-183 -594h-323z" />
    <glyph glyph-name="Ygrave" unicode="&#x1ef2;" horiz-adv-x="1309" 
d="M467 0v532l-438 805v97h368l287 -560h4l277 560h311v-97l-416 -794v-543h-393zM573 1481l-209 190v86h355l69 -209v-67h-215z" />
    <glyph glyph-name="ygrave" unicode="&#x1ef3;" horiz-adv-x="1169" 
d="M279 -248l141 299l-389 944v84h350l225 -612h6l209 612h316v-84l-525 -1327h-333v84zM504 1149l-209 203v88h355l69 -223v-68h-215z" />
    <glyph glyph-name="uni2009" unicode="&#x2009;" horiz-adv-x="225" 
 />
    <glyph glyph-name="endash" unicode="&#x2013;" horiz-adv-x="915" 
d="M78 713h758v-271h-758v271z" />
    <glyph glyph-name="emdash" unicode="&#x2014;" horiz-adv-x="1532" 
d="M78 713h1374v-273h-1374v273z" />
    <glyph glyph-name="quoteleft" unicode="&#x2018;" horiz-adv-x="473" 
d="M422 1288q-62 -8 -96.5 -28.5t-34.5 -49.5q0 -14 6.5 -22t16.5 -15t22.5 -13t25.5 -15q25 -20 42.5 -48t17.5 -75q0 -34 -13 -62t-36.5 -48.5t-55.5 -32t-69 -11.5q-39 0 -75 12.5t-63 39t-43 67t-16 96.5q0 164 90.5 251.5t280.5 103.5v-150z" />
    <glyph glyph-name="quoteright" unicode="&#x2019;" horiz-adv-x="473" 
d="M51 1030q62 8 96.5 27.5t34.5 48.5q0 15 -6.5 23.5t-16 15t-22 13t-24.5 16.5q-26 18 -44 46t-18 76q0 34 13 62t36.5 48.5t56 32t70.5 11.5q39 0 74 -13t62 -39.5t43 -67t16 -95.5q0 -164 -90.5 -252t-280.5 -102v149z" />
    <glyph glyph-name="quotesinglbase" unicode="&#x201a;" horiz-adv-x="473" 
d="M51 -59q62 6 96.5 26t34.5 49q0 14 -6.5 22.5t-16 15t-22 13.5t-24.5 17q-26 19 -44 47t-18 76q0 34 13 62t36.5 48t56 31.5t70.5 11.5q39 0 74 -13t62 -39t43 -67t16 -96q0 -165 -90.5 -252.5t-280.5 -103.5v152z" />
    <glyph glyph-name="quotedblleft" unicode="&#x201c;" horiz-adv-x="913" 
d="M422 1288q-62 -8 -96.5 -28.5t-34.5 -49.5q0 -14 6.5 -22t16.5 -15t22.5 -13t25.5 -15q25 -20 42.5 -48t17.5 -75q0 -34 -13 -62t-36.5 -48.5t-55.5 -32t-69 -11.5q-39 0 -75 12.5t-63 39t-43 67t-16 96.5q0 164 90.5 251.5t280.5 103.5v-150zM860 1288
q-60 -8 -94.5 -28.5t-34.5 -49.5q0 -14 6.5 -22t16.5 -15t22.5 -13t24.5 -15q26 -20 43.5 -48t17.5 -75q0 -34 -13 -62t-36.5 -48.5t-56 -32t-70.5 -11.5t-73 12.5t-62 39t-43 67t-16 96.5q0 163 90 251t278 104v-150z" />
    <glyph glyph-name="quotedblright" unicode="&#x201d;" horiz-adv-x="913" 
d="M492 1030q61 8 96 27.5t35 48.5q0 15 -6.5 23.5t-16.5 15t-23 13t-26 16.5q-25 18 -42 46t-17 76q0 34 13 62t36 48.5t55 32t70 11.5q39 0 74.5 -13t62.5 -39.5t43 -67t16 -95.5q0 -164 -90.5 -252t-279.5 -102v149zM51 1030q62 8 96.5 27.5t34.5 48.5q0 15 -6.5 23.5
t-16 15t-22 13t-24.5 16.5q-26 18 -44 46t-18 76q0 34 13 62t36.5 48.5t56 32t70.5 11.5q39 0 74 -13t62 -39.5t43 -67t16 -95.5q0 -164 -90.5 -252t-280.5 -102v149z" />
    <glyph glyph-name="quotedblbase" unicode="&#x201e;" horiz-adv-x="913" 
d="M492 -59q61 6 96 26t35 49q0 14 -6.5 22.5t-16.5 15t-23 13.5t-26 17q-25 19 -42 47t-17 76q0 34 13 62t36 48t55 31.5t70 11.5q39 0 74.5 -13t62.5 -39t43 -67t16 -96q0 -165 -90.5 -252.5t-279.5 -103.5v152zM51 -59q62 6 96.5 26t34.5 49q0 14 -6.5 22.5t-16 15
t-22 13.5t-24.5 17q-26 19 -44 47t-18 76q0 34 13 62t36.5 48t56 31.5t70.5 11.5q39 0 74 -13t62 -39t43 -67t16 -96q0 -165 -90.5 -252.5t-280.5 -103.5v152z" />
    <glyph glyph-name="dagger" unicode="&#x2020;" horiz-adv-x="981" 
d="M307 510v133l78 215l-223 -72h-119v334h119l223 -76l-68 203v187h347v-187l-68 -200l223 73h119v-334h-119l-223 74l78 -213v-135l-58 -612h-251z" />
    <glyph glyph-name="daggerdbl" unicode="&#x2021;" horiz-adv-x="981" 
d="M317 72l68 202l-223 -75h-119v333h119l225 -73l-80 147v117l78 149l-223 -71h-119v334h119l223 -78l-68 205v172h347v-172l-68 -203l223 76h119v-334h-119l-225 73l80 -147v-117l-78 -149l223 71h119v-333h-119l-223 77l68 -204v-172h-347v172z" />
    <glyph glyph-name="bullet" unicode="&#x2022;" horiz-adv-x="731" 
d="M367 274q-63 0 -118.5 20t-97.5 58.5t-66 93.5t-24 125t24 126t66 95t97.5 59.5t118.5 20.5q64 0 119 -20.5t96 -59.5t64.5 -95t23.5 -126t-23.5 -125t-64.5 -93.5t-96 -58.5t-119 -20z" />
    <glyph glyph-name="ellipsis" unicode="&#x2026;" horiz-adv-x="1473" 
d="M240 -14q-40 0 -75 14.5t-61.5 39.5t-41.5 59t-15 73t15 73t41.5 59t61.5 39.5t75 14.5t75 -14.5t61 -39.5t41 -59t15 -73t-15 -73t-41 -59t-61 -39.5t-75 -14.5zM736 -14q-41 0 -76 14.5t-60.5 39.5t-40.5 59t-15 73t15 73t40.5 59t60.5 39.5t76 14.5q39 0 74.5 -14.5
t61.5 -39.5t41.5 -59t15.5 -73t-15.5 -73t-41.5 -59t-61.5 -39.5t-74.5 -14.5zM1234 -14q-40 0 -75 14.5t-61.5 39.5t-41.5 59t-15 73t15 73t41.5 59t61.5 39.5t75 14.5t75 -14.5t61 -39.5t41 -59t15 -73t-15 -73t-41 -59t-61 -39.5t-75 -14.5z" />
    <glyph glyph-name="perthousand" unicode="&#x2030;" horiz-adv-x="2458" 
d="M406 868q47 0 74.5 46.5t27.5 150.5q0 106 -27 151.5t-75 45.5q-50 0 -76.5 -45.5t-26.5 -151.5q0 -105 26.5 -151t76.5 -46zM406 682q-68 0 -131.5 23.5t-112 71.5t-78 121t-29.5 171t29.5 170t78 119.5t112 70.5t131.5 23q67 0 130.5 -23t112 -70.5t78 -119.5
t29.5 -170t-29.5 -171t-78 -121t-112 -71.5t-130.5 -23.5zM1223 1493h237l-1009 -1563h-238zM1274 170q47 0 74.5 46t27.5 151q0 106 -27 151t-75 45q-50 0 -76.5 -45t-26.5 -151q0 -105 26.5 -151t76.5 -46zM1274 -18q-68 0 -131 24t-111.5 72.5t-78 121.5t-29.5 171
t29.5 170t78 119.5t111.5 70.5t131 23q67 0 130.5 -23t112 -70.5t78 -119.5t29.5 -170t-29.5 -171t-78 -121.5t-112 -72.5t-130.5 -24zM2052 170q49 0 75.5 46t26.5 151q0 106 -26 151t-76 45q-48 0 -75 -45t-27 -151q0 -105 27.5 -151t74.5 -46zM2052 -18q-68 0 -131 24
t-111.5 72.5t-78 121.5t-29.5 171t29.5 170t78 119.5t111.5 70.5t131 23q67 0 130.5 -23t112 -70.5t78 -119.5t29.5 -170t-29.5 -171t-78 -121.5t-112 -72.5t-130.5 -24z" />
    <glyph glyph-name="guilsinglleft" unicode="&#x2039;" horiz-adv-x="633" 
d="M63 467v129l232 387h274v-74l-215 -372v-5l215 -376v-74h-274z" />
    <glyph glyph-name="guilsinglright" unicode="&#x203a;" horiz-adv-x="633" 
d="M569 596v-129l-231 -385h-275v74l216 376v5l-216 372v74h275z" />
    <glyph glyph-name="fraction" unicode="&#x2044;" horiz-adv-x="459" 
d="M-156 -70h-237l1009 1563h238z" />
    <glyph glyph-name="Euro" unicode="&#x20ac;" 
d="M754 -18q-116 0 -214 30.5t-174.5 92t-129 154.5t-78.5 218h-117v191h92v45v25.5t2 25.5h-94v190h119q27 124 82.5 217t135.5 155.5t182.5 94t223.5 31.5q64 0 115 -5.5t94 -16t81 -27t77 -37.5v-266h-145q-20 16 -41 29.5t-45.5 23.5t-54 15.5t-66.5 5.5
q-108 0 -167 -54.5t-87 -165.5h340l-35 -190h-328v-43v-53h309l-34 -191h-254q12 -57 31 -98.5t48 -68.5t68.5 -39.5t93.5 -12.5q45 0 81 7.5t66 21t55 31t46 38.5h129v-247q-35 -27 -75 -50t-89.5 -40.5t-109.5 -27t-133 -9.5z" />
    <glyph glyph-name="uni20B4" unicode="&#x20b4;" horiz-adv-x="1235" 
d="M51 791v194h723q17 27 17 62q0 133 -209 133q-86 0 -154 -26t-117 -62h-141v264q78 45 184.5 70.5t241.5 25.5q131 0 232.5 -29.5t169 -81t102.5 -122t35 -150.5q0 -49 -15 -84h64v-194h-1133zM1137 96q-88 -53 -200 -83.5t-269 -30.5q-281 0 -426.5 105.5t-145.5 285.5
q0 47 10.5 79.5t20.5 49.5h-76v192h1133v-192h-670q-55 -35 -55 -107q0 -67 56 -104t167 -37q113 0 189.5 34t119.5 81h146v-273z" />
    <glyph glyph-name="uni20B8" unicode="&#x20b8;" horiz-adv-x="1235" 
d="M51 1239v195h1133v-195h-1133zM420 0v870h-369v273h1133v-273h-371v-870h-393z" />
    <glyph glyph-name="uni20BD" unicode="&#x20bd;" horiz-adv-x="1274" 
d="M512 750h119q121 0 167 57t46 158q0 102 -44 153t-169 51h-119v-419zM514 215v-215h-393v215h-103v193h103v96h-103v194h103v736h526q293 0 439.5 -113t146.5 -354q0 -236 -152.5 -349.5t-447.5 -113.5h-119v-96h426v-193h-426z" />
    <glyph glyph-name="uni2116" unicode="&#x2116;" horiz-adv-x="2337" 
d="M1855 618q-81 0 -153 26t-125 78t-84 129t-31 181q0 105 32 182.5t86 130t126 78t149 25.5q78 0 149 -25.5t124 -78t85 -130t32 -182.5q0 -104 -31 -181t-83 -129t-123 -78t-153 -26zM1855 803q52 0 80.5 47t28.5 176q0 127 -28.5 174t-80.5 47q-53 0 -81.5 -47
t-28.5 -174q0 -129 28.5 -176t81.5 -47zM117 1434h420l469 -830h6v830h323v-1434h-356l-535 940h-6v-940h-321v1434zM1466 260v272h772v-272h-772z" />
    <glyph glyph-name="trademark" unicode="&#x2122;" horiz-adv-x="1450" 
d="M211 860v428h-158v146h516v-146h-159v-428h-199zM647 1434h281l82 -285h2l84 285h282v-574h-194v395h-2l-119 -395h-135l-117 395h-2v-395h-162v574z" />
    <glyph glyph-name="Omega" unicode="&#x2126;" horiz-adv-x="1507" 
d="M61 276h371v7q-61 30 -128.5 74t-123 108.5t-91.5 156t-36 218.5q0 147 56.5 260.5t151.5 192.5t222 119t269 40q141 0 269 -40t223 -117.5t151.5 -190.5t56.5 -260q0 -129 -37 -222.5t-93 -158t-124 -107.5t-127 -73v-7h373v-276h-619v373q33 20 72 53t73 82t57.5 119.5
t23.5 169.5q0 98 -23.5 169.5t-63.5 117.5t-94.5 68t-117.5 22q-64 0 -118 -22t-94 -68t-62.5 -117.5t-22.5 -169.5q0 -99 23.5 -169.5t57 -119.5t72.5 -82t70 -53v-373h-617v276z" />
    <glyph glyph-name="onethird" unicode="&#x2153;" horiz-adv-x="1651" 
d="M200 631v545l-100 -52h-47v199l223 111h209v-803h-285zM360 -70h-237l1009 1563h238zM1262 -14q-98 0 -158.5 19.5t-103.5 41.5v168h98q19 -14 52.5 -28.5t80.5 -14.5q113 0 113 76q0 74 -104 74h-82v161h73q111 0 111 72q0 68 -92 68q-43 0 -76 -12.5t-53 -24.5h-99v164
q45 26 115 46.5t160 20.5q65 0 121.5 -13t97.5 -40t63.5 -68t22.5 -98q0 -78 -43 -121t-121 -61v-6q178 -25 178 -185q0 -116 -93 -177.5t-261 -61.5z" />
    <glyph glyph-name="twothirds" unicode="&#x2154;" horiz-adv-x="1794" 
d="M661 631h-604v200l223 197q54 47 80.5 81t26.5 67q0 28 -20.5 46.5t-61.5 18.5t-75 -14.5t-52 -30.5h-107v180q47 29 117 50.5t164 21.5q156 0 237.5 -59.5t81.5 -182.5q0 -45 -13 -80.5t-36.5 -68.5t-58.5 -64.5t-78 -66.5l-115 -95h291v-200zM526 -70h-237l1009 1563
h238zM1403 -14q-98 0 -158.5 19.5t-103.5 41.5v168h98q19 -14 52.5 -28.5t80.5 -14.5q113 0 113 76q0 74 -104 74h-82v161h73q111 0 111 72q0 68 -92 68q-43 0 -76 -12.5t-53 -24.5h-99v164q45 26 115 46.5t160 20.5q65 0 121.5 -13t97.5 -40t63.5 -68t22.5 -98
q0 -78 -43 -121t-121 -61v-6q178 -25 178 -185q0 -116 -93 -177.5t-261 -61.5z" />
    <glyph glyph-name="oneeighth" unicode="&#x215b;" horiz-adv-x="1694" 
d="M200 631v545l-100 -52h-47v199l223 111h209v-803h-285zM368 -70h-237l1009 1563h238zM1306 -14q-180 0 -270 65.5t-90 175.5q0 154 158 199v4q-66 19 -96.5 62t-30.5 106q0 102 91 160.5t238 58.5q146 0 237 -58.5t91 -160.5q0 -63 -29.5 -106t-95.5 -62v-4
q156 -45 156 -199q0 -110 -90 -175.5t-269 -65.5zM1306 154q50 0 72.5 27.5t22.5 70.5t-22.5 72.5t-72.5 29.5q-51 0 -74.5 -29.5t-23.5 -72.5t23.5 -70.5t74.5 -27.5zM1306 489q39 0 59.5 21.5t20.5 58.5t-20.5 59.5t-59.5 22.5q-41 0 -61.5 -22.5t-20.5 -59.5t20.5 -58.5
t61.5 -21.5z" />
    <glyph glyph-name="threeeighths" unicode="&#x215c;" horiz-adv-x="1749" 
d="M321 616q-98 0 -158.5 19.5t-103.5 42.5v168h98q19 -15 52.5 -29t80.5 -14q113 0 113 76q0 73 -104 73h-82v162h73q111 0 111 72q0 67 -92 67q-43 0 -76 -12t-53 -24h-99v163q45 29 115 48.5t160 19.5q65 0 121.5 -13.5t97.5 -40t63.5 -67.5t22.5 -98q0 -78 -43 -121
t-121 -61v-7q178 -24 178 -184q0 -117 -93 -178.5t-261 -61.5zM454 -70h-237l1009 1563h238zM1362 -14q-180 0 -270 65.5t-90 175.5q0 154 158 199v4q-66 19 -96.5 62t-30.5 106q0 102 91 160.5t238 58.5q146 0 237 -58.5t91 -160.5q0 -63 -29.5 -106t-95.5 -62v-4
q156 -45 156 -199q0 -110 -90 -175.5t-269 -65.5zM1362 154q50 0 72.5 27.5t22.5 70.5t-22.5 72.5t-72.5 29.5q-51 0 -74.5 -29.5t-23.5 -72.5t23.5 -70.5t74.5 -27.5zM1362 489q39 0 59.5 21.5t20.5 58.5t-20.5 59.5t-59.5 22.5q-41 0 -61.5 -22.5t-20.5 -59.5t20.5 -58.5
t61.5 -21.5z" />
    <glyph glyph-name="fiveeighths" unicode="&#x215d;" horiz-adv-x="1763" 
d="M685 891q0 -129 -97.5 -202t-269.5 -73q-90 0 -148.5 16.5t-105.5 41.5v174h98q23 -17 54.5 -30t76.5 -13q119 0 119 90q0 41 -25.5 60.5t-60.5 19.5t-56.5 -11.5t-33.5 -27.5h-152v498h557v-197h-364v-135h4q23 16 60.5 27.5t97.5 11.5q104 0 175 -60.5t71 -189.5z
M458 -70h-237l1009 1563h238zM1376 -14q-180 0 -270 65.5t-90 175.5q0 154 158 199v4q-66 19 -96.5 62t-30.5 106q0 102 91 160.5t238 58.5q146 0 237 -58.5t91 -160.5q0 -63 -29.5 -106t-95.5 -62v-4q156 -45 156 -199q0 -110 -90 -175.5t-269 -65.5zM1376 154
q50 0 72.5 27.5t22.5 70.5t-22.5 72.5t-72.5 29.5q-51 0 -74.5 -29.5t-23.5 -72.5t23.5 -70.5t74.5 -27.5zM1376 489q39 0 59.5 21.5t20.5 58.5t-20.5 59.5t-59.5 22.5q-41 0 -61.5 -22.5t-20.5 -59.5t20.5 -58.5t61.5 -21.5z" />
    <glyph glyph-name="seveneighths" unicode="&#x215e;" horiz-adv-x="1720" 
d="M137 702l281 515v4h-361v213h598v-222l-237 -581h-281v71zM376 -70h-237l1009 1563h238zM1333 -14q-180 0 -270 65.5t-90 175.5q0 154 158 199v4q-66 19 -96.5 62t-30.5 106q0 102 91 160.5t238 58.5q146 0 237 -58.5t91 -160.5q0 -63 -29.5 -106t-95.5 -62v-4
q156 -45 156 -199q0 -110 -90 -175.5t-269 -65.5zM1333 154q50 0 72.5 27.5t22.5 70.5t-22.5 72.5t-72.5 29.5q-51 0 -74.5 -29.5t-23.5 -72.5t23.5 -70.5t74.5 -27.5zM1333 489q39 0 59.5 21.5t20.5 58.5t-20.5 59.5t-59.5 22.5q-41 0 -61.5 -22.5t-20.5 -59.5t20.5 -58.5
t61.5 -21.5z" />
    <glyph glyph-name="Delta" unicode="&#x2206;" horiz-adv-x="1440" 
d="M21 90l485 1344h424l492 -1344v-90h-1401v90zM680 1090q-65 -209 -130.5 -414t-131.5 -414h535l-269 828h-4z" />
    <glyph glyph-name="minus" unicode="&#x2212;" 
d="M119 565v285h995v-285h-995z" />
    <glyph glyph-name="zero.denominator" unicode="&#xe402;" horiz-adv-x="874" 
d="M438 -14q-82 0 -153.5 25.5t-125 77.5t-84 130t-30.5 182q0 105 32 183t86 130t125.5 77.5t149.5 25.5q80 0 150.5 -25.5t124 -77.5t85 -130t31.5 -183q0 -104 -30.5 -182t-83.5 -130t-124 -77.5t-153 -25.5zM438 172q54 0 82.5 47t28.5 176q0 127 -30 174t-81 47
q-53 0 -81.5 -47t-28.5 -174q0 -129 28.5 -176t81.5 -47z" />
    <glyph glyph-name="one.denominator" unicode="&#xe403;" horiz-adv-x="565" 
d="M188 0v545l-100 -51h-47v198l223 111h209v-803h-285z" />
    <glyph glyph-name="two.denominator" unicode="&#xe404;" horiz-adv-x="713" 
d="M649 0h-604v201l223 196q54 47 80.5 81t26.5 67q0 28 -20.5 46.5t-61.5 18.5t-75 -14t-52 -31h-107v180q47 29 117 50.5t164 21.5q156 0 237.5 -59.5t81.5 -182.5q0 -45 -13 -80.5t-36.5 -68.5t-58.5 -64.5t-78 -66.5l-115 -94h291v-201z" />
    <glyph glyph-name="three.denominator" unicode="&#xe405;" horiz-adv-x="702" 
d="M301 -14q-98 0 -158.5 19.5t-103.5 41.5v168h98q19 -14 52.5 -28.5t80.5 -14.5q113 0 113 76q0 74 -104 74h-82v161h73q111 0 111 72q0 68 -92 68q-43 0 -76 -12.5t-53 -24.5h-99v164q45 26 115 46.5t160 20.5q65 0 121.5 -13t97.5 -40t63.5 -68t22.5 -98q0 -78 -43 -121
t-121 -61v-6q178 -25 178 -185q0 -116 -93 -177.5t-261 -61.5z" />
    <glyph glyph-name="four.denominator" unicode="&#xe406;" horiz-adv-x="778" 
d="M389 0v162h-350v192l360 449h260v-473h80v-168h-80v-162h-270zM227 328h170v213h-4l-166 -209v-4z" />
    <glyph glyph-name="five.denominator" unicode="&#xe407;" horiz-adv-x="707" 
d="M662 260q0 -129 -97.5 -201.5t-269.5 -72.5q-90 0 -148.5 16t-105.5 41v174h98q23 -16 54.5 -29.5t76.5 -13.5q119 0 119 90q0 41 -25.5 60.5t-60.5 19.5t-56.5 -12.5t-33.5 -26.5h-152v498h557v-197h-364v-135h4q23 16 60.5 27.5t97.5 11.5q104 0 175 -60.5t71 -189.5z
" />
    <glyph glyph-name="six.denominator" unicode="&#xe408;" horiz-adv-x="803" 
d="M416 -14q-82 0 -150.5 22.5t-118 70.5t-76 124t-26.5 180q0 207 115.5 320.5t324.5 113.5q84 0 137.5 -13t88.5 -32v-182h-97q-18 10 -46.5 18t-69.5 8q-80 0 -121 -36.5t-51 -120.5q34 24 83.5 35.5t100.5 11.5q53 0 99 -14.5t80 -43t52.5 -72.5t18.5 -106
q0 -135 -93.5 -209.5t-250.5 -74.5zM408 350q-25 0 -47.5 -6t-38.5 -14q4 -105 26.5 -138.5t63.5 -33.5q84 0 84 98q0 53 -23.5 73.5t-64.5 20.5z" />
    <glyph glyph-name="seven.denominator" unicode="&#xe409;" horiz-adv-x="694" 
d="M125 72l281 514v4h-361v213h598v-221l-237 -582h-281v72z" />
    <glyph glyph-name="eight.denominator" unicode="&#xe40a;" horiz-adv-x="801" 
d="M401 -14q-180 0 -270 65.5t-90 175.5q0 154 158 199v4q-66 19 -96.5 62t-30.5 106q0 102 91 160.5t238 58.5q146 0 237 -58.5t91 -160.5q0 -63 -29.5 -106t-95.5 -62v-4q156 -45 156 -199q0 -110 -90 -175.5t-269 -65.5zM401 154q50 0 72.5 27.5t22.5 70.5t-22.5 72.5
t-72.5 29.5q-51 0 -74.5 -29.5t-23.5 -72.5t23.5 -70.5t74.5 -27.5zM401 489q39 0 59.5 21.5t20.5 58.5t-20.5 59.5t-59.5 22.5q-41 0 -61.5 -22.5t-20.5 -59.5t20.5 -58.5t61.5 -21.5z" />
    <glyph glyph-name="nine.denominator" unicode="&#xe40b;" horiz-adv-x="797" 
d="M383 817q82 0 150.5 -22.5t117.5 -70.5t76 -124t27 -182q0 -205 -108.5 -318.5t-336.5 -113.5q-90 0 -143 13t-88 32v182h98q19 -12 47.5 -20.5t75.5 -8.5q86 0 125 36t49 118q-35 -25 -83 -36t-99 -11q-109 0 -180.5 58.5t-71.5 180.5q0 136 93 211.5t251 75.5zM391 449
q25 0 47.5 5t38.5 13q-4 106 -26.5 142t-63.5 36q-86 0 -86 -102q0 -56 24.5 -75t65.5 -19z" />
    <glyph glyph-name="zero.numerator" unicode="&#xe416;" horiz-adv-x="874" 
d="M438 616q-82 0 -153.5 26t-125 78t-84 130t-30.5 182q0 105 32 182.5t86 130t125.5 78t149.5 25.5q80 0 150.5 -25.5t124 -78t85 -130t31.5 -182.5q0 -104 -30.5 -182t-83.5 -130t-124 -78t-153 -26zM438 803q54 0 82.5 47t28.5 176q0 127 -30 174t-81 47
q-53 0 -81.5 -47t-28.5 -174q0 -129 28.5 -176t81.5 -47z" />
    <glyph glyph-name="one.numerator" unicode="&#xe417;" horiz-adv-x="565" 
d="M188 631v545l-100 -52h-47v199l223 111h209v-803h-285z" />
    <glyph glyph-name="two.numerator" unicode="&#xe418;" horiz-adv-x="713" 
d="M649 631h-604v200l223 197q54 47 80.5 81t26.5 67q0 28 -20.5 46.5t-61.5 18.5t-75 -14.5t-52 -30.5h-107v180q47 29 117 50.5t164 21.5q156 0 237.5 -59.5t81.5 -182.5q0 -45 -13 -80.5t-36.5 -68.5t-58.5 -64.5t-78 -66.5l-115 -95h291v-200z" />
    <glyph glyph-name="three.numerator" unicode="&#xe419;" horiz-adv-x="702" 
d="M301 616q-98 0 -158.5 19.5t-103.5 42.5v168h98q19 -15 52.5 -29t80.5 -14q113 0 113 76q0 73 -104 73h-82v162h73q111 0 111 72q0 67 -92 67q-43 0 -76 -12t-53 -24h-99v163q45 29 115 48.5t160 19.5q65 0 121.5 -13.5t97.5 -40t63.5 -67.5t22.5 -98q0 -78 -43 -121
t-121 -61v-7q178 -24 178 -184q0 -117 -93 -178.5t-261 -61.5z" />
    <glyph glyph-name="four.numerator" unicode="&#xe41a;" horiz-adv-x="778" 
d="M389 631v162h-350v192l360 449h260v-473h80v-168h-80v-162h-270zM227 961h170v210h-4l-166 -206v-4z" />
    <glyph glyph-name="five.numerator" unicode="&#xe41b;" horiz-adv-x="707" 
d="M662 891q0 -129 -97.5 -202t-269.5 -73q-90 0 -148.5 16.5t-105.5 41.5v174h98q23 -17 54.5 -30t76.5 -13q119 0 119 90q0 41 -25.5 60.5t-60.5 19.5t-56.5 -11.5t-33.5 -27.5h-152v498h557v-197h-364v-135h4q23 16 60.5 27.5t97.5 11.5q104 0 175 -60.5t71 -189.5z" />
    <glyph glyph-name="six.numerator" unicode="&#xe41c;" horiz-adv-x="803" 
d="M416 616q-82 0 -150.5 23t-118 71t-76 123.5t-26.5 180.5q0 207 115.5 320.5t324.5 113.5q84 0 137.5 -13.5t88.5 -31.5v-182h-97q-18 10 -46.5 18t-69.5 8q-80 0 -121 -36.5t-51 -120.5q34 24 83.5 35.5t100.5 11.5q53 0 99 -14.5t80 -43t52.5 -72.5t18.5 -106
q0 -135 -93.5 -210t-250.5 -75zM408 981q-25 0 -47.5 -6t-38.5 -14q4 -105 26.5 -139t63.5 -34q84 0 84 99q0 53 -23.5 73.5t-64.5 20.5z" />
    <glyph glyph-name="seven.numerator" unicode="&#xe41d;" horiz-adv-x="694" 
d="M125 702l281 515v4h-361v213h598v-222l-237 -581h-281v71z" />
    <glyph glyph-name="eight.numerator" unicode="&#xe41e;" horiz-adv-x="801" 
d="M401 616q-180 0 -270 66t-90 176q0 154 158 199v4q-66 18 -96.5 61t-30.5 107q0 102 91 160.5t238 58.5q146 0 237 -58.5t91 -160.5q0 -64 -29.5 -107t-95.5 -61v-4q156 -45 156 -199q0 -110 -90 -176t-269 -66zM401 784q50 0 72.5 28t22.5 71t-22.5 72.5t-72.5 29.5
q-51 0 -74.5 -29.5t-23.5 -72.5t23.5 -71t74.5 -28zM401 1120q39 0 59.5 21.5t20.5 58.5t-20.5 59.5t-59.5 22.5q-41 0 -61.5 -22.5t-20.5 -59.5t20.5 -58.5t61.5 -21.5z" />
    <glyph glyph-name="nine.numerator" unicode="&#xe41f;" horiz-adv-x="797" 
d="M383 1448q82 0 150.5 -22.5t117.5 -70.5t76 -124t27 -182q0 -205 -108.5 -319t-336.5 -114q-90 0 -143 13.5t-88 32.5v182h98q19 -10 47.5 -19.5t75.5 -9.5q86 0 125 36t49 118q-35 -25 -83 -36t-99 -11q-109 0 -180.5 58t-71.5 181q0 135 93 211t251 76zM391 1079
q25 0 47.5 5.5t38.5 13.5q-4 106 -26.5 142t-63.5 36q-86 0 -86 -102q0 -56 24.5 -75.5t65.5 -19.5z" />
    <glyph glyph-name="fi" unicode="&#xfb01;" horiz-adv-x="1264" 
d="M795 0v1079h237q42 0 67 -8.5t39 -31.5t18.5 -63t4.5 -104v-872h-366zM979 1145q-41 0 -76 13t-60.5 35.5t-40 54t-14.5 69.5q0 37 14.5 69t40 55.5t60.5 36.5t76 13q40 0 75 -13t60.5 -36.5t40 -55.5t14.5 -69q0 -38 -14.5 -69.5t-40 -54t-60.5 -35.5t-75 -13zM25 1079
h116v66q0 83 24.5 142t71.5 97t115 56t154 18q66 0 110 -8t76 -20v-207h-57q-62 0 -93.5 -18t-31.5 -75v-51h182v-237h-182v-842h-369v842h-116v237z" />
    <glyph glyph-name="fl" unicode="&#xfb02;" horiz-adv-x="1262" 
d="M25 1079h116v66q0 83 24.5 142t71.5 97t115 56t154 18q66 0 110 -8t76 -20v-207h-57q-62 0 -93.5 -18t-31.5 -75v-51h182v-237h-182v-842h-369v842h-116v237zM795 0v1434h233q42 0 68.5 -7t40.5 -28t19 -59t5 -99v-1241h-366z" />
    <glyph glyph-name="idotaccent" horiz-adv-x="569" 
d="M100 0v1079h238q42 0 67 -8.5t39 -31.5t18.5 -63t4.5 -104v-872h-367zM285 1145q-41 0 -76 13t-60.5 35.5t-40 54t-14.5 69.5q0 37 14.5 69t40 55.5t60.5 36.5t76 13t76 -13t60.5 -36.5t39.5 -55.5t14 -69q0 -38 -14 -69.5t-39.5 -54t-60.5 -35.5t-76 -13z" />
    <glyph glyph-name="space_uni0326" horiz-adv-x="815" 
d="M262 -340q53 4 73.5 16.5t20.5 32.5q0 17 -14 24t-31 17q-26 17 -38.5 38.5t-12.5 57.5q0 52 41 84.5t105 32.5q65 0 111 -40t46 -124q0 -123 -72.5 -189.5t-228.5 -76.5v127z" />
    <glyph glyph-name="space.tab" horiz-adv-x="614" 
 />
    <glyph glyph-name="dollar.tab" 
d="M401 1051q0 -47 28 -74t83 -49v250q-111 -31 -111 -127zM786 391q0 55 -26.5 85t-79.5 48v-264q106 37 106 131zM698 1444q105 -8 190 -34t159 -67v-256h-146q-39 35 -90 63t-113 38v-316q117 -30 200 -67t134 -86t74.5 -118t23.5 -165q0 -188 -114.5 -303t-335.5 -137
v-205h-186v199q-129 6 -225.5 34.5t-174.5 77.5v271h148q39 -41 100 -79t152 -48v332q-97 28 -173.5 62t-130 84t-82 119.5t-28.5 170.5q0 96 30.5 171t88 128t136.5 85t177 42v131h186v-127z" />
    <glyph glyph-name="cent.tab" 
d="M1081 82q-41 -27 -107.5 -53.5t-154.5 -36.5v-203h-186v199q-240 18 -375 158.5t-135 390.5q0 118 38 215.5t105.5 168t161.5 113.5t209 56v129h186v-129q84 -9 147.5 -28.5t106.5 -41.5v-252h-133q-20 16 -51 32.5t-70 26.5v-585q47 10 79 29.5t56 41.5h123v-231z
M496 532q0 -118 35.5 -187t105.5 -95v567q-68 -29 -104.5 -99.5t-36.5 -185.5z" />
    <glyph glyph-name="Euro.tab" 
d="M1161 109q-69 -54 -164.5 -90.5t-242.5 -36.5q-234 0 -388.5 121.5t-207.5 373.5h-117v191h92v45v25.5t2 25.5h-94v190h119q55 248 218 373t406 125q64 0 115 -5t94 -16.5t81 -28t77 -36.5v-266h-145q-39 33 -86.5 53.5t-120.5 20.5q-109 0 -167.5 -54.5t-86.5 -165.5
h340l-35 -190h-328v-96h309l-34 -191h-254q24 -117 78.5 -168t162.5 -51q90 0 147.5 28.5t100.5 69.5h129v-247z" />
    <glyph glyph-name="sterling.tab" 
d="M102 246q66 24 112 81.5t46 161.5q0 27 -2 51.5t-6 49.5h-139v241h84q-11 46 -18 91t-7 96q0 106 40 187t110.5 136.5t170 83t216.5 27.5q135 0 229 -27.5t172 -74.5v-273h-141q-41 35 -94.5 58.5t-131.5 23.5q-75 0 -131.5 -38t-56.5 -126q0 -82 12 -164h332v-241h-301
q2 -23 3 -43.5t1 -40.5q0 -70 -24.5 -124t-53.5 -87h604v-295h-1026v246z" />
    <glyph glyph-name="yen.tab" 
d="M106 793h240l-283 544v97h355l225 -500h6l215 500h301v-97l-268 -544h248v-195h-326v-96h326v-193h-326v-309h-387v309h-326v193h326v96h-326v195z" />
    <glyph glyph-name="florin.tab" 
d="M377 672h-141v237h170l28 228q37 321 381 321q70 0 113 -9t76 -22v-210h-68q-62 0 -92.5 -20.5t-38.5 -80.5l-25 -207h197v-237h-225l-107 -877h-371z" />
    <glyph glyph-name="zero.tab" 
d="M614 -20q-118 0 -221.5 43t-179.5 133t-119 229t-43 332q0 192 44 331.5t121 229.5t179.5 133t218.5 43q117 0 219.5 -43t179.5 -133t121 -229.5t44 -331.5q0 -193 -43 -332t-119 -229t-179.5 -133t-222.5 -43zM614 244q43 0 76 23.5t54.5 78.5t31.5 144.5t10 218.5
t-10 218t-31.5 144t-54.5 80t-76 25t-75.5 -25t-54 -80t-32 -144t-10.5 -218t10.5 -218.5t32 -144.5t54 -78.5t75.5 -23.5z" />
    <glyph glyph-name="one.tab" 
d="M508 0v1047l-248 -136h-82v273l445 250h278v-1434h-393z" />
    <glyph glyph-name="two.tab" 
d="M1110 0h-1010v299l394 373q120 114 173.5 190t53.5 150q0 69 -44 108t-134 39q-86 0 -151.5 -29.5t-112.5 -66.5h-138v262q76 47 190.5 87t258.5 40q246 0 383 -101.5t137 -318.5q0 -76 -22.5 -141.5t-66.5 -129t-106.5 -127t-142.5 -132.5l-233 -207h571v-295z" />
    <glyph glyph-name="three.tab" 
d="M526 -18q-155 0 -254.5 27.5t-173.5 74.5v256h144q34 -35 97.5 -60.5t154.5 -25.5q98 0 164.5 44t66.5 132q0 86 -53.5 126t-169.5 40h-115v256h102q230 0 230 162q0 155 -178 155q-86 0 -151.5 -25.5t-106.5 -53.5h-136v243q82 51 190.5 85t250.5 34q112 0 204.5 -22.5
t158 -69.5t102.5 -120t37 -173q0 -139 -74 -216t-195 -110v-8q142 -22 217.5 -102t75.5 -223q0 -103 -43 -183t-120 -134t-185.5 -81.5t-239.5 -27.5z" />
    <glyph glyph-name="four.tab" 
d="M645 0v299h-569v293l590 842h366v-885h144v-250h-144v-299h-387zM330 549h323v465h-8l-315 -457v-8z" />
    <glyph glyph-name="five.tab" 
d="M1124 469q0 -115 -43 -205t-122.5 -153.5t-192.5 -96t-250 -32.5q-145 0 -241.5 26.5t-172.5 71.5v264h142q37 -35 98 -61.5t154 -26.5q110 0 176.5 53t66.5 156q0 104 -51 149t-129 45t-124 -26.5t-73 -54.5h-219v856h901v-295h-628v-293h6q37 28 99.5 51t160.5 23
q94 0 175 -27t140.5 -82t93 -140t33.5 -202z" />
    <glyph glyph-name="six.tab" 
d="M639 -18q-129 0 -236.5 42t-184.5 128t-119 218t-42 314q0 184 48.5 327.5t140.5 242t223 148.5t297 50q119 0 195.5 -18.5t138.5 -47.5v-270h-142q-26 23 -72 40.5t-114 17.5q-162 0 -234.5 -93.5t-93.5 -267.5q119 98 308 98q96 0 176 -27.5t136 -83t87 -137t31 -188.5
q0 -110 -38 -201.5t-108.5 -156t-171 -100t-225.5 -35.5zM633 668q-60 0 -110 -17.5t-87 -42.5q6 -209 54.5 -295t142.5 -86q102 0 140 63.5t38 168.5q0 209 -178 209z" />
    <glyph glyph-name="seven.tab" 
d="M260 123l541 999v8h-695v304h1004v-324l-461 -1110h-389v123z" />
    <glyph glyph-name="eight.tab" 
d="M614 -18q-276 0 -414.5 112.5t-138.5 311.5q0 268 261 354v8q-211 74 -211 299q0 90 36.5 161.5t103 121t159 76t204.5 26.5q113 0 206 -26.5t160 -76t103.5 -121t36.5 -161.5q0 -225 -213 -299v-8q258 -86 258 -354q0 -199 -138 -311.5t-413 -112.5zM614 870
q78 0 119 43t41 121t-41 123t-119 45q-77 0 -118 -45t-41 -123t41 -121t118 -43zM614 227q103 0 148 59.5t45 147.5t-45 148.5t-148 60.5q-104 0 -149 -60.5t-45 -148.5t45 -147.5t149 -59.5z" />
    <glyph glyph-name="nine.tab" 
d="M594 764q59 0 109.5 17.5t87.5 39.5q-7 213 -55 299t-142 86q-102 0 -141 -66.5t-39 -170.5q0 -205 180 -205zM455 -18q-117 0 -198 16t-144 43v276h141q22 -20 71.5 -39.5t127.5 -19.5q86 0 145 22.5t97 66.5t58.5 109.5t28.5 151.5q-65 -47 -141 -67.5t-162 -20.5
q-196 0 -316 109.5t-120 322.5q0 111 39 203t109.5 157.5t172 102.5t226.5 37q129 0 235.5 -42t183 -128t119.5 -219t43 -315q0 -369 -179 -567.5t-537 -198.5z" />
    <glyph glyph-name="percent.tab" horiz-adv-x="1638" 
d="M1202 1493h238l-1010 -1563h-237zM391 682q-67 0 -130.5 23.5t-112 71.5t-78 121t-29.5 171t29.5 170t78 120t112 70.5t130.5 22.5q68 0 131.5 -22.5t111.5 -70.5t77.5 -120t29.5 -170t-29.5 -171t-77.5 -121t-111.5 -71.5t-131.5 -23.5zM391 868q47 0 75 46.5t28 150.5
q0 106 -28 151.5t-75 45.5q-49 0 -75.5 -45.5t-26.5 -151.5q0 -104 26.5 -150.5t75.5 -46.5zM1247 -18q-67 0 -130.5 23.5t-112 72.5t-78 121.5t-29.5 171.5q0 98 29.5 169.5t78 120t112 71t130.5 22.5q68 0 131.5 -22.5t112.5 -71t78.5 -120t29.5 -169.5
q0 -99 -29.5 -171.5t-78.5 -121.5t-112.5 -72.5t-131.5 -23.5zM1247 170q49 0 76 46t27 151q0 106 -27 151t-76 45q-47 0 -74.5 -45t-27.5 -151q0 -105 27.5 -151t74.5 -46z" />
    <glyph glyph-name="perthousand.tab" horiz-adv-x="2458" 
d="M1223 1493h237l-1009 -1563h-238zM406 682q-68 0 -131.5 23.5t-111.5 71.5t-78 121t-30 171t30 170t78 120t111.5 70.5t131.5 22.5q67 0 130.5 -22.5t111.5 -70.5t78 -120t30 -170t-30 -171t-78 -121t-111.5 -71.5t-130.5 -23.5zM406 868q47 0 74.5 46.5t27.5 150.5
q0 106 -27.5 151.5t-74.5 45.5q-50 0 -76.5 -45.5t-26.5 -151.5q0 -104 26.5 -150.5t76.5 -46.5zM2052 -18q-67 0 -130.5 23.5t-112 72.5t-78 121.5t-29.5 171.5q0 98 29.5 169.5t78 120t112 71t130.5 22.5q68 0 131.5 -22.5t111.5 -71t77.5 -120t29.5 -169.5
q0 -99 -29.5 -171.5t-77.5 -121.5t-111.5 -72.5t-131.5 -23.5zM1274 -18q-68 0 -131.5 23.5t-111.5 72.5t-77.5 121.5t-29.5 171.5q0 98 29.5 169.5t77.5 120t111.5 71t131.5 22.5q67 0 130.5 -22.5t112 -71t78 -120t29.5 -169.5q0 -99 -29.5 -171.5t-78 -121.5t-112 -72.5
t-130.5 -23.5zM2052 170q49 0 75.5 46t26.5 151q0 106 -26.5 151t-75.5 45q-47 0 -74.5 -45t-27.5 -151q0 -105 27.5 -151t74.5 -46zM1274 170q47 0 74.5 46t27.5 151q0 106 -27.5 151t-74.5 45q-49 0 -76 -45t-27 -151q0 -105 27 -151t76 -46z" />
    <glyph glyph-name="plus.tab" 
d="M770 565v-368h-305v368h-346v285h346v369h305v-369h344v-285h-344z" />
    <glyph glyph-name="minus.tab" 
d="M119 565v285h995v-285h-995z" />
    <glyph glyph-name="multiply.tab" 
d="M137 414l285 282l-285 283l195 195l284 -285l285 285l195 -195l-287 -283l287 -282l-193 -193l-287 283l-286 -283z" />
    <glyph glyph-name="divide.tab" 
d="M616 918q-79 0 -134.5 53t-55.5 131q0 39 14.5 72.5t41 58t60 39t74.5 14.5q39 0 74 -14.5t60.5 -39t41 -58t15.5 -72.5t-15.5 -73t-41 -58.5t-60.5 -38.5t-74 -14zM119 850h995v-285h-995v285zM616 129q-79 0 -134.5 52t-55.5 130q0 39 14.5 73t41 59.5t60 40t74.5 14.5
q39 0 74 -14.5t60.5 -40t41 -59.5t15.5 -73t-15.5 -71.5t-41 -57t-60.5 -39t-74 -14.5z" />
    <glyph glyph-name="equal.tab" 
d="M156 717v272h921v-272h-921zM156 287v272h921v-272h-921z" />
    <glyph glyph-name="less.tab" 
d="M180 799l789 385h75v-277l-489 -227v-6l489 -230v-278h-75l-789 385v248z" />
    <glyph glyph-name="greater.tab" 
d="M1051 551l-789 -385h-76v276l488 228v6l-488 227v281h76l789 -385v-248z" />
    <glyph glyph-name="period.tab" horiz-adv-x="614" 
d="M307 -14q-41 0 -75.5 14t-60.5 40t-41 59.5t-15 72.5t15 73t41 59.5t60.5 39.5t75.5 14q39 0 75 -14t61.5 -39.5t41 -59.5t15.5 -73t-15.5 -72.5t-41 -59.5t-61.5 -40t-75 -14z" />
    <glyph glyph-name="comma.tab" horiz-adv-x="614" 
d="M115 -84q137 18 137 82q0 29 -22.5 38t-51.5 30q-28 20 -45.5 50.5t-17.5 80.5q0 71 53 116t133 45t141.5 -54t61.5 -171q0 -332 -389 -369v152z" />
    <glyph glyph-name="colon.tab" horiz-adv-x="614" 
d="M307 567q-82 0 -137 53.5t-55 131.5q0 39 14 73.5t41 60t61.5 40t75.5 14.5q39 0 75 -14.5t61.5 -40t41 -60t15.5 -73.5t-15.5 -73t-41 -58.5t-61.5 -39t-75 -14.5zM307 -14q-41 0 -75.5 14t-61.5 40t-41 59.5t-14 72.5t14 73t41 59.5t61.5 39.5t75.5 14q39 0 75 -14
t61.5 -39.5t41 -59.5t15.5 -73t-15.5 -72.5t-41 -59.5t-61.5 -40t-75 -14z" />
    <glyph glyph-name="semicolon.tab" horiz-adv-x="614" 
d="M307 567q-82 0 -137 53.5t-55 131.5q0 39 14 73.5t41 60t61.5 40t75.5 14.5q39 0 75 -14.5t61.5 -40t41 -60t15.5 -73.5t-15.5 -73t-41 -58.5t-61.5 -39t-75 -14.5zM111 -84q137 18 137 82q0 29 -22.5 38t-51.5 30q-29 20 -46 50.5t-17 80.5q0 71 53 116t133 45
q82 0 142.5 -54t60.5 -171q0 -168 -95.5 -259t-293.5 -110v152z" />
    <glyph glyph-name="numbersign.tab" 
d="M516 645h172l27 193h-172zM158 1092h182l51 342h240l-51 -342h172l51 342h239l-51 -342h148v-254h-185l-26 -193h145v-254h-182l-57 -391h-240l57 391h-172l-57 -391h-240l58 391h-148v254h184l27 193h-145v254z" />
    <glyph glyph-name="Q.alt" horiz-adv-x="1520" 
d="M1206 -248q-28 41 -66 76t-94.5 62.5t-135.5 49t-185 37.5q-129 21 -236.5 63t-193.5 110q-117 92 -179.5 231t-62.5 340q0 174 56.5 310t152.5 230.5t224 142.5t274 48q145 0 274 -49t225.5 -142.5t152.5 -230.5t56 -313q0 -230 -92 -373t-256 -203v-6q86 -14 156 -40.5
t123 -60.5t90 -72t59 -73v-137h-342zM760 246q135 0 221 109.5t86 355.5q0 241 -86 353t-221 112t-221 -112t-86 -353q0 -246 86 -355.5t221 -109.5z" />
    <glyph glyph-name="Q.alt1" horiz-adv-x="1520" 
d="M760 -18q-146 0 -275 48t-225 141t-151.5 229.5t-55.5 314.5t56.5 315t152.5 230.5t224 142.5t274 49q143 0 272 -49t226.5 -142.5t153.5 -230.5t56 -315q0 -140 -39.5 -255.5t-111.5 -207.5l162 -135v-117h-283l-86 74q-78 -45 -167 -68.5t-183 -23.5zM760 242
q78 0 137 18l-166 146v110h268l50 -41q18 92 18 236q0 241 -86 353t-221 112t-221 -112t-86 -353q0 -246 86 -357.5t221 -111.5z" />
    <glyph glyph-name="space_uni0326.alt" horiz-adv-x="819" 
d="M559 1458q-53 -4 -73.5 -16t-20.5 -33q0 -16 14.5 -23.5t30.5 -17.5q27 -16 39 -37.5t12 -58.5q0 -51 -41 -84t-104 -33q-66 0 -112 40t-46 124q0 123 72.5 189.5t228.5 76.5v-127z" />
    <glyph glyph-name="caron.alt" horiz-adv-x="819" 
d="M266 1434h285v-88l-119 -197h-166v285z" />
    <glyph glyph-name="less.cap" horiz-adv-x="909" 
d="M59 629v174l449 631h338v-95l-426 -622v-4l426 -619v-94h-338z" />
    <glyph glyph-name="greater.cap" horiz-adv-x="909" 
d="M63 94l424 623v4l-424 618v95h336l449 -629v-174l-449 -631h-336v94z" />
    <glyph glyph-name="questiondown.cap" horiz-adv-x="950" 
d="M715 987q10 -61 9 -109.5t-15.5 -91.5t-44 -82.5t-74.5 -85.5q-66 -59 -113 -115.5t-47 -125.5q0 -58 38 -87.5t99 -29.5q76 0 126 23.5t85 58.5h140v-252q-72 -47 -167.5 -77.5t-228.5 -30.5q-229 0 -351 97t-122 283q0 125 61.5 207t163.5 156q43 33 77 60.5t57.5 57
t34 63.5t6.5 81h266zM573 1448q41 0 76 -14.5t61.5 -40t41 -59.5t14.5 -72q0 -39 -14.5 -73t-41 -59.5t-61.5 -40t-76 -14.5t-75.5 14.5t-60 40t-41 59.5t-15.5 73q0 38 15.5 72t41 59.5t60 40t75.5 14.5z" />
    <glyph glyph-name="exclamdown.cap" horiz-adv-x="616" 
d="M504 215v-215h-391v215l73 772h242zM307 1448q41 0 76 -14.5t61.5 -40t41 -59.5t14.5 -72q0 -39 -14.5 -73t-41 -59.5t-61.5 -40t-76 -14.5q-39 0 -73.5 14.5t-61.5 40t-42 59.5t-15 73q0 38 15 72t42 59.5t61.5 40t73.5 14.5z" />
    <glyph glyph-name="bullet.cap" horiz-adv-x="731" 
d="M367 373q-64 0 -119 20.5t-97 58t-66 92t-24 124.5q0 69 24 125.5t66 95.5t97 59.5t119 20.5q63 0 118.5 -20.5t96.5 -59.5t64.5 -95.5t23.5 -125.5q0 -70 -23.5 -124.5t-64.5 -92t-96.5 -58t-118.5 -20.5z" />
    <glyph glyph-name="hyphen.cap" horiz-adv-x="639" 
d="M68 811h503v-281h-503v281z" />
    <glyph glyph-name="endash.cap" horiz-adv-x="899" 
d="M70 807h757v-272h-757v272z" />
    <glyph glyph-name="emdash.cap" horiz-adv-x="1516" 
d="M70 807h1374v-272h-1374v272z" />
    <glyph glyph-name="dagger.cap" horiz-adv-x="981" 
d="M307 530v134l78 215l-223 -72h-119v334h119l223 -76l-68 201v168h347v-168l-68 -201l223 76h119v-334h-119l-223 74l78 -213v-133l-58 -535h-251z" />
    <glyph glyph-name="daggerdbl.cap" horiz-adv-x="981" 
d="M387 913l-225 -73h-119v329h119l223 -73l-68 192v146h347v-146l-68 -190l223 71h119v-329h-119l-225 75l84 -153v-86l-84 -156l225 74h119v-330h-119l-223 74l68 -193v-145h-347v145l68 191l-223 -72h-119v330h119l225 -76l-84 154v86z" />
    <glyph glyph-name="quoteleft.cap" horiz-adv-x="1092" 
d="M584 -18q-105 0 -200 34.5t-168 105.5t-117 180.5t-44 258.5q0 191 58.5 346.5t178.5 269t301 180t425 79.5v-250q-121 -12 -202 -40t-129 -62.5t-68.5 -75.5t-20.5 -84t24.5 -70t63.5 -47.5t87 -41t97 -50.5q31 -21 62 -49.5t54.5 -67.5t37.5 -91t14 -120
q0 -90 -33.5 -165t-93 -128t-143.5 -82.5t-184 -29.5z" />
    <glyph glyph-name="quoteright.cap" horiz-adv-x="1092" 
d="M508 1452q104 0 199.5 -35t169 -105.5t117.5 -180t44 -259.5q0 -190 -59 -345.5t-179 -268.5t-301.5 -179.5t-424.5 -78.5v248q123 14 203.5 40.5t129 62.5t68 77t19.5 82q0 45 -25 71.5t-63.5 47t-87 41t-95.5 51.5q-33 20 -62.5 48t-53 66.5t-38 91t-14.5 120.5
q0 90 33 164.5t93.5 128t143.5 83t183 29.5z" />
    <glyph glyph-name="quotedblleft.cap" horiz-adv-x="2163" 
d="M584 -18q-105 0 -200 34.5t-168 105.5t-117 180.5t-44 258.5q0 191 58.5 346.5t178.5 269t301 180t425 79.5v-250q-121 -12 -202 -40t-129 -62.5t-68.5 -75.5t-20.5 -84t24.5 -70t63.5 -47.5t87 -41t97 -50.5q31 -21 62 -49.5t54.5 -67.5t37.5 -91t14 -120
q0 -90 -33.5 -165t-93 -128t-143.5 -82.5t-184 -29.5zM1655 -18q-105 0 -200 34.5t-168 105.5t-117 180.5t-44 258.5q0 191 58.5 346.5t178.5 269t301 180t425 79.5v-250q-121 -12 -202 -40t-129 -62.5t-67.5 -75.5t-19.5 -84t24.5 -70t62.5 -47.5t86 -41t98 -50.5
q32 -21 62 -49.5t53.5 -67.5t37.5 -91t14 -120q0 -90 -33.5 -165t-93 -128t-143.5 -82.5t-184 -29.5z" />
    <glyph glyph-name="quotedblright.cap" horiz-adv-x="2163" 
d="M1579 1452q104 0 199.5 -35t169 -105.5t117.5 -180t44 -259.5q0 -190 -59 -345.5t-179 -268.5t-301 -179.5t-425 -78.5v248q123 14 204 40.5t129 62.5t67.5 77t19.5 82q0 45 -24.5 71.5t-63.5 47t-87.5 41t-95.5 51.5q-32 20 -62 48t-53.5 66.5t-38 91t-14.5 120.5
q0 90 33 164.5t93.5 128t143.5 83t183 29.5zM508 1452q104 0 199.5 -35t169 -105.5t117.5 -180t44 -259.5q0 -190 -59 -345.5t-179 -268.5t-301.5 -179.5t-424.5 -78.5v248q123 14 203.5 40.5t129 62.5t68 77t19.5 82q0 45 -25 71.5t-63.5 47t-87 41t-95.5 51.5
q-33 20 -62.5 48t-53 66.5t-38 91t-14.5 120.5q0 90 33 164.5t93.5 128t143.5 83t183 29.5z" />
    <glyph glyph-name="guillemotleft.cap" horiz-adv-x="1511" 
d="M1448 1339l-426 -622v-4l426 -619v-94h-338l-448 629v174l448 631h338v-95zM846 1339l-426 -622v-4l426 -619v-94h-338l-449 629v174l449 631h338v-95z" />
    <glyph glyph-name="guillemotright.cap" horiz-adv-x="1511" 
d="M63 94l424 623v4l-424 618v95h336l449 -629v-174l-449 -631h-336v94zM666 94l424 623v4l-424 618v95h335l449 -629v-174l-449 -631h-335v94z" />
    <glyph glyph-name="at.cap" horiz-adv-x="1763" 
d="M885 -70q-158 0 -306.5 42t-264 131.5t-185.5 227.5t-70 328q0 203 79 357.5t203 260t278.5 160t308.5 54.5q159 0 299.5 -42t247 -124t168 -201.5t61.5 -275.5q0 -139 -42 -238.5t-110.5 -165t-160 -96.5t-189.5 -31q-121 0 -180 37t-82 92q-41 -51 -100.5 -87.5
t-151.5 -36.5q-108 0 -178 71.5t-70 210.5q0 92 30 178t85 154t136 108.5t183 40.5q72 0 116 -22.5t79 -56.5q27 34 59.5 51.5t83.5 17.5h138l-103 -467q-10 -43 -4 -72.5t49 -29.5q39 0 76 19.5t64.5 60.5t44 106.5t16.5 155.5q0 110 -39 195t-112.5 144.5t-178 90.5
t-235.5 31q-123 0 -239 -40t-206 -121t-144 -203t-54 -286q0 -145 46 -249.5t128 -170t190.5 -96t235.5 -30.5q151 0 273 33.5t220 95.5h72v-172q-92 -62 -240.5 -101t-324.5 -39zM815 535q62 0 115 53l61 274q-14 4 -28.5 9.5t-42.5 5.5q-41 0 -74 -21.5t-55.5 -57.5
t-35 -83t-12.5 -97q0 -83 72 -83z" />
    <glyph glyph-name="paragraph.cap" horiz-adv-x="1208" 
d="M496 614h-7q-98 0 -180 24t-141 73t-92 125.5t-33 185.5q0 117 40 196.5t109.5 127t165 68t205.5 20.5h531v-1434h-234v1200h-131v-1200h-233v614z" />
    <glyph glyph-name="grave.cap" horiz-adv-x="815" 
d="M311 1481l-209 190v86h355l69 -209v-67h-215z" />
    <glyph glyph-name="dieresis.cap" horiz-adv-x="815" 
d="M199 1481q-38 0 -70 12t-55 33.5t-36 51t-13 64.5q0 36 13 65.5t36 51t55 33.5t70 12q37 0 69 -12t54.5 -33.5t35.5 -51t13 -65.5q0 -35 -13 -64.5t-35.5 -51t-54.5 -33.5t-69 -12zM616 1481q-38 0 -69.5 12t-54 33.5t-35.5 51t-13 64.5q0 36 13 65.5t35.5 51t54 33.5
t69.5 12t70 -12t55.5 -33.5t36.5 -51t13 -65.5q0 -35 -13 -64.5t-36.5 -51t-55.5 -33.5t-70 -12z" />
    <glyph glyph-name="macron.cap" horiz-adv-x="815" 
d="M690 1501h-565v223h565v-223z" />
    <glyph glyph-name="acute.cap" horiz-adv-x="815" 
d="M291 1548l67 209h355v-86l-207 -190h-215v67z" />
    <glyph glyph-name="circumflex.cap" horiz-adv-x="815" 
d="M98 1559l187 204h247l183 -204v-78h-199l-115 78l-112 -78h-191v78z" />
    <glyph glyph-name="caron.cap" horiz-adv-x="815" 
d="M715 1686l-189 -205h-247l-181 205v77h199l115 -77l112 77h191v-77z" />
    <glyph glyph-name="breve.cap" horiz-adv-x="815" 
d="M408 1481q-64 0 -115 16t-88.5 43t-61 64t-32.5 79v80h211q3 -24 22.5 -43.5t63.5 -19.5q43 0 62 19.5t24 43.5h211v-80q-9 -41 -33 -77.5t-61.5 -64t-88 -44t-114.5 -16.5z" />
    <glyph glyph-name="dotaccent.cap" horiz-adv-x="815" 
d="M408 1481q-41 0 -76 13t-60.5 35.5t-40 54t-14.5 69.5q0 37 14.5 69t40 55.5t60.5 36.5t76 13q40 0 75 -13t60.5 -36.5t40 -55.5t14.5 -69q0 -38 -14.5 -69.5t-40 -54t-60.5 -35.5t-75 -13z" />
    <glyph glyph-name="ring.cap" horiz-adv-x="815" 
d="M408 1481q-45 0 -85 14.5t-70 41.5t-47.5 66t-17.5 87t17.5 86.5t47.5 65.5t70 42t85 15q44 0 84 -15t70 -42t47.5 -65.5t17.5 -86.5t-17.5 -87t-47.5 -66t-70 -41.5t-84 -14.5zM408 1616q31 0 50 20t19 54t-19 54t-50 20t-49.5 -20t-18.5 -54t18.5 -54t49.5 -20z" />
    <glyph glyph-name="tilde.cap" horiz-adv-x="815" 
d="M51 1563q17 102 73 156.5t144 54.5q37 0 70 -8t61.5 -17t52 -17t42.5 -8q26 0 40.5 13.5t22.5 36.5h184v-82q-17 -103 -72.5 -157t-142.5 -54q-38 0 -70.5 8.5t-61 18t-52 18t-41.5 8.5q-53 0 -65 -53h-185v82z" />
    <glyph glyph-name="hungarumlaut.cap" horiz-adv-x="815" 
d="M121 1540l63 217h289v-86l-156 -190h-196v59zM487 1540l64 217h289v-86l-154 -190h-199v59z" />
    <glyph glyph-name="f.short" horiz-adv-x="690" 
d="M25 1079h116v66q0 166 95.5 239.5t269.5 73.5q65 0 109 -8t77 -20v-207h-57q-62 0 -93.5 -17.5t-31.5 -75.5v-51h182v-237h-182v-842h-369v842h-116v237z" />
    <glyph glyph-name="f_f.short" horiz-adv-x="1335" 
d="M510 0h-369v842h-116v237h116v54q0 165 95.5 239t269.5 74q72 0 112.5 -8t75.5 -21v-207h-59q-62 0 -93.5 -17t-31.5 -71v-43h278v66q0 166 95.5 239.5t269.5 73.5q66 0 109 -8t75 -20v-207h-55q-63 0 -95 -17.5t-32 -75.5v-51h182v-237h-182v-842h-367v842h-278v-842z
" />
    </font>
</defs>
</svg>
